<svg width="35" height="30" viewBox="0 0 35 30" fill="none" xmlns="http://www.w3.org/2000/svg">
<path d="M7.77778 13V6.66667H3.88889V8.33333C3.88889 9.38889 4.24537 10.3403 4.95833 11.1875C5.6713 12.0347 6.61111 12.6389 7.77778 13ZM27.2222 13C28.3889 12.6389 29.3287 12.0347 30.0417 11.1875C30.7546 10.3403 31.1111 9.38889 31.1111 8.33333V6.66667H27.2222V13ZM15.5556 26.6667V21.5C13.9676 21.1944 12.5498 20.6181 11.3021 19.7708C10.0544 18.9236 9.13889 17.8611 8.55556 16.5833C6.125 16.3333 4.09144 15.4236 2.45486 13.8542C0.818287 12.2847 0 10.4444 0 8.33333V6.66667C0 5.75 0.380787 4.96528 1.14236 4.3125C1.90394 3.65972 2.81944 3.33333 3.88889 3.33333H7.77778C7.77778 2.41667 8.15857 1.63194 8.92014 0.979167C9.68171 0.326389 10.5972 0 11.6667 0H23.3333C24.4028 0 25.3183 0.326389 26.0799 0.979167C26.8414 1.63194 27.2222 2.41667 27.2222 3.33333H31.1111C32.1806 3.33333 33.0961 3.65972 33.8576 4.3125C34.6192 4.96528 35 5.75 35 6.66667V8.33333C35 10.4444 34.1817 12.2847 32.5451 13.8542C30.9086 15.4236 28.875 16.3333 26.4444 16.5833C25.8611 17.8611 24.9456 18.9236 23.6979 19.7708C22.4502 20.6181 21.0324 21.1944 19.4444 21.5V26.6667H25.2778C25.8287 26.6667 26.2905 26.8264 26.6632 27.1458C27.0359 27.4653 27.2222 27.8611 27.2222 28.3333C27.2222 28.8056 27.0359 29.2014 26.6632 29.5208C26.2905 29.8403 25.8287 30 25.2778 30H9.72222C9.1713 30 8.70949 29.8403 8.33681 29.5208C7.96412 29.2014 7.77778 28.8056 7.77778 28.3333C7.77778 27.8611 7.96412 27.4653 8.33681 27.1458C8.70949 26.8264 9.1713 26.6667 9.72222 26.6667H15.5556Z" fill="#FBFDFE"/>
<path d="M14.0089 11.1046V9.65146L17.6523 3.9114H18.9052V5.92276H18.1637L15.8668 9.55771V9.62589H21.0444V11.1046H14.0089ZM18.1978 12.6387V10.6614L18.2319 10.0179V3.9114H19.962V12.6387H18.1978Z" fill="black"/>
</svg>
