<svg width="35" height="30" viewBox="0 0 35 30" fill="none" xmlns="http://www.w3.org/2000/svg">
<path d="M7.77778 13V6.66667H3.88889V8.33333C3.88889 9.38889 4.24537 10.3403 4.95833 11.1875C5.6713 12.0347 6.61111 12.6389 7.77778 13ZM27.2222 13C28.3889 12.6389 29.3287 12.0347 30.0417 11.1875C30.7546 10.3403 31.1111 9.38889 31.1111 8.33333V6.66667H27.2222V13ZM15.5556 26.6667V21.5C13.9676 21.1944 12.5498 20.6181 11.3021 19.7708C10.0544 18.9236 9.13889 17.8611 8.55556 16.5833C6.125 16.3333 4.09144 15.4236 2.45486 13.8542C0.818287 12.2847 0 10.4444 0 8.33333V6.66667C0 5.75 0.380787 4.96528 1.14236 4.3125C1.90394 3.65972 2.81944 3.33333 3.88889 3.33333H7.77778C7.77778 2.41667 8.15857 1.63194 8.92014 0.979167C9.68171 0.326389 10.5972 0 11.6667 0H23.3333C24.4028 0 25.3183 0.326389 26.0799 0.979167C26.8414 1.63194 27.2222 2.41667 27.2222 3.33333H31.1111C32.1806 3.33333 33.0961 3.65972 33.8576 4.3125C34.6192 4.96528 35 5.75 35 6.66667V8.33333C35 10.4444 34.1817 12.2847 32.5451 13.8542C30.9086 15.4236 28.875 16.3333 26.4444 16.5833C25.8611 17.8611 24.9456 18.9236 23.6979 19.7708C22.4502 20.6181 21.0324 21.1944 19.4444 21.5V26.6667H25.2778C25.8287 26.6667 26.2905 26.8264 26.6632 27.1458C27.0359 27.4653 27.2222 27.8611 27.2222 28.3333C27.2222 28.8056 27.0359 29.2014 26.6632 29.5208C26.2905 29.8403 25.8287 30 25.2778 30H9.72222C9.1713 30 8.70949 29.8403 8.33681 29.5208C7.96412 29.2014 7.77778 28.8056 7.77778 28.3333C7.77778 27.8611 7.96412 27.4653 8.33681 27.1458C8.70949 26.8264 9.1713 26.6667 9.72222 26.6667H15.5556Z" fill="#FBFDFE"/>
<path d="M17.4226 15.1193C16.7862 15.1193 16.2195 15.0099 15.7223 14.7912C15.228 14.5696 14.8374 14.2656 14.5504 13.8793C14.2664 13.4901 14.12 13.0412 14.1115 12.5327H15.9695C15.9808 12.7457 16.0504 12.9332 16.1783 13.0952C16.309 13.2543 16.4823 13.3778 16.6982 13.4659C16.9141 13.554 17.157 13.598 17.4269 13.598C17.7081 13.598 17.9567 13.5483 18.1726 13.4489C18.3885 13.3494 18.5575 13.2116 18.6797 13.0355C18.8019 12.8594 18.8629 12.6562 18.8629 12.4261C18.8629 12.1932 18.7976 11.9872 18.6669 11.8082C18.5391 11.6264 18.3544 11.4844 18.1129 11.3821C17.8743 11.2798 17.5902 11.2287 17.2607 11.2287H16.4468V9.87358H17.2607C17.5391 9.87358 17.7848 9.82528 17.9979 9.72869C18.2138 9.6321 18.3814 9.49858 18.5007 9.32812C18.62 9.15483 18.6797 8.95312 18.6797 8.72301C18.6797 8.50426 18.6272 8.3125 18.522 8.14773C18.4198 7.98011 18.2749 7.84943 18.0874 7.75568C17.9027 7.66193 17.6868 7.61506 17.4397 7.61506C17.1897 7.61506 16.961 7.66051 16.7536 7.75142C16.5462 7.83949 16.38 7.96591 16.255 8.13068C16.13 8.29545 16.0632 8.48864 16.0547 8.71023H14.2862C14.2948 8.20739 14.4382 7.7642 14.7166 7.38068C14.995 6.99716 15.37 6.69744 15.8416 6.48153C16.3161 6.26278 16.8516 6.15341 17.4482 6.15341C18.0504 6.15341 18.5774 6.26278 19.0291 6.48153C19.4808 6.70028 19.8317 6.99574 20.0817 7.3679C20.3345 7.73722 20.4595 8.15199 20.4567 8.61222C20.4595 9.10085 20.3075 9.50852 20.0007 9.83523C19.6968 10.1619 19.3004 10.3693 18.8118 10.4574V10.5256C19.4539 10.608 19.9425 10.831 20.2777 11.1946C20.6158 11.5554 20.7834 12.0071 20.7806 12.5497C20.7834 13.0469 20.6399 13.4886 20.3502 13.875C20.0632 14.2614 19.6669 14.5653 19.1612 14.7869C18.6556 15.0085 18.076 15.1193 17.4226 15.1193Z" fill="black"/>
</svg>
