<svg width="35" height="30" viewBox="0 0 35 30" fill="none" xmlns="http://www.w3.org/2000/svg">
<path d="M7.77778 10.8333V5.55556H3.88889V6.94444C3.88889 7.82407 4.24537 8.6169 4.95833 9.32292C5.6713 10.0289 6.61111 10.5324 7.77778 10.8333ZM27.2222 10.8333C28.3889 10.5324 29.3287 10.0289 30.0417 9.32292C30.7546 8.6169 31.1111 7.82407 31.1111 6.94444V5.55556H27.2222V10.8333ZM15.5556 22.2222V17.9167C13.9676 17.662 12.5498 17.1817 11.3021 16.4757C10.0544 15.7697 9.13889 14.8843 8.55556 13.8194C6.125 13.6111 4.09144 12.853 2.45486 11.5451C0.818287 10.2373 0 8.7037 0 6.94444V5.55556C0 4.79167 0.380787 4.13773 1.14236 3.59375C1.90394 3.04977 2.81944 2.77778 3.88889 2.77778H7.77778C7.77778 2.01389 8.15857 1.35995 8.92014 0.815972C9.68171 0.271991 10.5972 0 11.6667 0H23.3333C24.4028 0 25.3183 0.271991 26.0799 0.815972C26.8414 1.35995 27.2222 2.01389 27.2222 2.77778H31.1111C32.1806 2.77778 33.0961 3.04977 33.8576 3.59375C34.6192 4.13773 35 4.79167 35 5.55556V6.94444C35 8.7037 34.1817 10.2373 32.5451 11.5451C30.9086 12.853 28.875 13.6111 26.4444 13.8194C25.8611 14.8843 24.9456 15.7697 23.6979 16.4757C22.4502 17.1817 21.0324 17.662 19.4444 17.9167V22.2222H25.2778C25.8287 22.2222 26.2905 22.3553 26.6632 22.6215C27.0359 22.8877 27.2222 23.2176 27.2222 23.6111C27.2222 24.0046 27.0359 24.3345 26.6632 24.6007C26.2905 24.8669 25.8287 25 25.2778 25H9.72222C9.1713 25 8.70949 24.8669 8.33681 24.6007C7.96412 24.3345 7.77778 24.0046 7.77778 23.6111C7.77778 23.2176 7.96412 22.8877 8.33681 22.6215C8.70949 22.3553 9.1713 22.2222 9.72222 22.2222H15.5556Z" fill="#FBFDFE"/>
<path d="M18.8544 4.27273V13H17.0092V6.02415H16.9581L14.9595 7.27699V5.64062L17.12 4.27273H18.8544Z" fill="black"/>
</svg>
