<svg width="35" height="30" viewBox="0 0 35 30" fill="none" xmlns="http://www.w3.org/2000/svg">
<path d="M7.77778 13V6.66667H3.88889V8.33333C3.88889 9.38889 4.24537 10.3403 4.95833 11.1875C5.6713 12.0347 6.61111 12.6389 7.77778 13ZM27.2222 13C28.3889 12.6389 29.3287 12.0347 30.0417 11.1875C30.7546 10.3403 31.1111 9.38889 31.1111 8.33333V6.66667H27.2222V13ZM15.5556 26.6667V21.5C13.9676 21.1944 12.5498 20.6181 11.3021 19.7708C10.0544 18.9236 9.13889 17.8611 8.55556 16.5833C6.125 16.3333 4.09144 15.4236 2.45486 13.8542C0.818287 12.2847 0 10.4444 0 8.33333V6.66667C0 5.75 0.380787 4.96528 1.14236 4.3125C1.90394 3.65972 2.81944 3.33333 3.88889 3.33333H7.77778C7.77778 2.41667 8.15857 1.63194 8.92014 0.979167C9.68171 0.326389 10.5972 0 11.6667 0H23.3333C24.4028 0 25.3183 0.326389 26.0799 0.979167C26.8414 1.63194 27.2222 2.41667 27.2222 3.33333H31.1111C32.1806 3.33333 33.0961 3.65972 33.8576 4.3125C34.6192 4.96528 35 5.75 35 6.66667V8.33333C35 10.4444 34.1817 12.2847 32.5451 13.8542C30.9086 15.4236 28.875 16.3333 26.4444 16.5833C25.8611 17.8611 24.9456 18.9236 23.6979 19.7708C22.4502 20.6181 21.0324 21.1944 19.4444 21.5V26.6667H25.2778C25.8287 26.6667 26.2905 26.8264 26.6632 27.1458C27.0359 27.4653 27.2222 27.8611 27.2222 28.3333C27.2222 28.8056 27.0359 29.2014 26.6632 29.5208C26.2905 29.8403 25.8287 30 25.2778 30H9.72222C9.1713 30 8.70949 29.8403 8.33681 29.5208C7.96412 29.2014 7.77778 28.8056 7.77778 28.3333C7.77778 27.8611 7.96412 27.4653 8.33681 27.1458C8.70949 26.8264 9.1713 26.6667 9.72222 26.6667H15.5556Z" fill="#FBFDFE"/>
<path d="M14.9281 15V13.6705L18.0346 10.794C18.2988 10.5384 18.5204 10.3082 18.6994 10.1037C18.8812 9.89915 19.019 9.69886 19.1127 9.50284C19.2065 9.30398 19.2534 9.08949 19.2534 8.85938C19.2534 8.60369 19.1951 8.38352 19.0787 8.19886C18.9622 8.01136 18.8031 7.8679 18.6014 7.76847C18.3997 7.66619 18.171 7.61506 17.9153 7.61506C17.6483 7.61506 17.4153 7.66903 17.2164 7.77699C17.0176 7.88494 16.8642 8.03977 16.7562 8.24148C16.6483 8.44318 16.5943 8.68324 16.5943 8.96165H14.8429C14.8429 8.39062 14.9721 7.89489 15.2306 7.47443C15.4892 7.05398 15.8514 6.72869 16.3173 6.49858C16.7832 6.26847 17.3201 6.15341 17.9281 6.15341C18.5531 6.15341 19.0971 6.2642 19.5602 6.4858C20.0261 6.70455 20.3883 7.00852 20.6468 7.39773C20.9054 7.78693 21.0346 8.23295 21.0346 8.7358C21.0346 9.06534 20.9693 9.39062 20.8386 9.71165C20.7108 10.0327 20.4821 10.3892 20.1525 10.7812C19.823 11.1705 19.3585 11.6378 18.7591 12.1832L17.4849 13.4318V13.4915H21.1497V15H14.9281Z" fill="black"/>
</svg>
