<svg width="577" height="181" viewBox="0 0 577 181" fill="none" xmlns="http://www.w3.org/2000/svg">
<path d="M1 179.961H576" stroke="#CCCCCC"/>
<path d="M1 147.221H576" stroke="#CCCCCC"/>
<path d="M1 114.48H576" stroke="#CCCCCC"/>
<path d="M1 81.7402H576" stroke="#CCCCCC"/>
<path d="M1 49H576" stroke="#CCCCCC"/>
<path d="M48.9219 49V179.961" stroke="#CCCCCC"/>
<path d="M144.75 49V179.961" stroke="#CCCCCC"/>
<path d="M240.586 49V179.961" stroke="#CCCCCC"/>
<path d="M336.422 49V179.961" stroke="#CCCCCC"/>
<path d="M432.25 49V179.961" stroke="#CCCCCC"/>
<path d="M528.07 49V179.961" stroke="#CCCCCC"/>
<path d="M1 49V179.961" stroke="#CCCCCC"/>
<path d="M576 49V179.961" stroke="#CCCCCC"/>
<path d="M10.5781 69.6904H46.1551V179.96H10.5781V69.6904Z" fill="#00C8FF"/>
<path d="M106.406 164.899H141.983V179.96H106.406V164.899Z" fill="#00C8FF"/>
<path d="M202.25 169.613H237.827V179.959H202.25V169.613Z" fill="#00C8FF"/>
<path d="M298.086 99.0264H333.663V179.96H298.086V99.0264Z" fill="#00C8FF"/>
<path d="M393.922 133.468H429.499V179.959H393.922V133.468Z" fill="#00C8FF"/>
<path d="M489.75 122.992H525.327V179.96H489.75V122.992Z" fill="#00C8FF"/>
<path d="M50.0234 134.646H85.6004V179.959H50.0234V134.646Z" fill="#5C86B5"/>
<path d="M145.852 69.4287H181.428V179.96H145.852V69.4287Z" fill="#5C86B5"/>
<path d="M241.68 73.8809H277.257V179.959H241.68V73.8809Z" fill="#5C86B5"/>
<path d="M337.508 73.4883H373.085V179.959H337.508V73.4883Z" fill="#5C86B5"/>
<path d="M433.359 116.705H468.936V179.959H433.359V116.705Z" fill="#5C86B5"/>
<path d="M529.188 175.244H564.764V179.959H529.188V175.244Z" fill="#5C86B5"/>
<rect x="84" width="32" height="32" fill="#00C8FF"/>
<path d="M135.426 24V6.54545H141.324C142.693 6.54545 143.813 6.79261 144.682 7.28693C145.557 7.77557 146.205 8.4375 146.625 9.27273C147.045 10.108 147.256 11.0398 147.256 12.0682C147.256 13.0966 147.045 14.0312 146.625 14.8722C146.21 15.7131 145.568 16.3835 144.699 16.8835C143.83 17.3778 142.716 17.625 141.358 17.625H137.131V15.75H141.29C142.227 15.75 142.98 15.5881 143.548 15.2642C144.116 14.9403 144.528 14.5028 144.784 13.9517C145.045 13.3949 145.176 12.767 145.176 12.0682C145.176 11.3693 145.045 10.7443 144.784 10.1932C144.528 9.64205 144.114 9.21023 143.54 8.89773C142.966 8.57955 142.205 8.42045 141.256 8.42045H137.54V24H135.426ZM150.388 24V10.9091H152.331V12.8864H152.467C152.706 12.2386 153.138 11.7131 153.763 11.3097C154.388 10.9062 155.092 10.7045 155.876 10.7045C156.024 10.7045 156.209 10.7074 156.43 10.7131C156.652 10.7187 156.82 10.7273 156.933 10.7386V12.7841C156.865 12.767 156.709 12.7415 156.464 12.7074C156.226 12.6676 155.973 12.6477 155.706 12.6477C155.07 12.6477 154.501 12.7812 154.001 13.0483C153.507 13.3097 153.115 13.6733 152.825 14.1392C152.541 14.5994 152.399 15.125 152.399 15.7159V24H150.388ZM164.237 24.2727C163.055 24.2727 162.018 23.9915 161.126 23.429C160.24 22.8665 159.547 22.0795 159.047 21.0682C158.553 20.0568 158.305 18.875 158.305 17.5227C158.305 16.1591 158.553 14.9687 159.047 13.9517C159.547 12.9347 160.24 12.1449 161.126 11.5824C162.018 11.0199 163.055 10.7386 164.237 10.7386C165.419 10.7386 166.453 11.0199 167.339 11.5824C168.232 12.1449 168.925 12.9347 169.419 13.9517C169.919 14.9687 170.169 16.1591 170.169 17.5227C170.169 18.875 169.919 20.0568 169.419 21.0682C168.925 22.0795 168.232 22.8665 167.339 23.429C166.453 23.9915 165.419 24.2727 164.237 24.2727ZM164.237 22.4659C165.135 22.4659 165.874 22.2358 166.453 21.7756C167.033 21.3153 167.462 20.7102 167.74 19.9602C168.018 19.2102 168.158 18.3977 168.158 17.5227C168.158 16.6477 168.018 15.8324 167.74 15.0767C167.462 14.321 167.033 13.7102 166.453 13.2443C165.874 12.7784 165.135 12.5455 164.237 12.5455C163.339 12.5455 162.601 12.7784 162.021 13.2443C161.442 13.7102 161.013 14.321 160.734 15.0767C160.456 15.8324 160.317 16.6477 160.317 17.5227C160.317 18.3977 160.456 19.2102 160.734 19.9602C161.013 20.7102 161.442 21.3153 162.021 21.7756C162.601 22.2358 163.339 22.4659 164.237 22.4659ZM178.183 24.2727C177.092 24.2727 176.129 23.9972 175.293 23.446C174.458 22.8892 173.805 22.1051 173.333 21.0938C172.862 20.0767 172.626 18.875 172.626 17.4886C172.626 16.1136 172.862 14.9205 173.333 13.9091C173.805 12.8977 174.461 12.1165 175.302 11.5653C176.143 11.0142 177.114 10.7386 178.217 10.7386C179.069 10.7386 179.742 10.8807 180.237 11.1648C180.737 11.4432 181.117 11.7614 181.379 12.1193C181.646 12.4716 181.853 12.7614 182.001 12.9886H182.171V6.54545H184.183V24H182.239V21.9886H182.001C181.853 22.2273 181.643 22.5284 181.37 22.892C181.097 23.25 180.708 23.571 180.202 23.8551C179.697 24.1335 179.023 24.2727 178.183 24.2727ZM178.455 22.4659C179.262 22.4659 179.944 22.2557 180.501 21.8352C181.058 21.4091 181.481 20.821 181.771 20.071C182.06 19.3153 182.205 18.4432 182.205 17.4545C182.205 16.4773 182.063 15.6222 181.779 14.8892C181.495 14.1506 181.075 13.5767 180.518 13.1676C179.961 12.7528 179.273 12.5455 178.455 12.5455C177.603 12.5455 176.893 12.7642 176.325 13.2017C175.762 13.6335 175.339 14.2216 175.055 14.9659C174.776 15.7045 174.637 16.5341 174.637 17.4545C174.637 18.3864 174.779 19.233 175.063 19.9943C175.353 20.75 175.779 21.3523 176.342 21.8011C176.91 22.2443 177.614 22.4659 178.455 22.4659ZM196.396 18.6477V10.9091H198.407V24H196.396V21.7841H196.259C195.952 22.4489 195.475 23.0142 194.827 23.4801C194.18 23.9403 193.362 24.1705 192.373 24.1705C191.555 24.1705 190.827 23.9915 190.191 23.6335C189.555 23.2699 189.055 22.7244 188.691 21.9972C188.327 21.2642 188.146 20.3409 188.146 19.2273V10.9091H190.157V19.0909C190.157 20.0455 190.424 20.8068 190.958 21.375C191.498 21.9432 192.185 22.2273 193.021 22.2273C193.521 22.2273 194.029 22.0994 194.546 21.8438C195.069 21.5881 195.506 21.196 195.859 20.6676C196.217 20.1392 196.396 19.4659 196.396 18.6477ZM207.784 10.9091V12.6136H201V10.9091H207.784ZM202.977 7.77273H204.989V20.25C204.989 20.8182 205.071 21.2443 205.236 21.5284C205.406 21.8068 205.622 21.9943 205.884 22.0909C206.151 22.1818 206.432 22.2273 206.727 22.2273C206.949 22.2273 207.131 22.2159 207.273 22.1932C207.415 22.1648 207.528 22.142 207.614 22.125L208.023 23.9318C207.886 23.983 207.696 24.0341 207.452 24.0852C207.207 24.142 206.898 24.1705 206.523 24.1705C205.955 24.1705 205.398 24.0483 204.852 23.804C204.313 23.5597 203.864 23.1875 203.506 22.6875C203.153 22.1875 202.977 21.5568 202.977 20.7955V7.77273ZM215.987 24.2727C214.805 24.2727 213.768 23.9915 212.876 23.429C211.99 22.8665 211.297 22.0795 210.797 21.0682C210.303 20.0568 210.055 18.875 210.055 17.5227C210.055 16.1591 210.303 14.9687 210.797 13.9517C211.297 12.9347 211.99 12.1449 212.876 11.5824C213.768 11.0199 214.805 10.7386 215.987 10.7386C217.169 10.7386 218.203 11.0199 219.089 11.5824C219.982 12.1449 220.675 12.9347 221.169 13.9517C221.669 14.9687 221.919 16.1591 221.919 17.5227C221.919 18.875 221.669 20.0568 221.169 21.0682C220.675 22.0795 219.982 22.8665 219.089 23.429C218.203 23.9915 217.169 24.2727 215.987 24.2727ZM215.987 22.4659C216.885 22.4659 217.624 22.2358 218.203 21.7756C218.783 21.3153 219.212 20.7102 219.49 19.9602C219.768 19.2102 219.908 18.3977 219.908 17.5227C219.908 16.6477 219.768 15.8324 219.49 15.0767C219.212 14.321 218.783 13.7102 218.203 13.2443C217.624 12.7784 216.885 12.5455 215.987 12.5455C215.089 12.5455 214.351 12.7784 213.771 13.2443C213.192 13.7102 212.763 14.321 212.484 15.0767C212.206 15.8324 212.067 16.6477 212.067 17.5227C212.067 18.3977 212.206 19.2102 212.484 19.9602C212.763 20.7102 213.192 21.3153 213.771 21.7756C214.351 22.2358 215.089 22.4659 215.987 22.4659ZM234.262 13.8409L232.455 14.3523C232.342 14.0511 232.174 13.7585 231.952 13.4744C231.737 13.1847 231.441 12.946 231.066 12.7585C230.691 12.571 230.211 12.4773 229.626 12.4773C228.825 12.4773 228.157 12.6619 227.623 13.0312C227.094 13.3949 226.83 13.858 226.83 14.4205C226.83 14.9205 227.012 15.3153 227.376 15.6051C227.739 15.8949 228.308 16.1364 229.08 16.3295L231.023 16.8068C232.194 17.0909 233.066 17.5256 233.64 18.1108C234.214 18.6903 234.501 19.4375 234.501 20.3523C234.501 21.1023 234.285 21.7727 233.853 22.3636C233.427 22.9545 232.83 23.4205 232.063 23.7614C231.296 24.1023 230.404 24.2727 229.387 24.2727C228.052 24.2727 226.947 23.983 226.072 23.4034C225.197 22.8239 224.643 21.9773 224.41 20.8636L226.319 20.3864C226.501 21.0909 226.844 21.6193 227.35 21.9716C227.862 22.3239 228.529 22.5 229.353 22.5C230.29 22.5 231.035 22.3011 231.586 21.9034C232.143 21.5 232.421 21.017 232.421 20.4545C232.421 20 232.262 19.6193 231.944 19.3125C231.626 19 231.137 18.767 230.478 18.6136L228.296 18.1023C227.097 17.8182 226.217 17.3778 225.654 16.7812C225.097 16.179 224.819 15.4261 224.819 14.5227C224.819 13.7841 225.026 13.1307 225.441 12.5625C225.862 11.9943 226.433 11.5483 227.154 11.2244C227.881 10.9006 228.705 10.7386 229.626 10.7386C230.921 10.7386 231.938 11.0227 232.677 11.5909C233.421 12.1591 233.95 12.9091 234.262 13.8409Z" fill="white"/>
<path d="M406.698 11.9091C406.596 11.0455 406.181 10.375 405.454 9.89773C404.727 9.42045 403.835 9.18182 402.778 9.18182C402.005 9.18182 401.329 9.30682 400.749 9.55682C400.175 9.80682 399.727 10.1506 399.403 10.5881C399.085 11.0256 398.925 11.5227 398.925 12.0795C398.925 12.5455 399.036 12.946 399.258 13.2812C399.485 13.6108 399.775 13.8864 400.127 14.108C400.479 14.3239 400.849 14.5028 401.235 14.6449C401.621 14.7812 401.977 14.892 402.3 14.9773L404.073 15.4545C404.528 15.5739 405.033 15.7386 405.59 15.9489C406.153 16.1591 406.69 16.446 407.201 16.8097C407.718 17.1676 408.144 17.6278 408.479 18.1903C408.815 18.7528 408.982 19.4432 408.982 20.2614C408.982 21.2045 408.735 22.0568 408.241 22.8182C407.752 23.5795 407.036 24.1847 406.093 24.6335C405.156 25.0824 404.016 25.3068 402.675 25.3068C401.425 25.3068 400.343 25.1051 399.428 24.7017C398.519 24.2983 397.803 23.7358 397.281 23.0142C396.763 22.2926 396.471 21.4545 396.403 20.5H398.585C398.641 21.1591 398.863 21.7045 399.249 22.1364C399.641 22.5625 400.136 22.8807 400.732 23.0909C401.335 23.2955 401.982 23.3977 402.675 23.3977C403.482 23.3977 404.207 23.267 404.849 23.0057C405.491 22.7386 405.999 22.3693 406.374 21.8977C406.749 21.4205 406.937 20.8636 406.937 20.2273C406.937 19.6477 406.775 19.1761 406.451 18.8125C406.127 18.4489 405.701 18.1534 405.173 17.9261C404.644 17.6989 404.073 17.5 403.46 17.3295L401.312 16.7159C399.948 16.3239 398.869 15.7642 398.073 15.0369C397.278 14.3097 396.88 13.358 396.88 12.1818C396.88 11.2045 397.144 10.3523 397.673 9.625C398.207 8.89205 398.923 8.32386 399.82 7.92045C400.724 7.51136 401.732 7.30682 402.846 7.30682C403.971 7.30682 404.971 7.50852 405.846 7.91193C406.721 8.30966 407.414 8.85511 407.925 9.54829C408.442 10.2415 408.715 11.0284 408.744 11.9091H406.698ZM417.673 25.2727C416.412 25.2727 415.324 24.9943 414.409 24.4375C413.5 23.875 412.798 23.0909 412.304 22.0852C411.815 21.0739 411.571 19.8977 411.571 18.5568C411.571 17.2159 411.815 16.0341 412.304 15.0114C412.798 13.983 413.486 13.1818 414.366 12.608C415.253 12.0284 416.287 11.7386 417.469 11.7386C418.151 11.7386 418.824 11.8523 419.489 12.0795C420.153 12.3068 420.759 12.6761 421.304 13.1875C421.849 13.6932 422.284 14.3636 422.608 15.1989C422.932 16.0341 423.094 17.0625 423.094 18.2841V19.1364H413.003V17.3977H421.048C421.048 16.6591 420.901 16 420.605 15.4205C420.315 14.8409 419.901 14.3835 419.361 14.0483C418.827 13.7131 418.196 13.5455 417.469 13.5455C416.668 13.5455 415.974 13.7443 415.389 14.142C414.81 14.5341 414.364 15.0455 414.051 15.6761C413.739 16.3068 413.582 16.983 413.582 17.7045V18.8636C413.582 19.8523 413.753 20.6903 414.094 21.3778C414.44 22.0597 414.92 22.5795 415.534 22.9375C416.148 23.2898 416.861 23.4659 417.673 23.4659C418.202 23.4659 418.679 23.392 419.105 23.2443C419.537 23.0909 419.909 22.8636 420.222 22.5625C420.534 22.2557 420.776 21.875 420.946 21.4205L422.889 21.9659C422.685 22.625 422.341 23.2045 421.858 23.7045C421.375 24.1989 420.778 24.5852 420.068 24.8636C419.358 25.1364 418.56 25.2727 417.673 25.2727ZM426.153 25V11.9091H428.097V13.8864H428.233C428.472 13.2386 428.903 12.7131 429.528 12.3097C430.153 11.9062 430.858 11.7045 431.642 11.7045C431.79 11.7045 431.974 11.7074 432.196 11.7131C432.418 11.7187 432.585 11.7273 432.699 11.7386V13.7841C432.631 13.767 432.474 13.7415 432.23 13.7074C431.991 13.6676 431.739 13.6477 431.472 13.6477C430.835 13.6477 430.267 13.7812 429.767 14.0483C429.273 14.3097 428.881 14.6733 428.591 15.1392C428.307 15.5994 428.165 16.125 428.165 16.7159V25H426.153ZM446.186 11.9091L441.345 25H439.3L434.459 11.9091H436.641L440.254 22.3409H440.391L444.004 11.9091H446.186ZM448.841 25V11.9091H450.852V25H448.841ZM449.864 9.72727C449.472 9.72727 449.134 9.59375 448.849 9.3267C448.571 9.05966 448.432 8.73864 448.432 8.36364C448.432 7.98864 448.571 7.66761 448.849 7.40057C449.134 7.13352 449.472 7 449.864 7C450.256 7 450.591 7.13352 450.869 7.40057C451.153 7.66761 451.295 7.98864 451.295 8.36364C451.295 8.73864 451.153 9.05966 450.869 9.3267C450.591 9.59375 450.256 9.72727 449.864 9.72727ZM459.854 25.2727C458.627 25.2727 457.57 24.983 456.684 24.4034C455.798 23.8239 455.116 23.0256 454.638 22.0085C454.161 20.9915 453.923 19.8295 453.923 18.5227C453.923 17.1932 454.167 16.0199 454.656 15.0028C455.15 13.9801 455.837 13.1818 456.718 12.608C457.604 12.0284 458.638 11.7386 459.82 11.7386C460.741 11.7386 461.57 11.9091 462.309 12.25C463.048 12.5909 463.653 13.0682 464.124 13.6818C464.596 14.2955 464.888 15.0114 465.002 15.8295H462.991C462.837 15.233 462.496 14.7045 461.968 14.2443C461.445 13.7784 460.741 13.5455 459.854 13.5455C459.07 13.5455 458.383 13.75 457.792 14.1591C457.207 14.5625 456.749 15.1335 456.42 15.8722C456.096 16.6051 455.934 17.4659 455.934 18.4545C455.934 19.4659 456.093 20.3466 456.411 21.0966C456.735 21.8466 457.19 22.429 457.775 22.8438C458.366 23.2585 459.059 23.4659 459.854 23.4659C460.377 23.4659 460.852 23.375 461.278 23.1932C461.704 23.0114 462.065 22.75 462.36 22.4091C462.656 22.0682 462.866 21.6591 462.991 21.1818H465.002C464.888 21.9545 464.607 22.6506 464.158 23.2699C463.715 23.8835 463.127 24.3722 462.394 24.7358C461.667 25.0938 460.82 25.2727 459.854 25.2727ZM458.9 24.9318H460.57L460.434 25.6136C460.877 25.6818 461.283 25.8665 461.653 26.1676C462.022 26.4744 462.207 26.9602 462.207 27.625C462.207 28.358 461.903 28.9545 461.295 29.4148C460.692 29.8807 459.803 30.1136 458.627 30.1136L458.559 28.7841C459.087 28.7841 459.525 28.6989 459.871 28.5284C460.224 28.3636 460.4 28.0852 460.4 27.6932C460.4 27.3011 460.255 27.0341 459.965 26.892C459.675 26.75 459.207 26.6534 458.559 26.6023L458.9 24.9318ZM473.261 25.2727C472.079 25.2727 471.042 24.9915 470.15 24.429C469.263 23.8665 468.57 23.0795 468.07 22.0682C467.576 21.0568 467.329 19.875 467.329 18.5227C467.329 17.1591 467.576 15.9687 468.07 14.9517C468.57 13.9347 469.263 13.1449 470.15 12.5824C471.042 12.0199 472.079 11.7386 473.261 11.7386C474.442 11.7386 475.477 12.0199 476.363 12.5824C477.255 13.1449 477.948 13.9347 478.442 14.9517C478.942 15.9687 479.192 17.1591 479.192 18.5227C479.192 19.875 478.942 21.0568 478.442 22.0682C477.948 23.0795 477.255 23.8665 476.363 24.429C475.477 24.9915 474.442 25.2727 473.261 25.2727ZM473.261 23.4659C474.158 23.4659 474.897 23.2358 475.477 22.7756C476.056 22.3153 476.485 21.7102 476.763 20.9602C477.042 20.2102 477.181 19.3977 477.181 18.5227C477.181 17.6477 477.042 16.8324 476.763 16.0767C476.485 15.321 476.056 14.7102 475.477 14.2443C474.897 13.7784 474.158 13.5455 473.261 13.5455C472.363 13.5455 471.624 13.7784 471.045 14.2443C470.465 14.7102 470.036 15.321 469.758 16.0767C469.479 16.8324 469.34 17.6477 469.34 18.5227C469.34 19.3977 469.479 20.2102 469.758 20.9602C470.036 21.7102 470.465 22.3153 471.045 22.7756C471.624 23.2358 472.363 23.4659 473.261 23.4659ZM491.536 14.8409L489.729 15.3523C489.615 15.0511 489.447 14.7585 489.226 14.4744C489.01 14.1847 488.714 13.946 488.339 13.7585C487.964 13.571 487.484 13.4773 486.899 13.4773C486.098 13.4773 485.43 13.6619 484.896 14.0312C484.368 14.3949 484.104 14.858 484.104 15.4205C484.104 15.9205 484.286 16.3153 484.649 16.6051C485.013 16.8949 485.581 17.1364 486.354 17.3295L488.297 17.8068C489.467 18.0909 490.339 18.5256 490.913 19.1108C491.487 19.6903 491.774 20.4375 491.774 21.3523C491.774 22.1023 491.558 22.7727 491.126 23.3636C490.7 23.9545 490.104 24.4205 489.337 24.7614C488.57 25.1023 487.678 25.2727 486.661 25.2727C485.325 25.2727 484.22 24.983 483.345 24.4034C482.47 23.8239 481.916 22.9773 481.683 21.8636L483.592 21.3864C483.774 22.0909 484.118 22.6193 484.624 22.9716C485.135 23.3239 485.803 23.5 486.626 23.5C487.564 23.5 488.308 23.3011 488.859 22.9034C489.416 22.5 489.695 22.017 489.695 21.4545C489.695 21 489.536 20.6193 489.217 20.3125C488.899 20 488.411 19.767 487.751 19.6136L485.57 19.1023C484.371 18.8182 483.49 18.3778 482.928 17.7812C482.371 17.179 482.092 16.4261 482.092 15.5227C482.092 14.7841 482.3 14.1307 482.714 13.5625C483.135 12.9943 483.706 12.5483 484.428 12.2244C485.155 11.9006 485.979 11.7386 486.899 11.7386C488.195 11.7386 489.212 12.0227 489.95 12.5909C490.695 13.1591 491.223 13.9091 491.536 14.8409Z" fill="white"/>
<rect x="335" width="32" height="32" fill="#5C86B5"/>
</svg>
