<svg width="169" height="165" viewBox="0 0 169 165" fill="none" xmlns="http://www.w3.org/2000/svg">
<path d="M0.445312 0H4.99686V4.44054H0.445312V0Z" fill="white"/>
<path d="M4.99686 0H9.54841V4.44054H4.99686V0Z" fill="white"/>
<path d="M9.54841 0H14.1V4.44054H9.54841V0Z" fill="white"/>
<path d="M14.1 0H18.6515V4.44054H14.1V0Z" fill="white"/>
<path d="M18.6515 0H23.2031V4.44054H18.6515V0Z" fill="white"/>
<path d="M23.2031 0H27.7546V4.44054H23.2031V0Z" fill="white"/>
<path d="M27.7546 0H32.3062V4.44054H27.7546V0Z" fill="white"/>
<path d="M50.5123 0H55.0639V4.44054H50.5123V0Z" fill="white"/>
<path d="M64.167 0H68.7185V4.44054H64.167V0Z" fill="white"/>
<path d="M68.7185 0H73.2701V4.44054H68.7185V0Z" fill="white"/>
<path d="M77.8216 0H82.3732V4.44054H77.8216V0Z" fill="white"/>
<path d="M86.9247 0H91.4763V4.44054H86.9247V0Z" fill="white"/>
<path d="M91.4763 0H96.0278V4.44054H91.4763V0Z" fill="white"/>
<path d="M100.579 0H105.131V4.44054H100.579V0Z" fill="white"/>
<path d="M109.682 0H114.234V4.44054H109.682V0Z" fill="white"/>
<path d="M114.234 0H118.786V4.44054H114.234V0Z" fill="white"/>
<path d="M136.992 0H141.543V4.44054H136.992V0Z" fill="white"/>
<path d="M141.543 0H146.095V4.44054H141.543V0Z" fill="white"/>
<path d="M146.095 0H150.646V4.44054H146.095V0Z" fill="white"/>
<path d="M150.646 0H155.198V4.44054H150.646V0Z" fill="white"/>
<path d="M155.198 0H159.75V4.44054H155.198V0Z" fill="white"/>
<path d="M159.75 0H164.301V4.44054H159.75V0Z" fill="white"/>
<path d="M164.301 0H168.853V4.44054H164.301V0Z" fill="white"/>
<path d="M0.445312 4.44054H4.99686V8.88107H0.445312V4.44054Z" fill="white"/>
<path d="M27.7546 4.44054H32.3062V8.88107H27.7546V4.44054Z" fill="white"/>
<path d="M50.5123 4.44054H55.0639V8.88107H50.5123V4.44054Z" fill="white"/>
<path d="M55.0639 4.44054H59.6154V8.88107H55.0639V4.44054Z" fill="white"/>
<path d="M59.6154 4.44054H64.167V8.88107H59.6154V4.44054Z" fill="white"/>
<path d="M64.167 4.44054H68.7185V8.88107H64.167V4.44054Z" fill="white"/>
<path d="M73.2701 4.44054H77.8216V8.88107H73.2701V4.44054Z" fill="white"/>
<path d="M77.8216 4.44054H82.3732V8.88107H77.8216V4.44054Z" fill="white"/>
<path d="M82.3732 4.44054H86.9247V8.88107H82.3732V4.44054Z" fill="white"/>
<path d="M86.9247 4.44054H91.4763V8.88107H86.9247V4.44054Z" fill="white"/>
<path d="M91.4763 4.44054H96.0278V8.88107H91.4763V4.44054Z" fill="white"/>
<path d="M109.682 4.44054H114.234V8.88107H109.682V4.44054Z" fill="white"/>
<path d="M114.234 4.44054H118.786V8.88107H114.234V4.44054Z" fill="white"/>
<path d="M118.786 4.44054H123.337V8.88107H118.786V4.44054Z" fill="white"/>
<path d="M136.992 4.44054H141.543V8.88107H136.992V4.44054Z" fill="white"/>
<path d="M164.301 4.44054H168.853V8.88107H164.301V4.44054Z" fill="white"/>
<path d="M0.445312 8.88107H4.99686V13.3216H0.445312V8.88107Z" fill="white"/>
<path d="M9.54841 8.88107H14.1V13.3216H9.54841V8.88107Z" fill="white"/>
<path d="M14.1 8.88107H18.6515V13.3216H14.1V8.88107Z" fill="white"/>
<path d="M18.6515 8.88107H23.2031V13.3216H18.6515V8.88107Z" fill="white"/>
<path d="M27.7546 8.88107H32.3062V13.3216H27.7546V8.88107Z" fill="white"/>
<path d="M36.8577 8.88107H41.4093V13.3216H36.8577V8.88107Z" fill="white"/>
<path d="M41.4093 8.88107H45.9608V13.3216H41.4093V8.88107Z" fill="white"/>
<path d="M45.9608 8.88107H50.5123V13.3216H45.9608V8.88107Z" fill="white"/>
<path d="M64.167 8.88107H68.7185V13.3216H64.167V8.88107Z" fill="white"/>
<path d="M68.7185 8.88107H73.2701V13.3216H68.7185V8.88107Z" fill="white"/>
<path d="M73.2701 8.88107H77.8216V13.3216H73.2701V8.88107Z" fill="white"/>
<path d="M86.9247 8.88107H91.4763V13.3216H86.9247V8.88107Z" fill="white"/>
<path d="M91.4763 8.88107H96.0278V13.3216H91.4763V8.88107Z" fill="white"/>
<path d="M96.0278 8.88107H100.579V13.3216H96.0278V8.88107Z" fill="white"/>
<path d="M100.579 8.88107H105.131V13.3216H100.579V8.88107Z" fill="white"/>
<path d="M109.682 8.88107H114.234V13.3216H109.682V8.88107Z" fill="white"/>
<path d="M114.234 8.88107H118.786V13.3216H114.234V8.88107Z" fill="white"/>
<path d="M118.786 8.88107H123.337V13.3216H118.786V8.88107Z" fill="white"/>
<path d="M127.889 8.88107H132.44V13.3216H127.889V8.88107Z" fill="white"/>
<path d="M136.992 8.88107H141.543V13.3216H136.992V8.88107Z" fill="white"/>
<path d="M146.095 8.88107H150.646V13.3216H146.095V8.88107Z" fill="white"/>
<path d="M150.646 8.88107H155.198V13.3216H150.646V8.88107Z" fill="white"/>
<path d="M155.198 8.88107H159.75V13.3216H155.198V8.88107Z" fill="white"/>
<path d="M164.301 8.88107H168.853V13.3216H164.301V8.88107Z" fill="white"/>
<path d="M0.445312 13.3216H4.99686V17.7621H0.445312V13.3216Z" fill="white"/>
<path d="M9.54841 13.3216H14.1V17.7621H9.54841V13.3216Z" fill="white"/>
<path d="M14.1 13.3216H18.6515V17.7621H14.1V13.3216Z" fill="white"/>
<path d="M18.6515 13.3216H23.2031V17.7621H18.6515V13.3216Z" fill="white"/>
<path d="M27.7546 13.3216H32.3062V17.7621H27.7546V13.3216Z" fill="white"/>
<path d="M36.8577 13.3216H41.4093V17.7621H36.8577V13.3216Z" fill="white"/>
<path d="M45.9608 13.3216H50.5123V17.7621H45.9608V13.3216Z" fill="white"/>
<path d="M55.0639 13.3216H59.6154V17.7621H55.0639V13.3216Z" fill="white"/>
<path d="M59.6154 13.3216H64.167V17.7621H59.6154V13.3216Z" fill="white"/>
<path d="M64.167 13.3216H68.7185V17.7621H64.167V13.3216Z" fill="white"/>
<path d="M68.7185 13.3216H73.2701V17.7621H68.7185V13.3216Z" fill="white"/>
<path d="M73.2701 13.3216H77.8216V17.7621H73.2701V13.3216Z" fill="white"/>
<path d="M82.3732 13.3216H86.9247V17.7621H82.3732V13.3216Z" fill="white"/>
<path d="M91.4763 13.3216H96.0278V17.7621H91.4763V13.3216Z" fill="white"/>
<path d="M100.579 13.3216H105.131V17.7621H100.579V13.3216Z" fill="white"/>
<path d="M105.131 13.3216H109.682V17.7621H105.131V13.3216Z" fill="white"/>
<path d="M109.682 13.3216H114.234V17.7621H109.682V13.3216Z" fill="white"/>
<path d="M114.234 13.3216H118.786V17.7621H114.234V13.3216Z" fill="white"/>
<path d="M127.889 13.3216H132.44V17.7621H127.889V13.3216Z" fill="white"/>
<path d="M136.992 13.3216H141.543V17.7621H136.992V13.3216Z" fill="white"/>
<path d="M146.095 13.3216H150.646V17.7621H146.095V13.3216Z" fill="white"/>
<path d="M150.646 13.3216H155.198V17.7621H150.646V13.3216Z" fill="white"/>
<path d="M155.198 13.3216H159.75V17.7621H155.198V13.3216Z" fill="white"/>
<path d="M164.301 13.3216H168.853V17.7621H164.301V13.3216Z" fill="white"/>
<path d="M0.445312 17.7621H4.99686V22.2027H0.445312V17.7621Z" fill="white"/>
<path d="M9.54841 17.7621H14.1V22.2027H9.54841V17.7621Z" fill="white"/>
<path d="M14.1 17.7621H18.6515V22.2027H14.1V17.7621Z" fill="white"/>
<path d="M18.6515 17.7621H23.2031V22.2027H18.6515V17.7621Z" fill="white"/>
<path d="M27.7546 17.7621H32.3062V22.2027H27.7546V17.7621Z" fill="white"/>
<path d="M41.4093 17.7621H45.9608V22.2027H41.4093V17.7621Z" fill="white"/>
<path d="M55.0639 17.7621H59.6154V22.2027H55.0639V17.7621Z" fill="white"/>
<path d="M59.6154 17.7621H64.167V22.2027H59.6154V17.7621Z" fill="white"/>
<path d="M77.8216 17.7621H82.3732V22.2027H77.8216V17.7621Z" fill="white"/>
<path d="M82.3732 17.7621H86.9247V22.2027H82.3732V17.7621Z" fill="white"/>
<path d="M86.9247 17.7621H91.4763V22.2027H86.9247V17.7621Z" fill="white"/>
<path d="M105.131 17.7621H109.682V22.2027H105.131V17.7621Z" fill="white"/>
<path d="M136.992 17.7621H141.543V22.2027H136.992V17.7621Z" fill="white"/>
<path d="M146.095 17.7621H150.646V22.2027H146.095V17.7621Z" fill="white"/>
<path d="M150.646 17.7621H155.198V22.2027H150.646V17.7621Z" fill="white"/>
<path d="M155.198 17.7621H159.75V22.2027H155.198V17.7621Z" fill="white"/>
<path d="M164.301 17.7621H168.853V22.2027H164.301V17.7621Z" fill="white"/>
<path d="M0.445312 22.2027H4.99686V26.6432H0.445312V22.2027Z" fill="white"/>
<path d="M27.7546 22.2027H32.3062V26.6432H27.7546V22.2027Z" fill="white"/>
<path d="M45.9608 22.2027H50.5123V26.6432H45.9608V22.2027Z" fill="white"/>
<path d="M50.5123 22.2027H55.0639V26.6432H50.5123V22.2027Z" fill="white"/>
<path d="M68.7185 22.2027H73.2701V26.6432H68.7185V22.2027Z" fill="white"/>
<path d="M73.2701 22.2027H77.8216V26.6432H73.2701V22.2027Z" fill="white"/>
<path d="M82.3732 22.2027H86.9247V26.6432H82.3732V22.2027Z" fill="white"/>
<path d="M86.9247 22.2027H91.4763V26.6432H86.9247V22.2027Z" fill="white"/>
<path d="M100.579 22.2027H105.131V26.6432H100.579V22.2027Z" fill="white"/>
<path d="M109.682 22.2027H114.234V26.6432H109.682V22.2027Z" fill="white"/>
<path d="M136.992 22.2027H141.543V26.6432H136.992V22.2027Z" fill="white"/>
<path d="M164.301 22.2027H168.853V26.6432H164.301V22.2027Z" fill="white"/>
<path d="M0.445312 26.6432H4.99686V31.0837H0.445312V26.6432Z" fill="white"/>
<path d="M4.99686 26.6432H9.54841V31.0837H4.99686V26.6432Z" fill="white"/>
<path d="M9.54841 26.6432H14.1V31.0837H9.54841V26.6432Z" fill="white"/>
<path d="M14.1 26.6432H18.6515V31.0837H14.1V26.6432Z" fill="white"/>
<path d="M18.6515 26.6432H23.2031V31.0837H18.6515V26.6432Z" fill="white"/>
<path d="M23.2031 26.6432H27.7546V31.0837H23.2031V26.6432Z" fill="white"/>
<path d="M27.7546 26.6432H32.3062V31.0837H27.7546V26.6432Z" fill="white"/>
<path d="M36.8577 26.6432H41.4093V31.0837H36.8577V26.6432Z" fill="white"/>
<path d="M45.9608 26.6432H50.5123V31.0837H45.9608V26.6432Z" fill="white"/>
<path d="M55.0639 26.6432H59.6154V31.0837H55.0639V26.6432Z" fill="white"/>
<path d="M64.167 26.6432H68.7185V31.0837H64.167V26.6432Z" fill="white"/>
<path d="M73.2701 26.6432H77.8216V31.0837H73.2701V26.6432Z" fill="white"/>
<path d="M82.3732 26.6432H86.9247V31.0837H82.3732V26.6432Z" fill="white"/>
<path d="M91.4763 26.6432H96.0278V31.0837H91.4763V26.6432Z" fill="white"/>
<path d="M100.579 26.6432H105.131V31.0837H100.579V26.6432Z" fill="white"/>
<path d="M109.682 26.6432H114.234V31.0837H109.682V26.6432Z" fill="white"/>
<path d="M118.786 26.6432H123.337V31.0837H118.786V26.6432Z" fill="white"/>
<path d="M127.889 26.6432H132.44V31.0837H127.889V26.6432Z" fill="white"/>
<path d="M136.992 26.6432H141.543V31.0837H136.992V26.6432Z" fill="white"/>
<path d="M141.543 26.6432H146.095V31.0837H141.543V26.6432Z" fill="white"/>
<path d="M146.095 26.6432H150.646V31.0837H146.095V26.6432Z" fill="white"/>
<path d="M150.646 26.6432H155.198V31.0837H150.646V26.6432Z" fill="white"/>
<path d="M155.198 26.6432H159.75V31.0837H155.198V26.6432Z" fill="white"/>
<path d="M159.75 26.6432H164.301V31.0837H159.75V26.6432Z" fill="white"/>
<path d="M164.301 26.6432H168.853V31.0837H164.301V26.6432Z" fill="white"/>
<path d="M41.4093 31.0837H45.9608V35.5243H41.4093V31.0837Z" fill="white"/>
<path d="M55.0639 31.0837H59.6154V35.5243H55.0639V31.0837Z" fill="white"/>
<path d="M59.6154 31.0837H64.167V35.5243H59.6154V31.0837Z" fill="white"/>
<path d="M64.167 31.0837H68.7185V35.5243H64.167V31.0837Z" fill="white"/>
<path d="M68.7185 31.0837H73.2701V35.5243H68.7185V31.0837Z" fill="white"/>
<path d="M73.2701 31.0837H77.8216V35.5243H73.2701V31.0837Z" fill="white"/>
<path d="M86.9247 31.0837H91.4763V35.5243H86.9247V31.0837Z" fill="white"/>
<path d="M91.4763 31.0837H96.0278V35.5243H91.4763V31.0837Z" fill="white"/>
<path d="M114.234 31.0837H118.786V35.5243H114.234V31.0837Z" fill="white"/>
<path d="M123.337 31.0837H127.889V35.5243H123.337V31.0837Z" fill="white"/>
<path d="M127.889 31.0837H132.44V35.5243H127.889V31.0837Z" fill="white"/>
<path d="M14.1 35.5243H18.6515V39.9648H14.1V35.5243Z" fill="white"/>
<path d="M18.6515 35.5243H23.2031V39.9648H18.6515V35.5243Z" fill="white"/>
<path d="M27.7546 35.5243H32.3062V39.9648H27.7546V35.5243Z" fill="white"/>
<path d="M32.3062 35.5243H36.8577V39.9648H32.3062V35.5243Z" fill="white"/>
<path d="M41.4093 35.5243H45.9608V39.9648H41.4093V35.5243Z" fill="white"/>
<path d="M50.5123 35.5243H55.0639V39.9648H50.5123V35.5243Z" fill="white"/>
<path d="M55.0639 35.5243H59.6154V39.9648H55.0639V35.5243Z" fill="white"/>
<path d="M59.6154 35.5243H64.167V39.9648H59.6154V35.5243Z" fill="white"/>
<path d="M68.7185 35.5243H73.2701V39.9648H68.7185V35.5243Z" fill="white"/>
<path d="M73.2701 35.5243H77.8216V39.9648H73.2701V35.5243Z" fill="white"/>
<path d="M77.8216 35.5243H82.3732V39.9648H77.8216V35.5243Z" fill="white"/>
<path d="M82.3732 35.5243H86.9247V39.9648H82.3732V35.5243Z" fill="white"/>
<path d="M86.9247 35.5243H91.4763V39.9648H86.9247V35.5243Z" fill="white"/>
<path d="M105.131 35.5243H109.682V39.9648H105.131V35.5243Z" fill="white"/>
<path d="M109.682 35.5243H114.234V39.9648H109.682V35.5243Z" fill="white"/>
<path d="M114.234 35.5243H118.786V39.9648H114.234V35.5243Z" fill="white"/>
<path d="M127.889 35.5243H132.44V39.9648H127.889V35.5243Z" fill="white"/>
<path d="M150.646 35.5243H155.198V39.9648H150.646V35.5243Z" fill="white"/>
<path d="M155.198 35.5243H159.75V39.9648H155.198V35.5243Z" fill="white"/>
<path d="M9.54841 39.9648H14.1V44.4054H9.54841V39.9648Z" fill="white"/>
<path d="M18.6515 39.9648H23.2031V44.4054H18.6515V39.9648Z" fill="white"/>
<path d="M32.3062 39.9648H36.8577V44.4054H32.3062V39.9648Z" fill="white"/>
<path d="M45.9608 39.9648H50.5123V44.4054H45.9608V39.9648Z" fill="white"/>
<path d="M55.0639 39.9648H59.6154V44.4054H55.0639V39.9648Z" fill="white"/>
<path d="M59.6154 39.9648H64.167V44.4054H59.6154V39.9648Z" fill="white"/>
<path d="M64.167 39.9648H68.7185V44.4054H64.167V39.9648Z" fill="white"/>
<path d="M68.7185 39.9648H73.2701V44.4054H68.7185V39.9648Z" fill="white"/>
<path d="M77.8216 39.9648H82.3732V44.4054H77.8216V39.9648Z" fill="white"/>
<path d="M86.9247 39.9648H91.4763V44.4054H86.9247V39.9648Z" fill="white"/>
<path d="M96.0278 39.9648H100.579V44.4054H96.0278V39.9648Z" fill="white"/>
<path d="M109.682 39.9648H114.234V44.4054H109.682V39.9648Z" fill="white"/>
<path d="M114.234 39.9648H118.786V44.4054H114.234V39.9648Z" fill="white"/>
<path d="M141.543 39.9648H146.095V44.4054H141.543V39.9648Z" fill="white"/>
<path d="M146.095 39.9648H150.646V44.4054H146.095V39.9648Z" fill="white"/>
<path d="M155.198 39.9648H159.75V44.4054H155.198V39.9648Z" fill="white"/>
<path d="M0.445312 44.4054H4.99686V48.8459H0.445312V44.4054Z" fill="white"/>
<path d="M27.7546 44.4054H32.3062V48.8459H27.7546V44.4054Z" fill="white"/>
<path d="M32.3062 44.4054H36.8577V48.8459H32.3062V44.4054Z" fill="white"/>
<path d="M36.8577 44.4054H41.4093V48.8459H36.8577V44.4054Z" fill="white"/>
<path d="M41.4093 44.4054H45.9608V48.8459H41.4093V44.4054Z" fill="white"/>
<path d="M59.6154 44.4054H64.167V48.8459H59.6154V44.4054Z" fill="white"/>
<path d="M73.2701 44.4054H77.8216V48.8459H73.2701V44.4054Z" fill="white"/>
<path d="M82.3732 44.4054H86.9247V48.8459H82.3732V44.4054Z" fill="white"/>
<path d="M96.0278 44.4054H100.579V48.8459H96.0278V44.4054Z" fill="white"/>
<path d="M105.131 44.4054H109.682V48.8459H105.131V44.4054Z" fill="white"/>
<path d="M109.682 44.4054H114.234V48.8459H109.682V44.4054Z" fill="white"/>
<path d="M114.234 44.4054H118.786V48.8459H114.234V44.4054Z" fill="white"/>
<path d="M132.44 44.4054H136.992V48.8459H132.44V44.4054Z" fill="white"/>
<path d="M136.992 44.4054H141.543V48.8459H136.992V44.4054Z" fill="white"/>
<path d="M164.301 44.4054H168.853V48.8459H164.301V44.4054Z" fill="white"/>
<path d="M0.445312 48.8459H4.99686V53.2864H0.445312V48.8459Z" fill="white"/>
<path d="M9.54841 48.8459H14.1V53.2864H9.54841V48.8459Z" fill="white"/>
<path d="M18.6515 48.8459H23.2031V53.2864H18.6515V48.8459Z" fill="white"/>
<path d="M23.2031 48.8459H27.7546V53.2864H23.2031V48.8459Z" fill="white"/>
<path d="M41.4093 48.8459H45.9608V53.2864H41.4093V48.8459Z" fill="white"/>
<path d="M45.9608 48.8459H50.5123V53.2864H45.9608V48.8459Z" fill="white"/>
<path d="M59.6154 48.8459H64.167V53.2864H59.6154V48.8459Z" fill="white"/>
<path d="M64.167 48.8459H68.7185V53.2864H64.167V48.8459Z" fill="white"/>
<path d="M91.4763 48.8459H96.0278V53.2864H91.4763V48.8459Z" fill="white"/>
<path d="M105.131 48.8459H109.682V53.2864H105.131V48.8459Z" fill="white"/>
<path d="M109.682 48.8459H114.234V53.2864H109.682V48.8459Z" fill="white"/>
<path d="M118.786 48.8459H123.337V53.2864H118.786V48.8459Z" fill="white"/>
<path d="M123.337 48.8459H127.889V53.2864H123.337V48.8459Z" fill="white"/>
<path d="M132.44 48.8459H136.992V53.2864H132.44V48.8459Z" fill="white"/>
<path d="M136.992 48.8459H141.543V53.2864H136.992V48.8459Z" fill="white"/>
<path d="M150.646 48.8459H155.198V53.2864H150.646V48.8459Z" fill="white"/>
<path d="M155.198 48.8459H159.75V53.2864H155.198V48.8459Z" fill="white"/>
<path d="M159.75 48.8459H164.301V53.2864H159.75V48.8459Z" fill="white"/>
<path d="M0.445312 53.2864H4.99686V57.727H0.445312V53.2864Z" fill="white"/>
<path d="M9.54841 53.2864H14.1V57.727H9.54841V53.2864Z" fill="white"/>
<path d="M14.1 53.2864H18.6515V57.727H14.1V53.2864Z" fill="white"/>
<path d="M23.2031 53.2864H27.7546V57.727H23.2031V53.2864Z" fill="white"/>
<path d="M27.7546 53.2864H32.3062V57.727H27.7546V53.2864Z" fill="white"/>
<path d="M32.3062 53.2864H36.8577V57.727H32.3062V53.2864Z" fill="white"/>
<path d="M41.4093 53.2864H45.9608V57.727H41.4093V53.2864Z" fill="white"/>
<path d="M50.5123 53.2864H55.0639V57.727H50.5123V53.2864Z" fill="white"/>
<path d="M59.6154 53.2864H64.167V57.727H59.6154V53.2864Z" fill="white"/>
<path d="M82.3732 53.2864H86.9247V57.727H82.3732V53.2864Z" fill="white"/>
<path d="M86.9247 53.2864H91.4763V57.727H86.9247V53.2864Z" fill="white"/>
<path d="M91.4763 53.2864H96.0278V57.727H91.4763V53.2864Z" fill="white"/>
<path d="M96.0278 53.2864H100.579V57.727H96.0278V53.2864Z" fill="white"/>
<path d="M105.131 53.2864H109.682V57.727H105.131V53.2864Z" fill="white"/>
<path d="M109.682 53.2864H114.234V57.727H109.682V53.2864Z" fill="white"/>
<path d="M127.889 53.2864H132.44V57.727H127.889V53.2864Z" fill="white"/>
<path d="M136.992 53.2864H141.543V57.727H136.992V53.2864Z" fill="white"/>
<path d="M141.543 53.2864H146.095V57.727H141.543V53.2864Z" fill="white"/>
<path d="M9.54841 57.727H14.1V62.1675H9.54841V57.727Z" fill="white"/>
<path d="M18.6515 57.727H23.2031V62.1675H18.6515V57.727Z" fill="white"/>
<path d="M32.3062 57.727H36.8577V62.1675H32.3062V57.727Z" fill="white"/>
<path d="M36.8577 57.727H41.4093V62.1675H36.8577V57.727Z" fill="white"/>
<path d="M45.9608 57.727H50.5123V62.1675H45.9608V57.727Z" fill="white"/>
<path d="M55.0639 57.727H59.6154V62.1675H55.0639V57.727Z" fill="white"/>
<path d="M114.234 57.727H118.786V62.1675H114.234V57.727Z" fill="white"/>
<path d="M123.337 57.727H127.889V62.1675H123.337V57.727Z" fill="white"/>
<path d="M127.889 57.727H132.44V62.1675H127.889V57.727Z" fill="white"/>
<path d="M132.44 57.727H136.992V62.1675H132.44V57.727Z" fill="white"/>
<path d="M146.095 57.727H150.646V62.1675H146.095V57.727Z" fill="white"/>
<path d="M155.198 57.727H159.75V62.1675H155.198V57.727Z" fill="white"/>
<path d="M159.75 57.727H164.301V62.1675H159.75V57.727Z" fill="white"/>
<path d="M0.445312 62.1675H4.99686V66.608H0.445312V62.1675Z" fill="white"/>
<path d="M4.99686 62.1675H9.54841V66.608H4.99686V62.1675Z" fill="white"/>
<path d="M9.54841 62.1675H14.1V66.608H9.54841V62.1675Z" fill="white"/>
<path d="M14.1 62.1675H18.6515V66.608H14.1V62.1675Z" fill="white"/>
<path d="M18.6515 62.1675H23.2031V66.608H18.6515V62.1675Z" fill="white"/>
<path d="M27.7546 62.1675H32.3062V66.608H27.7546V62.1675Z" fill="white"/>
<path d="M36.8577 62.1675H41.4093V66.608H36.8577V62.1675Z" fill="white"/>
<path d="M45.9608 62.1675H50.5123V66.608H45.9608V62.1675Z" fill="white"/>
<path d="M50.5123 62.1675H55.0639V66.608H50.5123V62.1675Z" fill="white"/>
<path d="M55.0639 62.1675H59.6154V66.608H55.0639V62.1675Z" fill="white"/>
<path d="M109.682 62.1675H114.234V66.608H109.682V62.1675Z" fill="white"/>
<path d="M123.337 62.1675H127.889V66.608H123.337V62.1675Z" fill="white"/>
<path d="M136.992 62.1675H141.543V66.608H136.992V62.1675Z" fill="white"/>
<path d="M150.646 62.1675H155.198V66.608H150.646V62.1675Z" fill="white"/>
<path d="M155.198 62.1675H159.75V66.608H155.198V62.1675Z" fill="white"/>
<path d="M159.75 62.1675H164.301V66.608H159.75V62.1675Z" fill="white"/>
<path d="M164.301 62.1675H168.853V66.608H164.301V62.1675Z" fill="white"/>
<path d="M0.445312 66.608H4.99686V71.0486H0.445312V66.608Z" fill="white"/>
<path d="M4.99686 66.608H9.54841V71.0486H4.99686V66.608Z" fill="white"/>
<path d="M9.54841 66.608H14.1V71.0486H9.54841V66.608Z" fill="white"/>
<path d="M18.6515 66.608H23.2031V71.0486H18.6515V66.608Z" fill="white"/>
<path d="M23.2031 66.608H27.7546V71.0486H23.2031V66.608Z" fill="white"/>
<path d="M41.4093 66.608H45.9608V71.0486H41.4093V66.608Z" fill="white"/>
<path d="M45.9608 66.608H50.5123V71.0486H45.9608V66.608Z" fill="white"/>
<path d="M55.0639 66.608H59.6154V71.0486H55.0639V66.608Z" fill="white"/>
<path d="M109.682 66.608H114.234V71.0486H109.682V66.608Z" fill="white"/>
<path d="M118.786 66.608H123.337V71.0486H118.786V66.608Z" fill="white"/>
<path d="M123.337 66.608H127.889V71.0486H123.337V66.608Z" fill="white"/>
<path d="M132.44 66.608H136.992V71.0486H132.44V66.608Z" fill="white"/>
<path d="M136.992 66.608H141.543V71.0486H136.992V66.608Z" fill="white"/>
<path d="M146.095 66.608H150.646V71.0486H146.095V66.608Z" fill="white"/>
<path d="M150.646 66.608H155.198V71.0486H150.646V66.608Z" fill="white"/>
<path d="M155.198 66.608H159.75V71.0486H155.198V66.608Z" fill="white"/>
<path d="M9.54841 71.0486H14.1V75.4891H9.54841V71.0486Z" fill="white"/>
<path d="M14.1 71.0486H18.6515V75.4891H14.1V71.0486Z" fill="white"/>
<path d="M27.7546 71.0486H32.3062V75.4891H27.7546V71.0486Z" fill="white"/>
<path d="M32.3062 71.0486H36.8577V75.4891H32.3062V71.0486Z" fill="white"/>
<path d="M36.8577 71.0486H41.4093V75.4891H36.8577V71.0486Z" fill="white"/>
<path d="M114.234 71.0486H118.786V75.4891H114.234V71.0486Z" fill="white"/>
<path d="M118.786 71.0486H123.337V75.4891H118.786V71.0486Z" fill="white"/>
<path d="M136.992 71.0486H141.543V75.4891H136.992V71.0486Z" fill="white"/>
<path d="M155.198 71.0486H159.75V75.4891H155.198V71.0486Z" fill="white"/>
<path d="M4.99686 75.4891H9.54841V79.9296H4.99686V75.4891Z" fill="white"/>
<path d="M9.54841 75.4891H14.1V79.9296H9.54841V75.4891Z" fill="white"/>
<path d="M14.1 75.4891H18.6515V79.9296H14.1V75.4891Z" fill="white"/>
<path d="M32.3062 75.4891H36.8577V79.9296H32.3062V75.4891Z" fill="white"/>
<path d="M36.8577 75.4891H41.4093V79.9296H36.8577V75.4891Z" fill="white"/>
<path d="M41.4093 75.4891H45.9608V79.9296H41.4093V75.4891Z" fill="white"/>
<path d="M45.9608 75.4891H50.5123V79.9296H45.9608V75.4891Z" fill="white"/>
<path d="M50.5123 75.4891H55.0639V79.9296H50.5123V75.4891Z" fill="white"/>
<path d="M55.0639 75.4891H59.6154V79.9296H55.0639V75.4891Z" fill="white"/>
<path d="M109.682 75.4891H114.234V79.9296H109.682V75.4891Z" fill="white"/>
<path d="M123.337 75.4891H127.889V79.9296H123.337V75.4891Z" fill="white"/>
<path d="M132.44 75.4891H136.992V79.9296H132.44V75.4891Z" fill="white"/>
<path d="M141.543 75.4891H146.095V79.9296H141.543V75.4891Z" fill="white"/>
<path d="M155.198 75.4891H159.75V79.9296H155.198V75.4891Z" fill="white"/>
<path d="M159.75 75.4891H164.301V79.9296H159.75V75.4891Z" fill="white"/>
<path d="M4.99686 79.9296H9.54841V84.3702H4.99686V79.9296Z" fill="white"/>
<path d="M9.54841 79.9296H14.1V84.3702H9.54841V79.9296Z" fill="white"/>
<path d="M27.7546 79.9296H32.3062V84.3702H27.7546V79.9296Z" fill="white"/>
<path d="M32.3062 79.9296H36.8577V84.3702H32.3062V79.9296Z" fill="white"/>
<path d="M45.9608 79.9296H50.5123V84.3702H45.9608V79.9296Z" fill="white"/>
<path d="M55.0639 79.9296H59.6154V84.3702H55.0639V79.9296Z" fill="white"/>
<path d="M118.786 79.9296H123.337V84.3702H118.786V79.9296Z" fill="white"/>
<path d="M123.337 79.9296H127.889V84.3702H123.337V79.9296Z" fill="white"/>
<path d="M127.889 79.9296H132.44V84.3702H127.889V79.9296Z" fill="white"/>
<path d="M136.992 79.9296H141.543V84.3702H136.992V79.9296Z" fill="white"/>
<path d="M141.543 79.9296H146.095V84.3702H141.543V79.9296Z" fill="white"/>
<path d="M164.301 79.9296H168.853V84.3702H164.301V79.9296Z" fill="white"/>
<path d="M4.99686 84.3702H9.54841V88.8107H4.99686V84.3702Z" fill="white"/>
<path d="M9.54841 84.3702H14.1V88.8107H9.54841V84.3702Z" fill="white"/>
<path d="M23.2031 84.3702H27.7546V88.8107H23.2031V84.3702Z" fill="white"/>
<path d="M32.3062 84.3702H36.8577V88.8107H32.3062V84.3702Z" fill="white"/>
<path d="M45.9608 84.3702H50.5123V88.8107H45.9608V84.3702Z" fill="white"/>
<path d="M50.5123 84.3702H55.0639V88.8107H50.5123V84.3702Z" fill="white"/>
<path d="M114.234 84.3702H118.786V88.8107H114.234V84.3702Z" fill="white"/>
<path d="M118.786 84.3702H123.337V88.8107H118.786V84.3702Z" fill="white"/>
<path d="M123.337 84.3702H127.889V88.8107H123.337V84.3702Z" fill="white"/>
<path d="M127.889 84.3702H132.44V88.8107H127.889V84.3702Z" fill="white"/>
<path d="M136.992 84.3702H141.543V88.8107H136.992V84.3702Z" fill="white"/>
<path d="M150.646 84.3702H155.198V88.8107H150.646V84.3702Z" fill="white"/>
<path d="M159.75 84.3702H164.301V88.8107H159.75V84.3702Z" fill="white"/>
<path d="M0.445312 88.8107H4.99686V93.2512H0.445312V88.8107Z" fill="white"/>
<path d="M4.99686 88.8107H9.54841V93.2512H4.99686V88.8107Z" fill="white"/>
<path d="M9.54841 88.8107H14.1V93.2512H9.54841V88.8107Z" fill="white"/>
<path d="M27.7546 88.8107H32.3062V93.2512H27.7546V88.8107Z" fill="white"/>
<path d="M36.8577 88.8107H41.4093V93.2512H36.8577V88.8107Z" fill="white"/>
<path d="M118.786 88.8107H123.337V93.2512H118.786V88.8107Z" fill="white"/>
<path d="M127.889 88.8107H132.44V93.2512H127.889V88.8107Z" fill="white"/>
<path d="M132.44 88.8107H136.992V93.2512H132.44V88.8107Z" fill="white"/>
<path d="M136.992 88.8107H141.543V93.2512H136.992V88.8107Z" fill="white"/>
<path d="M146.095 88.8107H150.646V93.2512H146.095V88.8107Z" fill="white"/>
<path d="M150.646 88.8107H155.198V93.2512H150.646V88.8107Z" fill="white"/>
<path d="M159.75 88.8107H164.301V93.2512H159.75V88.8107Z" fill="white"/>
<path d="M164.301 88.8107H168.853V93.2512H164.301V88.8107Z" fill="white"/>
<path d="M0.445312 93.2512H4.99686V97.6918H0.445312V93.2512Z" fill="white"/>
<path d="M23.2031 93.2512H27.7546V97.6918H23.2031V93.2512Z" fill="white"/>
<path d="M36.8577 93.2512H41.4093V97.6918H36.8577V93.2512Z" fill="white"/>
<path d="M41.4093 93.2512H45.9608V97.6918H41.4093V93.2512Z" fill="white"/>
<path d="M55.0639 93.2512H59.6154V97.6918H55.0639V93.2512Z" fill="white"/>
<path d="M114.234 93.2512H118.786V97.6918H114.234V93.2512Z" fill="white"/>
<path d="M118.786 93.2512H123.337V97.6918H118.786V93.2512Z" fill="white"/>
<path d="M123.337 93.2512H127.889V97.6918H123.337V93.2512Z" fill="white"/>
<path d="M127.889 93.2512H132.44V97.6918H127.889V93.2512Z" fill="white"/>
<path d="M141.543 93.2512H146.095V97.6918H141.543V93.2512Z" fill="white"/>
<path d="M146.095 93.2512H150.646V97.6918H146.095V93.2512Z" fill="white"/>
<path d="M159.75 93.2512H164.301V97.6918H159.75V93.2512Z" fill="white"/>
<path d="M0.445312 97.6918H4.99686V102.132H0.445312V97.6918Z" fill="white"/>
<path d="M4.99686 97.6918H9.54841V102.132H4.99686V97.6918Z" fill="white"/>
<path d="M9.54841 97.6918H14.1V102.132H9.54841V97.6918Z" fill="white"/>
<path d="M14.1 97.6918H18.6515V102.132H14.1V97.6918Z" fill="white"/>
<path d="M18.6515 97.6918H23.2031V102.132H18.6515V97.6918Z" fill="white"/>
<path d="M27.7546 97.6918H32.3062V102.132H27.7546V97.6918Z" fill="white"/>
<path d="M32.3062 97.6918H36.8577V102.132H32.3062V97.6918Z" fill="white"/>
<path d="M36.8577 97.6918H41.4093V102.132H36.8577V97.6918Z" fill="white"/>
<path d="M41.4093 97.6918H45.9608V102.132H41.4093V97.6918Z" fill="white"/>
<path d="M50.5123 97.6918H55.0639V102.132H50.5123V97.6918Z" fill="white"/>
<path d="M109.682 97.6918H114.234V102.132H109.682V97.6918Z" fill="white"/>
<path d="M114.234 97.6918H118.786V102.132H114.234V97.6918Z" fill="white"/>
<path d="M123.337 97.6918H127.889V102.132H123.337V97.6918Z" fill="white"/>
<path d="M132.44 97.6918H136.992V102.132H132.44V97.6918Z" fill="white"/>
<path d="M136.992 97.6918H141.543V102.132H136.992V97.6918Z" fill="white"/>
<path d="M146.095 97.6918H150.646V102.132H146.095V97.6918Z" fill="white"/>
<path d="M164.301 97.6918H168.853V102.132H164.301V97.6918Z" fill="white"/>
<path d="M4.99686 102.132H9.54841V106.573H4.99686V102.132Z" fill="white"/>
<path d="M41.4093 102.132H45.9608V106.573H41.4093V102.132Z" fill="white"/>
<path d="M45.9608 102.132H50.5123V106.573H45.9608V102.132Z" fill="white"/>
<path d="M55.0639 102.132H59.6154V106.573H55.0639V102.132Z" fill="white"/>
<path d="M109.682 102.132H114.234V106.573H109.682V102.132Z" fill="white"/>
<path d="M114.234 102.132H118.786V106.573H114.234V102.132Z" fill="white"/>
<path d="M123.337 102.132H127.889V106.573H123.337V102.132Z" fill="white"/>
<path d="M127.889 102.132H132.44V106.573H127.889V102.132Z" fill="white"/>
<path d="M136.992 102.132H141.543V106.573H136.992V102.132Z" fill="white"/>
<path d="M141.543 102.132H146.095V106.573H141.543V102.132Z" fill="white"/>
<path d="M150.646 102.132H155.198V106.573H150.646V102.132Z" fill="white"/>
<path d="M155.198 102.132H159.75V106.573H155.198V102.132Z" fill="white"/>
<path d="M164.301 102.132H168.853V106.573H164.301V102.132Z" fill="white"/>
<path d="M0.445312 106.573H4.99686V111.013H0.445312V106.573Z" fill="white"/>
<path d="M9.54841 106.573H14.1V111.013H9.54841V106.573Z" fill="white"/>
<path d="M18.6515 106.573H23.2031V111.013H18.6515V106.573Z" fill="white"/>
<path d="M27.7546 106.573H32.3062V111.013H27.7546V106.573Z" fill="white"/>
<path d="M36.8577 106.573H41.4093V111.013H36.8577V106.573Z" fill="white"/>
<path d="M45.9608 106.573H50.5123V111.013H45.9608V106.573Z" fill="white"/>
<path d="M59.6154 106.573H64.167V111.013H59.6154V106.573Z" fill="white"/>
<path d="M64.167 106.573H68.7185V111.013H64.167V106.573Z" fill="white"/>
<path d="M86.9247 106.573H91.4763V111.013H86.9247V106.573Z" fill="white"/>
<path d="M96.0278 106.573H100.579V111.013H96.0278V106.573Z" fill="white"/>
<path d="M105.131 106.573H109.682V111.013H105.131V106.573Z" fill="white"/>
<path d="M109.682 106.573H114.234V111.013H109.682V106.573Z" fill="white"/>
<path d="M114.234 106.573H118.786V111.013H114.234V106.573Z" fill="white"/>
<path d="M127.889 106.573H132.44V111.013H127.889V106.573Z" fill="white"/>
<path d="M132.44 106.573H136.992V111.013H132.44V106.573Z" fill="white"/>
<path d="M136.992 106.573H141.543V111.013H136.992V106.573Z" fill="white"/>
<path d="M150.646 106.573H155.198V111.013H150.646V106.573Z" fill="white"/>
<path d="M159.75 106.573H164.301V111.013H159.75V106.573Z" fill="white"/>
<path d="M164.301 106.573H168.853V111.013H164.301V106.573Z" fill="white"/>
<path d="M0.445312 111.013H4.99686V115.454H0.445312V111.013Z" fill="white"/>
<path d="M4.99686 111.013H9.54841V115.454H4.99686V111.013Z" fill="white"/>
<path d="M9.54841 111.013H14.1V115.454H9.54841V111.013Z" fill="white"/>
<path d="M18.6515 111.013H23.2031V115.454H18.6515V111.013Z" fill="white"/>
<path d="M23.2031 111.013H27.7546V115.454H23.2031V111.013Z" fill="white"/>
<path d="M32.3062 111.013H36.8577V115.454H32.3062V111.013Z" fill="white"/>
<path d="M36.8577 111.013H41.4093V115.454H36.8577V111.013Z" fill="white"/>
<path d="M41.4093 111.013H45.9608V115.454H41.4093V111.013Z" fill="white"/>
<path d="M45.9608 111.013H50.5123V115.454H45.9608V111.013Z" fill="white"/>
<path d="M50.5123 111.013H55.0639V115.454H50.5123V111.013Z" fill="white"/>
<path d="M55.0639 111.013H59.6154V115.454H55.0639V111.013Z" fill="white"/>
<path d="M59.6154 111.013H64.167V115.454H59.6154V111.013Z" fill="white"/>
<path d="M64.167 111.013H68.7185V115.454H64.167V111.013Z" fill="white"/>
<path d="M73.2701 111.013H77.8216V115.454H73.2701V111.013Z" fill="white"/>
<path d="M82.3732 111.013H86.9247V115.454H82.3732V111.013Z" fill="white"/>
<path d="M91.4763 111.013H96.0278V115.454H91.4763V111.013Z" fill="white"/>
<path d="M96.0278 111.013H100.579V115.454H96.0278V111.013Z" fill="white"/>
<path d="M114.234 111.013H118.786V115.454H114.234V111.013Z" fill="white"/>
<path d="M118.786 111.013H123.337V115.454H118.786V111.013Z" fill="white"/>
<path d="M146.095 111.013H150.646V115.454H146.095V111.013Z" fill="white"/>
<path d="M150.646 111.013H155.198V115.454H150.646V111.013Z" fill="white"/>
<path d="M0.445312 115.454H4.99686V119.894H0.445312V115.454Z" fill="white"/>
<path d="M4.99686 115.454H9.54841V119.894H4.99686V115.454Z" fill="white"/>
<path d="M9.54841 115.454H14.1V119.894H9.54841V115.454Z" fill="white"/>
<path d="M14.1 115.454H18.6515V119.894H14.1V115.454Z" fill="white"/>
<path d="M18.6515 115.454H23.2031V119.894H18.6515V115.454Z" fill="white"/>
<path d="M27.7546 115.454H32.3062V119.894H27.7546V115.454Z" fill="white"/>
<path d="M36.8577 115.454H41.4093V119.894H36.8577V115.454Z" fill="white"/>
<path d="M41.4093 115.454H45.9608V119.894H41.4093V115.454Z" fill="white"/>
<path d="M50.5123 115.454H55.0639V119.894H50.5123V115.454Z" fill="white"/>
<path d="M55.0639 115.454H59.6154V119.894H55.0639V115.454Z" fill="white"/>
<path d="M64.167 115.454H68.7185V119.894H64.167V115.454Z" fill="white"/>
<path d="M68.7185 115.454H73.2701V119.894H68.7185V115.454Z" fill="white"/>
<path d="M73.2701 115.454H77.8216V119.894H73.2701V115.454Z" fill="white"/>
<path d="M77.8216 115.454H82.3732V119.894H77.8216V115.454Z" fill="white"/>
<path d="M100.579 115.454H105.131V119.894H100.579V115.454Z" fill="white"/>
<path d="M105.131 115.454H109.682V119.894H105.131V115.454Z" fill="white"/>
<path d="M109.682 115.454H114.234V119.894H109.682V115.454Z" fill="white"/>
<path d="M123.337 115.454H127.889V119.894H123.337V115.454Z" fill="white"/>
<path d="M136.992 115.454H141.543V119.894H136.992V115.454Z" fill="white"/>
<path d="M155.198 115.454H159.75V119.894H155.198V115.454Z" fill="white"/>
<path d="M159.75 115.454H164.301V119.894H159.75V115.454Z" fill="white"/>
<path d="M164.301 115.454H168.853V119.894H164.301V115.454Z" fill="white"/>
<path d="M0.445312 119.894H4.99686V124.335H0.445312V119.894Z" fill="white"/>
<path d="M14.1 119.894H18.6515V124.335H14.1V119.894Z" fill="white"/>
<path d="M32.3062 119.894H36.8577V124.335H32.3062V119.894Z" fill="white"/>
<path d="M55.0639 119.894H59.6154V124.335H55.0639V119.894Z" fill="white"/>
<path d="M73.2701 119.894H77.8216V124.335H73.2701V119.894Z" fill="white"/>
<path d="M82.3732 119.894H86.9247V124.335H82.3732V119.894Z" fill="white"/>
<path d="M86.9247 119.894H91.4763V124.335H86.9247V119.894Z" fill="white"/>
<path d="M91.4763 119.894H96.0278V124.335H91.4763V119.894Z" fill="white"/>
<path d="M96.0278 119.894H100.579V124.335H96.0278V119.894Z" fill="white"/>
<path d="M105.131 119.894H109.682V124.335H105.131V119.894Z" fill="white"/>
<path d="M123.337 119.894H127.889V124.335H123.337V119.894Z" fill="white"/>
<path d="M132.44 119.894H136.992V124.335H132.44V119.894Z" fill="white"/>
<path d="M146.095 119.894H150.646V124.335H146.095V119.894Z" fill="white"/>
<path d="M150.646 119.894H155.198V124.335H150.646V119.894Z" fill="white"/>
<path d="M155.198 119.894H159.75V124.335H155.198V119.894Z" fill="white"/>
<path d="M159.75 119.894H164.301V124.335H159.75V119.894Z" fill="white"/>
<path d="M164.301 119.894H168.853V124.335H164.301V119.894Z" fill="white"/>
<path d="M0.445312 124.335H4.99686V128.776H0.445312V124.335Z" fill="white"/>
<path d="M9.54841 124.335H14.1V128.776H9.54841V124.335Z" fill="white"/>
<path d="M14.1 124.335H18.6515V128.776H14.1V124.335Z" fill="white"/>
<path d="M18.6515 124.335H23.2031V128.776H18.6515V124.335Z" fill="white"/>
<path d="M23.2031 124.335H27.7546V128.776H23.2031V124.335Z" fill="white"/>
<path d="M27.7546 124.335H32.3062V128.776H27.7546V124.335Z" fill="white"/>
<path d="M32.3062 124.335H36.8577V128.776H32.3062V124.335Z" fill="white"/>
<path d="M50.5123 124.335H55.0639V128.776H50.5123V124.335Z" fill="white"/>
<path d="M64.167 124.335H68.7185V128.776H64.167V124.335Z" fill="white"/>
<path d="M68.7185 124.335H73.2701V128.776H68.7185V124.335Z" fill="white"/>
<path d="M77.8216 124.335H82.3732V128.776H77.8216V124.335Z" fill="white"/>
<path d="M109.682 124.335H114.234V128.776H109.682V124.335Z" fill="white"/>
<path d="M114.234 124.335H118.786V128.776H114.234V124.335Z" fill="white"/>
<path d="M127.889 124.335H132.44V128.776H127.889V124.335Z" fill="white"/>
<path d="M132.44 124.335H136.992V128.776H132.44V124.335Z" fill="white"/>
<path d="M136.992 124.335H141.543V128.776H136.992V124.335Z" fill="white"/>
<path d="M141.543 124.335H146.095V128.776H141.543V124.335Z" fill="white"/>
<path d="M146.095 124.335H150.646V128.776H146.095V124.335Z" fill="white"/>
<path d="M150.646 124.335H155.198V128.776H150.646V124.335Z" fill="white"/>
<path d="M155.198 124.335H159.75V128.776H155.198V124.335Z" fill="white"/>
<path d="M164.301 124.335H168.853V128.776H164.301V124.335Z" fill="white"/>
<path d="M36.8577 128.776H41.4093V133.216H36.8577V128.776Z" fill="white"/>
<path d="M41.4093 128.776H45.9608V133.216H41.4093V128.776Z" fill="white"/>
<path d="M50.5123 128.776H55.0639V133.216H50.5123V128.776Z" fill="white"/>
<path d="M59.6154 128.776H64.167V133.216H59.6154V128.776Z" fill="white"/>
<path d="M68.7185 128.776H73.2701V133.216H68.7185V128.776Z" fill="white"/>
<path d="M73.2701 128.776H77.8216V133.216H73.2701V128.776Z" fill="white"/>
<path d="M77.8216 128.776H82.3732V133.216H77.8216V128.776Z" fill="white"/>
<path d="M82.3732 128.776H86.9247V133.216H82.3732V128.776Z" fill="white"/>
<path d="M91.4763 128.776H96.0278V133.216H91.4763V128.776Z" fill="white"/>
<path d="M100.579 128.776H105.131V133.216H100.579V128.776Z" fill="white"/>
<path d="M114.234 128.776H118.786V133.216H114.234V128.776Z" fill="white"/>
<path d="M118.786 128.776H123.337V133.216H118.786V128.776Z" fill="white"/>
<path d="M127.889 128.776H132.44V133.216H127.889V128.776Z" fill="white"/>
<path d="M146.095 128.776H150.646V133.216H146.095V128.776Z" fill="white"/>
<path d="M150.646 128.776H155.198V133.216H150.646V128.776Z" fill="white"/>
<path d="M155.198 128.776H159.75V133.216H155.198V128.776Z" fill="white"/>
<path d="M159.75 128.776H164.301V133.216H159.75V128.776Z" fill="white"/>
<path d="M0.445312 133.216H4.99686V137.657H0.445312V133.216Z" fill="white"/>
<path d="M4.99686 133.216H9.54841V137.657H4.99686V133.216Z" fill="white"/>
<path d="M9.54841 133.216H14.1V137.657H9.54841V133.216Z" fill="white"/>
<path d="M14.1 133.216H18.6515V137.657H14.1V133.216Z" fill="white"/>
<path d="M18.6515 133.216H23.2031V137.657H18.6515V133.216Z" fill="white"/>
<path d="M23.2031 133.216H27.7546V137.657H23.2031V133.216Z" fill="white"/>
<path d="M27.7546 133.216H32.3062V137.657H27.7546V133.216Z" fill="white"/>
<path d="M36.8577 133.216H41.4093V137.657H36.8577V133.216Z" fill="white"/>
<path d="M41.4093 133.216H45.9608V137.657H41.4093V133.216Z" fill="white"/>
<path d="M50.5123 133.216H55.0639V137.657H50.5123V133.216Z" fill="white"/>
<path d="M59.6154 133.216H64.167V137.657H59.6154V133.216Z" fill="white"/>
<path d="M64.167 133.216H68.7185V137.657H64.167V133.216Z" fill="white"/>
<path d="M73.2701 133.216H77.8216V137.657H73.2701V133.216Z" fill="white"/>
<path d="M77.8216 133.216H82.3732V137.657H77.8216V133.216Z" fill="white"/>
<path d="M82.3732 133.216H86.9247V137.657H82.3732V133.216Z" fill="white"/>
<path d="M86.9247 133.216H91.4763V137.657H86.9247V133.216Z" fill="white"/>
<path d="M96.0278 133.216H100.579V137.657H96.0278V133.216Z" fill="white"/>
<path d="M105.131 133.216H109.682V137.657H105.131V133.216Z" fill="white"/>
<path d="M109.682 133.216H114.234V137.657H109.682V133.216Z" fill="white"/>
<path d="M127.889 133.216H132.44V137.657H127.889V133.216Z" fill="white"/>
<path d="M136.992 133.216H141.543V137.657H136.992V133.216Z" fill="white"/>
<path d="M146.095 133.216H150.646V137.657H146.095V133.216Z" fill="white"/>
<path d="M150.646 133.216H155.198V137.657H150.646V133.216Z" fill="white"/>
<path d="M155.198 133.216H159.75V137.657H155.198V133.216Z" fill="white"/>
<path d="M159.75 133.216H164.301V137.657H159.75V133.216Z" fill="white"/>
<path d="M164.301 133.216H168.853V137.657H164.301V133.216Z" fill="white"/>
<path d="M0.445312 137.657H4.99686V142.097H0.445312V137.657Z" fill="white"/>
<path d="M27.7546 137.657H32.3062V142.097H27.7546V137.657Z" fill="white"/>
<path d="M41.4093 137.657H45.9608V142.097H41.4093V137.657Z" fill="white"/>
<path d="M45.9608 137.657H50.5123V142.097H45.9608V137.657Z" fill="white"/>
<path d="M64.167 137.657H68.7185V142.097H64.167V137.657Z" fill="white"/>
<path d="M68.7185 137.657H73.2701V142.097H68.7185V137.657Z" fill="white"/>
<path d="M73.2701 137.657H77.8216V142.097H73.2701V137.657Z" fill="white"/>
<path d="M91.4763 137.657H96.0278V142.097H91.4763V137.657Z" fill="white"/>
<path d="M105.131 137.657H109.682V142.097H105.131V137.657Z" fill="white"/>
<path d="M109.682 137.657H114.234V142.097H109.682V137.657Z" fill="white"/>
<path d="M114.234 137.657H118.786V142.097H114.234V137.657Z" fill="white"/>
<path d="M127.889 137.657H132.44V142.097H127.889V137.657Z" fill="white"/>
<path d="M146.095 137.657H150.646V142.097H146.095V137.657Z" fill="white"/>
<path d="M150.646 137.657H155.198V142.097H150.646V137.657Z" fill="white"/>
<path d="M164.301 137.657H168.853V142.097H164.301V137.657Z" fill="white"/>
<path d="M0.445312 142.097H4.99686V146.538H0.445312V142.097Z" fill="white"/>
<path d="M9.54841 142.097H14.1V146.538H9.54841V142.097Z" fill="white"/>
<path d="M14.1 142.097H18.6515V146.538H14.1V142.097Z" fill="white"/>
<path d="M18.6515 142.097H23.2031V146.538H18.6515V142.097Z" fill="white"/>
<path d="M27.7546 142.097H32.3062V146.538H27.7546V142.097Z" fill="white"/>
<path d="M36.8577 142.097H41.4093V146.538H36.8577V142.097Z" fill="white"/>
<path d="M45.9608 142.097H50.5123V146.538H45.9608V142.097Z" fill="white"/>
<path d="M50.5123 142.097H55.0639V146.538H50.5123V142.097Z" fill="white"/>
<path d="M55.0639 142.097H59.6154V146.538H55.0639V142.097Z" fill="white"/>
<path d="M64.167 142.097H68.7185V146.538H64.167V142.097Z" fill="white"/>
<path d="M68.7185 142.097H73.2701V146.538H68.7185V142.097Z" fill="white"/>
<path d="M77.8216 142.097H82.3732V146.538H77.8216V142.097Z" fill="white"/>
<path d="M91.4763 142.097H96.0278V146.538H91.4763V142.097Z" fill="white"/>
<path d="M96.0278 142.097H100.579V146.538H96.0278V142.097Z" fill="white"/>
<path d="M118.786 142.097H123.337V146.538H118.786V142.097Z" fill="white"/>
<path d="M123.337 142.097H127.889V146.538H123.337V142.097Z" fill="white"/>
<path d="M127.889 142.097H132.44V146.538H127.889V142.097Z" fill="white"/>
<path d="M132.44 142.097H136.992V146.538H132.44V142.097Z" fill="white"/>
<path d="M136.992 142.097H141.543V146.538H136.992V142.097Z" fill="white"/>
<path d="M141.543 142.097H146.095V146.538H141.543V142.097Z" fill="white"/>
<path d="M146.095 142.097H150.646V146.538H146.095V142.097Z" fill="white"/>
<path d="M164.301 142.097H168.853V146.538H164.301V142.097Z" fill="white"/>
<path d="M0.445312 146.538H4.99686V150.978H0.445312V146.538Z" fill="white"/>
<path d="M9.54841 146.538H14.1V150.978H9.54841V146.538Z" fill="white"/>
<path d="M14.1 146.538H18.6515V150.978H14.1V146.538Z" fill="white"/>
<path d="M18.6515 146.538H23.2031V150.978H18.6515V146.538Z" fill="white"/>
<path d="M27.7546 146.538H32.3062V150.978H27.7546V146.538Z" fill="white"/>
<path d="M36.8577 146.538H41.4093V150.978H36.8577V146.538Z" fill="white"/>
<path d="M50.5123 146.538H55.0639V150.978H50.5123V146.538Z" fill="white"/>
<path d="M59.6154 146.538H64.167V150.978H59.6154V146.538Z" fill="white"/>
<path d="M64.167 146.538H68.7185V150.978H64.167V146.538Z" fill="white"/>
<path d="M68.7185 146.538H73.2701V150.978H68.7185V146.538Z" fill="white"/>
<path d="M77.8216 146.538H82.3732V150.978H77.8216V146.538Z" fill="white"/>
<path d="M82.3732 146.538H86.9247V150.978H82.3732V146.538Z" fill="white"/>
<path d="M86.9247 146.538H91.4763V150.978H86.9247V146.538Z" fill="white"/>
<path d="M109.682 146.538H114.234V150.978H109.682V146.538Z" fill="white"/>
<path d="M123.337 146.538H127.889V150.978H123.337V146.538Z" fill="white"/>
<path d="M127.889 146.538H132.44V150.978H127.889V146.538Z" fill="white"/>
<path d="M136.992 146.538H141.543V150.978H136.992V146.538Z" fill="white"/>
<path d="M150.646 146.538H155.198V150.978H150.646V146.538Z" fill="white"/>
<path d="M155.198 146.538H159.75V150.978H155.198V146.538Z" fill="white"/>
<path d="M0.445312 150.978H4.99686V155.419H0.445312V150.978Z" fill="white"/>
<path d="M9.54841 150.978H14.1V155.419H9.54841V150.978Z" fill="white"/>
<path d="M14.1 150.978H18.6515V155.419H14.1V150.978Z" fill="white"/>
<path d="M18.6515 150.978H23.2031V155.419H18.6515V150.978Z" fill="white"/>
<path d="M27.7546 150.978H32.3062V155.419H27.7546V150.978Z" fill="white"/>
<path d="M41.4093 150.978H45.9608V155.419H41.4093V150.978Z" fill="white"/>
<path d="M45.9608 150.978H50.5123V155.419H45.9608V150.978Z" fill="white"/>
<path d="M50.5123 150.978H55.0639V155.419H50.5123V150.978Z" fill="white"/>
<path d="M55.0639 150.978H59.6154V155.419H55.0639V150.978Z" fill="white"/>
<path d="M59.6154 150.978H64.167V155.419H59.6154V150.978Z" fill="white"/>
<path d="M68.7185 150.978H73.2701V155.419H68.7185V150.978Z" fill="white"/>
<path d="M73.2701 150.978H77.8216V155.419H73.2701V150.978Z" fill="white"/>
<path d="M82.3732 150.978H86.9247V155.419H82.3732V150.978Z" fill="white"/>
<path d="M91.4763 150.978H96.0278V155.419H91.4763V150.978Z" fill="white"/>
<path d="M96.0278 150.978H100.579V155.419H96.0278V150.978Z" fill="white"/>
<path d="M100.579 150.978H105.131V155.419H100.579V150.978Z" fill="white"/>
<path d="M105.131 150.978H109.682V155.419H105.131V150.978Z" fill="white"/>
<path d="M118.786 150.978H123.337V155.419H118.786V150.978Z" fill="white"/>
<path d="M141.543 150.978H146.095V155.419H141.543V150.978Z" fill="white"/>
<path d="M146.095 150.978H150.646V155.419H146.095V150.978Z" fill="white"/>
<path d="M159.75 150.978H164.301V155.419H159.75V150.978Z" fill="white"/>
<path d="M164.301 150.978H168.853V155.419H164.301V150.978Z" fill="white"/>
<path d="M0.445312 155.419H4.99686V159.859H0.445312V155.419Z" fill="white"/>
<path d="M27.7546 155.419H32.3062V159.859H27.7546V155.419Z" fill="white"/>
<path d="M41.4093 155.419H45.9608V159.859H41.4093V155.419Z" fill="white"/>
<path d="M50.5123 155.419H55.0639V159.859H50.5123V155.419Z" fill="white"/>
<path d="M64.167 155.419H68.7185V159.859H64.167V155.419Z" fill="white"/>
<path d="M77.8216 155.419H82.3732V159.859H77.8216V155.419Z" fill="white"/>
<path d="M82.3732 155.419H86.9247V159.859H82.3732V155.419Z" fill="white"/>
<path d="M96.0278 155.419H100.579V159.859H96.0278V155.419Z" fill="white"/>
<path d="M105.131 155.419H109.682V159.859H105.131V155.419Z" fill="white"/>
<path d="M109.682 155.419H114.234V159.859H109.682V155.419Z" fill="white"/>
<path d="M118.786 155.419H123.337V159.859H118.786V155.419Z" fill="white"/>
<path d="M132.44 155.419H136.992V159.859H132.44V155.419Z" fill="white"/>
<path d="M150.646 155.419H155.198V159.859H150.646V155.419Z" fill="white"/>
<path d="M155.198 155.419H159.75V159.859H155.198V155.419Z" fill="white"/>
<path d="M159.75 155.419H164.301V159.859H159.75V155.419Z" fill="white"/>
<path d="M164.301 155.419H168.853V159.859H164.301V155.419Z" fill="white"/>
<path d="M0.445312 159.859H4.99686V164.3H0.445312V159.859Z" fill="white"/>
<path d="M4.99686 159.859H9.54841V164.3H4.99686V159.859Z" fill="white"/>
<path d="M9.54841 159.859H14.1V164.3H9.54841V159.859Z" fill="white"/>
<path d="M14.1 159.859H18.6515V164.3H14.1V159.859Z" fill="white"/>
<path d="M18.6515 159.859H23.2031V164.3H18.6515V159.859Z" fill="white"/>
<path d="M23.2031 159.859H27.7546V164.3H23.2031V159.859Z" fill="white"/>
<path d="M27.7546 159.859H32.3062V164.3H27.7546V159.859Z" fill="white"/>
<path d="M45.9608 159.859H50.5123V164.3H45.9608V159.859Z" fill="white"/>
<path d="M50.5123 159.859H55.0639V164.3H50.5123V159.859Z" fill="white"/>
<path d="M55.0639 159.859H59.6154V164.3H55.0639V159.859Z" fill="white"/>
<path d="M73.2701 159.859H77.8216V164.3H73.2701V159.859Z" fill="white"/>
<path d="M77.8216 159.859H82.3732V164.3H77.8216V159.859Z" fill="white"/>
<path d="M86.9247 159.859H91.4763V164.3H86.9247V159.859Z" fill="white"/>
<path d="M91.4763 159.859H96.0278V164.3H91.4763V159.859Z" fill="white"/>
<path d="M100.579 159.859H105.131V164.3H100.579V159.859Z" fill="white"/>
<path d="M105.131 159.859H109.682V164.3H105.131V159.859Z" fill="white"/>
<path d="M123.337 159.859H127.889V164.3H123.337V159.859Z" fill="white"/>
<path d="M127.889 159.859H132.44V164.3H127.889V159.859Z" fill="white"/>
<path d="M136.992 159.859H141.543V164.3H136.992V159.859Z" fill="white"/>
<path d="M146.095 159.859H150.646V164.3H146.095V159.859Z" fill="white"/>
<path d="M150.646 159.859H155.198V164.3H150.646V159.859Z" fill="white"/>
<path d="M164.301 159.859H168.853V164.3H164.301V159.859Z" fill="white"/>
<path d="M109.607 93.8571C109.607 94.1179 109.599 94.6836 109.583 95.1206C109.543 96.1897 109.457 97.5693 109.325 98.1979C109.128 99.1425 108.83 100.034 108.441 100.776C107.981 101.654 107.395 102.441 106.698 103.119C106.002 103.797 105.197 104.367 104.299 104.813C103.534 105.193 102.614 105.484 101.641 105.676C101.003 105.802 99.5991 105.885 98.5102 105.923C98.0619 105.938 97.482 105.946 97.2156 105.946L73.1726 105.942C72.9052 105.942 72.3255 105.934 71.8776 105.919C70.7817 105.88 69.3676 105.796 68.7233 105.668C67.755 105.475 66.8411 105.184 66.0804 104.805C65.1805 104.356 64.3746 103.784 63.6789 103.104C62.9846 102.426 62.4004 101.64 61.9425 100.764C61.5528 100.018 61.2546 99.1204 61.058 98.1704C60.9292 97.5481 60.844 96.1788 60.8052 95.1164C60.7893 94.6791 60.7812 94.1133 60.7812 93.8535L60.7851 70.3967C60.7851 70.1359 60.7932 69.5703 60.8093 69.1333C60.8486 68.0641 60.9355 66.6845 61.0668 66.056C61.2643 65.1113 61.5623 64.2197 61.951 63.4775C62.4108 62.5997 62.9973 61.8133 63.6942 61.1346C64.3896 60.4573 65.1949 59.8873 66.0934 59.4405C66.8581 59.0604 67.7777 58.7694 68.7515 58.5776C69.3893 58.452 70.7929 58.3688 71.8818 58.3311C72.3301 58.3155 72.9101 58.3076 73.1763 58.3076L97.2194 58.3114C97.4869 58.3114 98.0666 58.3193 98.5145 58.335C99.6104 58.3734 101.024 58.4581 101.669 58.5863C102.637 58.7789 103.551 59.0697 104.312 59.4488C105.211 59.8974 106.017 60.4697 106.713 61.1496C107.407 61.828 107.992 62.6136 108.449 63.4902C108.839 64.2363 109.137 65.1335 109.334 66.0835C109.463 66.7058 109.548 68.0751 109.587 69.1375C109.603 69.5748 109.611 70.1406 109.611 70.4005L109.607 93.8571Z" fill="url(#paint0_linear_23_2)"/>
<path d="M98.129 69.5776C94.8231 66.3497 90.4268 64.5712 85.7427 64.5693C76.0915 64.5693 68.2366 72.2297 68.2328 81.6456C68.2315 84.6554 69.0378 87.5933 70.57 90.183L68.0859 99.0325L77.3682 96.6578C79.9257 98.0182 82.8051 98.7352 85.7357 98.7364H85.7429C95.3931 98.7364 103.249 91.0751 103.253 81.6592C103.254 77.0961 101.435 72.8055 98.129 69.5776ZM85.7429 95.8522H85.7369C83.1255 95.8512 80.5641 95.167 78.3297 93.8738L77.7982 93.5662L72.29 94.9754L73.7602 89.7376L73.4141 89.2006C71.9573 86.9407 71.1879 84.3286 71.189 81.6467C71.1922 73.8207 77.7209 67.4536 85.7485 67.4536C89.6357 67.455 93.2898 68.9334 96.0375 71.6163C98.7853 74.2992 100.298 77.8654 100.296 81.6581C100.293 89.4848 93.7644 95.8522 85.7429 95.8522ZM93.7258 85.2217C93.2882 85.0081 91.1372 83.9758 90.7362 83.8334C90.3352 83.6909 90.0435 83.6197 89.7518 84.047C89.4602 84.4741 88.6217 85.4353 88.3664 85.72C88.1112 86.0048 87.856 86.0405 87.4185 85.8268C86.981 85.6133 85.5713 85.1627 83.9002 83.709C82.5996 82.5776 81.7215 81.1802 81.4663 80.7529C81.2111 80.3257 81.4392 80.0949 81.6582 79.8821C81.855 79.6909 82.0957 79.3837 82.3144 79.1346C82.5332 78.8854 82.6061 78.7074 82.7519 78.4226C82.8978 78.1378 82.8248 77.8886 82.7155 77.675C82.6061 77.4615 81.7311 75.3612 81.3665 74.5068C81.0114 73.6748 80.6506 73.7873 80.3821 73.7743C80.1272 73.7619 79.8352 73.7593 79.5436 73.7593C79.2519 73.7593 78.7779 73.8661 78.3769 74.2933C77.9759 74.7204 76.8457 75.7528 76.8457 77.853C76.8457 79.9533 78.4133 81.9823 78.6321 82.2671C78.8509 82.5519 81.7172 86.8619 86.106 88.7102C87.1499 89.1498 87.9648 89.4124 88.6002 89.6091C89.6483 89.9337 90.602 89.888 91.356 89.7781C92.1965 89.6556 93.9444 88.7459 94.3091 87.7491C94.6737 86.7524 94.6737 85.8981 94.5643 85.7201C94.4549 85.5421 94.1633 85.4353 93.7258 85.2217Z" fill="white"/>
<defs>
<linearGradient id="paint0_linear_23_2" x1="85.196" y1="58.3076" x2="85.196" y2="105.946" gradientUnits="userSpaceOnUse">
<stop stop-color="#61FD7D"/>
<stop offset="1" stop-color="#2BB826"/>
</linearGradient>
</defs>
</svg>
