<svg width="591" height="184" viewBox="0 0 591 184" fill="none" xmlns="http://www.w3.org/2000/svg">
<path d="M36.7031 167.3H585.467" stroke="black"/>
<path d="M86.5938 168.755V167.3" stroke="black"/>
<path d="M72.9721 183V182.233L75.8528 179.08C76.1908 178.71 76.4692 178.389 76.688 178.116C76.9067 177.841 77.0687 177.582 77.1738 177.341C77.2817 177.097 77.3357 176.841 77.3357 176.574C77.3357 176.267 77.2618 176.001 77.1141 175.777C76.9692 175.553 76.7704 175.379 76.5175 175.257C76.2647 175.135 75.9806 175.074 75.6653 175.074C75.33 175.074 75.0374 175.143 74.7874 175.283C74.5403 175.419 74.3485 175.611 74.2121 175.858C74.0786 176.105 74.0118 176.395 74.0118 176.727H73.0062C73.0062 176.216 73.1241 175.767 73.3599 175.381C73.5957 174.994 73.9167 174.693 74.3229 174.477C74.732 174.261 75.1908 174.153 75.6993 174.153C76.2107 174.153 76.6638 174.261 77.0587 174.477C77.4536 174.693 77.7633 174.984 77.9877 175.351C78.2121 175.717 78.3243 176.125 78.3243 176.574C78.3243 176.895 78.2661 177.209 78.1496 177.516C78.036 177.82 77.8371 178.159 77.553 178.534C77.2718 178.906 76.8812 179.361 76.3812 179.898L74.4209 181.994V182.062H78.4778V183H72.9721ZM83.0843 183.119C82.4422 183.119 81.8954 182.945 81.4437 182.595C80.992 182.243 80.6468 181.733 80.4082 181.065C80.1695 180.395 80.0502 179.585 80.0502 178.636C80.0502 177.693 80.1695 176.888 80.4082 176.22C80.6496 175.55 80.9962 175.038 81.4479 174.686C81.9025 174.331 82.4479 174.153 83.0843 174.153C83.7207 174.153 84.2647 174.331 84.7164 174.686C85.1709 175.038 85.5175 175.55 85.7562 176.22C85.9976 176.888 86.1184 177.693 86.1184 178.636C86.1184 179.585 85.9991 180.395 85.7604 181.065C85.5218 181.733 85.1766 182.243 84.7249 182.595C84.2732 182.945 83.7263 183.119 83.0843 183.119ZM83.0843 182.182C83.7207 182.182 84.215 181.875 84.5672 181.261C84.9195 180.648 85.0957 179.773 85.0957 178.636C85.0957 177.881 85.0147 177.237 84.8528 176.706C84.6937 176.175 84.4636 175.77 84.1624 175.491C83.8641 175.213 83.5047 175.074 83.0843 175.074C82.4536 175.074 81.9607 175.385 81.6056 176.007C81.2505 176.626 81.0729 177.503 81.0729 178.636C81.0729 179.392 81.1525 180.034 81.3116 180.562C81.4707 181.091 81.6993 181.493 81.9976 181.768C82.2988 182.044 82.661 182.182 83.0843 182.182ZM90.5843 183.119C89.9422 183.119 89.3954 182.945 88.9437 182.595C88.492 182.243 88.1468 181.733 87.9082 181.065C87.6695 180.395 87.5502 179.585 87.5502 178.636C87.5502 177.693 87.6695 176.888 87.9082 176.22C88.1496 175.55 88.4962 175.038 88.9479 174.686C89.4025 174.331 89.9479 174.153 90.5843 174.153C91.2207 174.153 91.7647 174.331 92.2164 174.686C92.6709 175.038 93.0175 175.55 93.2562 176.22C93.4976 176.888 93.6184 177.693 93.6184 178.636C93.6184 179.585 93.4991 180.395 93.2604 181.065C93.0218 181.733 92.6766 182.243 92.2249 182.595C91.7732 182.945 91.2263 183.119 90.5843 183.119ZM90.5843 182.182C91.2207 182.182 91.715 181.875 92.0672 181.261C92.4195 180.648 92.5957 179.773 92.5957 178.636C92.5957 177.881 92.5147 177.237 92.3528 176.706C92.1937 176.175 91.9636 175.77 91.6624 175.491C91.3641 175.213 91.0047 175.074 90.5843 175.074C89.9536 175.074 89.4607 175.385 89.1056 176.007C88.7505 176.626 88.5729 177.503 88.5729 178.636C88.5729 179.392 88.6525 180.034 88.8116 180.562C88.9707 181.091 89.1993 181.493 89.4976 181.768C89.7988 182.044 90.161 182.182 90.5843 182.182ZM98.0843 183.119C97.4422 183.119 96.8954 182.945 96.4437 182.595C95.992 182.243 95.6468 181.733 95.4082 181.065C95.1695 180.395 95.0502 179.585 95.0502 178.636C95.0502 177.693 95.1695 176.888 95.4082 176.22C95.6496 175.55 95.9962 175.038 96.4479 174.686C96.9025 174.331 97.4479 174.153 98.0843 174.153C98.7207 174.153 99.2647 174.331 99.7164 174.686C100.171 175.038 100.518 175.55 100.756 176.22C100.998 176.888 101.118 177.693 101.118 178.636C101.118 179.585 100.999 180.395 100.76 181.065C100.522 181.733 100.177 182.243 99.7249 182.595C99.2732 182.945 98.7263 183.119 98.0843 183.119ZM98.0843 182.182C98.7207 182.182 99.215 181.875 99.5672 181.261C99.9195 180.648 100.096 179.773 100.096 178.636C100.096 177.881 100.015 177.237 99.8528 176.706C99.6937 176.175 99.4636 175.77 99.1624 175.491C98.8641 175.213 98.5047 175.074 98.0843 175.074C97.4536 175.074 96.9607 175.385 96.6056 176.007C96.2505 176.626 96.0729 177.503 96.0729 178.636C96.0729 179.392 96.1525 180.034 96.3116 180.562C96.4707 181.091 96.6994 181.493 96.9976 181.768C97.2988 182.044 97.661 182.182 98.0843 182.182Z" fill="white"/>
<path d="M136.484 168.755V167.3" stroke="black"/>
<path d="M122.478 183V182.233L125.359 179.08C125.697 178.71 125.975 178.389 126.194 178.116C126.413 177.841 126.575 177.582 126.68 177.341C126.788 177.097 126.842 176.841 126.842 176.574C126.842 176.267 126.768 176.001 126.62 175.777C126.475 175.553 126.276 175.379 126.023 175.257C125.771 175.135 125.486 175.074 125.171 175.074C124.836 175.074 124.543 175.143 124.293 175.283C124.046 175.419 123.854 175.611 123.718 175.858C123.584 176.105 123.518 176.395 123.518 176.727H122.512C122.512 176.216 122.63 175.767 122.866 175.381C123.102 174.994 123.423 174.693 123.829 174.477C124.238 174.261 124.697 174.153 125.205 174.153C125.717 174.153 126.17 174.261 126.565 174.477C126.959 174.693 127.269 174.984 127.494 175.351C127.718 175.717 127.83 176.125 127.83 176.574C127.83 176.895 127.772 177.209 127.655 177.516C127.542 177.82 127.343 178.159 127.059 178.534C126.778 178.906 126.387 179.361 125.887 179.898L123.927 181.994V182.062H127.984V183H122.478ZM132.59 183.119C131.948 183.119 131.401 182.945 130.95 182.595C130.498 182.243 130.153 181.733 129.914 181.065C129.675 180.395 129.556 179.585 129.556 178.636C129.556 177.693 129.675 176.888 129.914 176.22C130.155 175.55 130.502 175.038 130.954 174.686C131.408 174.331 131.954 174.153 132.59 174.153C133.227 174.153 133.771 174.331 134.222 174.686C134.677 175.038 135.023 175.55 135.262 176.22C135.504 176.888 135.624 177.693 135.624 178.636C135.624 179.585 135.505 180.395 135.266 181.065C135.028 181.733 134.682 182.243 134.231 182.595C133.779 182.945 133.232 183.119 132.59 183.119ZM132.59 182.182C133.227 182.182 133.721 181.875 134.073 181.261C134.425 180.648 134.602 179.773 134.602 178.636C134.602 177.881 134.521 177.237 134.359 176.706C134.2 176.175 133.969 175.77 133.668 175.491C133.37 175.213 133.011 175.074 132.59 175.074C131.959 175.074 131.467 175.385 131.111 176.007C130.756 176.626 130.579 177.503 130.579 178.636C130.579 179.392 130.658 180.034 130.817 180.562C130.977 181.091 131.205 181.493 131.504 181.768C131.805 182.044 132.167 182.182 132.59 182.182ZM140.09 183.119C139.448 183.119 138.901 182.945 138.45 182.595C137.998 182.243 137.653 181.733 137.414 181.065C137.175 180.395 137.056 179.585 137.056 178.636C137.056 177.693 137.175 176.888 137.414 176.22C137.655 175.55 138.002 175.038 138.454 174.686C138.908 174.331 139.454 174.153 140.09 174.153C140.727 174.153 141.271 174.331 141.722 174.686C142.177 175.038 142.523 175.55 142.762 176.22C143.004 176.888 143.124 177.693 143.124 178.636C143.124 179.585 143.005 180.395 142.766 181.065C142.528 181.733 142.182 182.243 141.731 182.595C141.279 182.945 140.732 183.119 140.09 183.119ZM140.09 182.182C140.727 182.182 141.221 181.875 141.573 181.261C141.925 180.648 142.102 179.773 142.102 178.636C142.102 177.881 142.021 177.237 141.859 176.706C141.7 176.175 141.469 175.77 141.168 175.491C140.87 175.213 140.511 175.074 140.09 175.074C139.459 175.074 138.967 175.385 138.611 176.007C138.256 176.626 138.079 177.503 138.079 178.636C138.079 179.392 138.158 180.034 138.317 180.562C138.477 181.091 138.705 181.493 139.004 181.768C139.305 182.044 139.667 182.182 140.09 182.182ZM147.471 183.119C146.971 183.119 146.521 183.02 146.12 182.821C145.719 182.622 145.398 182.349 145.157 182.003C144.915 181.656 144.783 181.261 144.761 180.818H145.783C145.823 181.213 146.002 181.54 146.32 181.798C146.641 182.054 147.025 182.182 147.471 182.182C147.829 182.182 148.147 182.098 148.425 181.93C148.707 181.763 148.927 181.533 149.086 181.24C149.248 180.945 149.329 180.611 149.329 180.239C149.329 179.858 149.245 179.518 149.077 179.22C148.913 178.919 148.685 178.682 148.396 178.509C148.106 178.335 147.775 178.247 147.403 178.244C147.136 178.241 146.861 178.283 146.58 178.368C146.299 178.45 146.067 178.557 145.886 178.688L144.897 178.568L145.425 174.273H149.959V175.21H146.312L146.005 177.784H146.056C146.235 177.642 146.459 177.524 146.729 177.43C146.999 177.337 147.28 177.29 147.573 177.29C148.107 177.29 148.583 177.418 149.001 177.673C149.421 177.926 149.751 178.273 149.989 178.713C150.231 179.153 150.352 179.656 150.352 180.222C150.352 180.778 150.227 181.276 149.977 181.713C149.729 182.148 149.388 182.491 148.954 182.744C148.519 182.994 148.025 183.119 147.471 183.119Z" fill="white"/>
<path d="M186.367 168.755V167.3" stroke="black"/>
<path d="M173.746 183V182.233L176.626 179.08C176.964 178.71 177.243 178.389 177.461 178.116C177.68 177.841 177.842 177.582 177.947 177.341C178.055 177.097 178.109 176.841 178.109 176.574C178.109 176.267 178.035 176.001 177.888 175.777C177.743 175.553 177.544 175.379 177.291 175.257C177.038 175.135 176.754 175.074 176.439 175.074C176.103 175.074 175.811 175.143 175.561 175.283C175.314 175.419 175.122 175.611 174.986 175.858C174.852 176.105 174.785 176.395 174.785 176.727H173.78C173.78 176.216 173.898 175.767 174.133 175.381C174.369 174.994 174.69 174.693 175.096 174.477C175.505 174.261 175.964 174.153 176.473 174.153C176.984 174.153 177.437 174.261 177.832 174.477C178.227 174.693 178.537 174.984 178.761 175.351C178.986 175.717 179.098 176.125 179.098 176.574C179.098 176.895 179.04 177.209 178.923 177.516C178.809 177.82 178.611 178.159 178.326 178.534C178.045 178.906 177.655 179.361 177.155 179.898L175.194 181.994V182.062H179.251V183H173.746ZM183.858 183.119C183.216 183.119 182.669 182.945 182.217 182.595C181.765 182.243 181.42 181.733 181.182 181.065C180.943 180.395 180.824 179.585 180.824 178.636C180.824 177.693 180.943 176.888 181.182 176.22C181.423 175.55 181.77 175.038 182.221 174.686C182.676 174.331 183.221 174.153 183.858 174.153C184.494 174.153 185.038 174.331 185.49 174.686C185.944 175.038 186.291 175.55 186.53 176.22C186.771 176.888 186.892 177.693 186.892 178.636C186.892 179.585 186.773 180.395 186.534 181.065C186.295 181.733 185.95 182.243 185.498 182.595C185.047 182.945 184.5 183.119 183.858 183.119ZM183.858 182.182C184.494 182.182 184.988 181.875 185.341 181.261C185.693 180.648 185.869 179.773 185.869 178.636C185.869 177.881 185.788 177.237 185.626 176.706C185.467 176.175 185.237 175.77 184.936 175.491C184.638 175.213 184.278 175.074 183.858 175.074C183.227 175.074 182.734 175.385 182.379 176.007C182.024 176.626 181.846 177.503 181.846 178.636C181.846 179.392 181.926 180.034 182.085 180.562C182.244 181.091 182.473 181.493 182.771 181.768C183.072 182.044 183.434 182.182 183.858 182.182ZM191.579 174.273V183H190.523V175.381H190.471L188.341 176.795V175.722L190.523 174.273H191.579ZM196.936 183.119C196.294 183.119 195.747 182.945 195.295 182.595C194.844 182.243 194.498 181.733 194.26 181.065C194.021 180.395 193.902 179.585 193.902 178.636C193.902 177.693 194.021 176.888 194.26 176.22C194.501 175.55 194.848 175.038 195.299 174.686C195.754 174.331 196.299 174.153 196.936 174.153C197.572 174.153 198.116 174.331 198.568 174.686C199.023 175.038 199.369 175.55 199.608 176.22C199.849 176.888 199.97 177.693 199.97 178.636C199.97 179.585 199.851 180.395 199.612 181.065C199.373 181.733 199.028 182.243 198.576 182.595C198.125 182.945 197.578 183.119 196.936 183.119ZM196.936 182.182C197.572 182.182 198.067 181.875 198.419 181.261C198.771 180.648 198.947 179.773 198.947 178.636C198.947 177.881 198.866 177.237 198.704 176.706C198.545 176.175 198.315 175.77 198.014 175.491C197.716 175.213 197.356 175.074 196.936 175.074C196.305 175.074 195.812 175.385 195.457 176.007C195.102 176.626 194.924 177.503 194.924 178.636C194.924 179.392 195.004 180.034 195.163 180.562C195.322 181.091 195.551 181.493 195.849 181.768C196.15 182.044 196.513 182.182 196.936 182.182Z" fill="white"/>
<path d="M236.258 169.456V168" stroke="black"/>
<path d="M223.251 183V182.233L226.132 179.08C226.47 178.71 226.748 178.389 226.967 178.116C227.186 177.841 227.348 177.582 227.453 177.341C227.561 177.097 227.615 176.841 227.615 176.574C227.615 176.267 227.541 176.001 227.393 175.777C227.248 175.553 227.049 175.379 226.796 175.257C226.544 175.135 226.259 175.074 225.944 175.074C225.609 175.074 225.316 175.143 225.066 175.283C224.819 175.419 224.627 175.611 224.491 175.858C224.357 176.105 224.291 176.395 224.291 176.727H223.285C223.285 176.216 223.403 175.767 223.639 175.381C223.875 174.994 224.196 174.693 224.602 174.477C225.011 174.261 225.47 174.153 225.978 174.153C226.49 174.153 226.943 174.261 227.338 174.477C227.732 174.693 228.042 174.984 228.267 175.351C228.491 175.717 228.603 176.125 228.603 176.574C228.603 176.895 228.545 177.209 228.429 177.516C228.315 177.82 228.116 178.159 227.832 178.534C227.551 178.906 227.16 179.361 226.66 179.898L224.7 181.994V182.062H228.757V183H223.251ZM233.363 183.119C232.721 183.119 232.174 182.945 231.723 182.595C231.271 182.243 230.926 181.733 230.687 181.065C230.448 180.395 230.329 179.585 230.329 178.636C230.329 177.693 230.448 176.888 230.687 176.22C230.929 175.55 231.275 175.038 231.727 174.686C232.181 174.331 232.727 174.153 233.363 174.153C234 174.153 234.544 174.331 234.995 174.686C235.45 175.038 235.796 175.55 236.035 176.22C236.277 176.888 236.397 177.693 236.397 178.636C236.397 179.585 236.278 180.395 236.039 181.065C235.801 181.733 235.456 182.243 235.004 182.595C234.552 182.945 234.005 183.119 233.363 183.119ZM233.363 182.182C234 182.182 234.494 181.875 234.846 181.261C235.198 180.648 235.375 179.773 235.375 178.636C235.375 177.881 235.294 177.237 235.132 176.706C234.973 176.175 234.742 175.77 234.441 175.491C234.143 175.213 233.784 175.074 233.363 175.074C232.732 175.074 232.24 175.385 231.884 176.007C231.529 176.626 231.352 177.503 231.352 178.636C231.352 179.392 231.431 180.034 231.59 180.562C231.75 181.091 231.978 181.493 232.277 181.768C232.578 182.044 232.94 182.182 233.363 182.182ZM241.085 174.273V183H240.028V175.381H239.977L237.846 176.795V175.722L240.028 174.273H241.085ZM246.322 183.119C245.822 183.119 245.372 183.02 244.971 182.821C244.571 182.622 244.25 182.349 244.008 182.003C243.767 181.656 243.634 181.261 243.612 180.818H244.634C244.674 181.213 244.853 181.54 245.171 181.798C245.492 182.054 245.876 182.182 246.322 182.182C246.68 182.182 246.998 182.098 247.277 181.93C247.558 181.763 247.778 181.533 247.937 181.24C248.099 180.945 248.18 180.611 248.18 180.239C248.18 179.858 248.096 179.518 247.929 179.22C247.764 178.919 247.536 178.682 247.247 178.509C246.957 178.335 246.626 178.247 246.254 178.244C245.987 178.241 245.713 178.283 245.431 178.368C245.15 178.45 244.919 178.557 244.737 178.688L243.748 178.568L244.277 174.273H248.811V175.21H245.163L244.856 177.784H244.907C245.086 177.642 245.311 177.524 245.581 177.43C245.85 177.337 246.132 177.29 246.424 177.29C246.958 177.29 247.434 177.418 247.852 177.673C248.272 177.926 248.602 178.273 248.84 178.713C249.082 179.153 249.203 179.656 249.203 180.222C249.203 180.778 249.078 181.276 248.828 181.713C248.581 182.148 248.24 182.491 247.805 182.744C247.37 182.994 246.876 183.119 246.322 183.119Z" fill="white"/>
<path d="M286.141 168.755V167.3" stroke="black"/>
<path d="M273.611 183V182.233L276.491 179.08C276.829 178.71 277.108 178.389 277.327 178.116C277.545 177.841 277.707 177.582 277.812 177.341C277.92 177.097 277.974 176.841 277.974 176.574C277.974 176.267 277.901 176.001 277.753 175.777C277.608 175.553 277.409 175.379 277.156 175.257C276.903 175.135 276.619 175.074 276.304 175.074C275.969 175.074 275.676 175.143 275.426 175.283C275.179 175.419 274.987 175.611 274.851 175.858C274.717 176.105 274.651 176.395 274.651 176.727H273.645C273.645 176.216 273.763 175.767 273.999 175.381C274.234 174.994 274.555 174.693 274.962 174.477C275.371 174.261 275.829 174.153 276.338 174.153C276.849 174.153 277.303 174.261 277.697 174.477C278.092 174.693 278.402 174.984 278.626 175.351C278.851 175.717 278.963 176.125 278.963 176.574C278.963 176.895 278.905 177.209 278.788 177.516C278.675 177.82 278.476 178.159 278.192 178.534C277.91 178.906 277.52 179.361 277.02 179.898L275.06 181.994V182.062H279.116V183H273.611ZM283.723 183.119C283.081 183.119 282.534 182.945 282.082 182.595C281.631 182.243 281.285 181.733 281.047 181.065C280.808 180.395 280.689 179.585 280.689 178.636C280.689 177.693 280.808 176.888 281.047 176.22C281.288 175.55 281.635 175.038 282.087 174.686C282.541 174.331 283.087 174.153 283.723 174.153C284.359 174.153 284.903 174.331 285.355 174.686C285.81 175.038 286.156 175.55 286.395 176.22C286.636 176.888 286.757 177.693 286.757 178.636C286.757 179.585 286.638 180.395 286.399 181.065C286.16 181.733 285.815 182.243 285.364 182.595C284.912 182.945 284.365 183.119 283.723 183.119ZM283.723 182.182C284.359 182.182 284.854 181.875 285.206 181.261C285.558 180.648 285.734 179.773 285.734 178.636C285.734 177.881 285.653 177.237 285.491 176.706C285.332 176.175 285.102 175.77 284.801 175.491C284.503 175.213 284.143 175.074 283.723 175.074C283.092 175.074 282.599 175.385 282.244 176.007C281.889 176.626 281.712 177.503 281.712 178.636C281.712 179.392 281.791 180.034 281.95 180.562C282.109 181.091 282.338 181.493 282.636 181.768C282.937 182.044 283.3 182.182 283.723 182.182ZM291.445 174.273V183H290.388V175.381H290.337L288.206 176.795V175.722L290.388 174.273H291.445ZM296.75 183.119C296.165 183.119 295.648 183.016 295.199 182.808C294.753 182.598 294.405 182.31 294.155 181.943C293.905 181.574 293.781 181.153 293.784 180.682C293.781 180.312 293.854 179.972 294.001 179.659C294.149 179.344 294.351 179.081 294.606 178.871C294.865 178.658 295.153 178.523 295.472 178.466V178.415C295.054 178.307 294.722 178.072 294.474 177.712C294.227 177.348 294.105 176.935 294.108 176.472C294.105 176.028 294.217 175.632 294.445 175.283C294.672 174.933 294.984 174.658 295.382 174.456C295.783 174.254 296.239 174.153 296.75 174.153C297.256 174.153 297.707 174.254 298.105 174.456C298.503 174.658 298.815 174.933 299.043 175.283C299.273 175.632 299.389 176.028 299.392 176.472C299.389 176.935 299.263 177.348 299.013 177.712C298.766 178.072 298.437 178.307 298.028 178.415V178.466C298.344 178.523 298.628 178.658 298.881 178.871C299.133 179.081 299.335 179.344 299.486 179.659C299.636 179.972 299.713 180.312 299.716 180.682C299.713 181.153 299.585 181.574 299.332 181.943C299.082 182.31 298.734 182.598 298.288 182.808C297.845 183.016 297.332 183.119 296.75 183.119ZM296.75 182.182C297.145 182.182 297.486 182.118 297.773 181.99C298.06 181.862 298.281 181.682 298.437 181.449C298.594 181.216 298.673 180.943 298.676 180.631C298.673 180.301 298.588 180.01 298.42 179.757C298.253 179.504 298.024 179.305 297.734 179.161C297.447 179.016 297.119 178.943 296.75 178.943C296.378 178.943 296.045 179.016 295.753 179.161C295.463 179.305 295.234 179.504 295.067 179.757C294.902 180.01 294.821 180.301 294.824 180.631C294.821 180.943 294.896 181.216 295.05 181.449C295.206 181.682 295.429 181.862 295.719 181.99C296.008 182.118 296.352 182.182 296.75 182.182ZM296.75 178.04C297.062 178.04 297.339 177.977 297.581 177.852C297.825 177.727 298.017 177.553 298.156 177.328C298.295 177.104 298.366 176.841 298.369 176.54C298.366 176.244 298.297 175.987 298.16 175.768C298.024 175.547 297.835 175.376 297.594 175.257C297.352 175.135 297.071 175.074 296.75 175.074C296.423 175.074 296.138 175.135 295.893 175.257C295.649 175.376 295.46 175.547 295.327 175.768C295.193 175.987 295.128 176.244 295.131 176.54C295.128 176.841 295.195 177.104 295.331 177.328C295.47 177.553 295.662 177.727 295.906 177.852C296.151 177.977 296.432 178.04 296.75 178.04Z" fill="white"/>
<path d="M336.031 168.755V167.3" stroke="black"/>
<path d="M322.97 183V182.233L325.85 179.08C326.188 178.71 326.467 178.389 326.686 178.116C326.904 177.841 327.066 177.582 327.171 177.341C327.279 177.097 327.333 176.841 327.333 176.574C327.333 176.267 327.259 176.001 327.112 175.777C326.967 175.553 326.768 175.379 326.515 175.257C326.262 175.135 325.978 175.074 325.663 175.074C325.328 175.074 325.035 175.143 324.785 175.283C324.538 175.419 324.346 175.611 324.21 175.858C324.076 176.105 324.009 176.395 324.009 176.727H323.004C323.004 176.216 323.122 175.767 323.357 175.381C323.593 174.994 323.914 174.693 324.321 174.477C324.73 174.261 325.188 174.153 325.697 174.153C326.208 174.153 326.661 174.261 327.056 174.477C327.451 174.693 327.761 174.984 327.985 175.351C328.21 175.717 328.322 176.125 328.322 176.574C328.322 176.895 328.264 177.209 328.147 177.516C328.034 177.82 327.835 178.159 327.551 178.534C327.269 178.906 326.879 179.361 326.379 179.898L324.419 181.994V182.062H328.475V183H322.97ZM333.082 183.119C332.44 183.119 331.893 182.945 331.441 182.595C330.99 182.243 330.644 181.733 330.406 181.065C330.167 180.395 330.048 179.585 330.048 178.636C330.048 177.693 330.167 176.888 330.406 176.22C330.647 175.55 330.994 175.038 331.446 174.686C331.9 174.331 332.446 174.153 333.082 174.153C333.718 174.153 334.262 174.331 334.714 174.686C335.169 175.038 335.515 175.55 335.754 176.22C335.995 176.888 336.116 177.693 336.116 178.636C336.116 179.585 335.997 180.395 335.758 181.065C335.519 181.733 335.174 182.243 334.723 182.595C334.271 182.945 333.724 183.119 333.082 183.119ZM333.082 182.182C333.718 182.182 334.213 181.875 334.565 181.261C334.917 180.648 335.093 179.773 335.093 178.636C335.093 177.881 335.012 177.237 334.85 176.706C334.691 176.175 334.461 175.77 334.16 175.491C333.862 175.213 333.502 175.074 333.082 175.074C332.451 175.074 331.958 175.385 331.603 176.007C331.248 176.626 331.071 177.503 331.071 178.636C331.071 179.392 331.15 180.034 331.309 180.562C331.468 181.091 331.697 181.493 331.995 181.768C332.296 182.044 332.659 182.182 333.082 182.182ZM340.804 174.273V183H339.747V175.381H339.696L337.565 176.795V175.722L339.747 174.273H340.804ZM346.092 174.153C346.45 174.156 346.808 174.224 347.166 174.358C347.524 174.491 347.85 174.713 348.146 175.023C348.441 175.33 348.679 175.749 348.857 176.28C349.036 176.811 349.126 177.477 349.126 178.278C349.126 179.054 349.052 179.743 348.904 180.345C348.759 180.945 348.549 181.45 348.274 181.862C348.001 182.274 347.669 182.587 347.277 182.8C346.887 183.013 346.447 183.119 345.956 183.119C345.467 183.119 345.031 183.023 344.647 182.83C344.267 182.634 343.954 182.362 343.71 182.016C343.468 181.666 343.313 181.261 343.245 180.801H344.285C344.379 181.202 344.565 181.533 344.843 181.794C345.125 182.053 345.495 182.182 345.956 182.182C346.629 182.182 347.16 181.888 347.549 181.3C347.941 180.712 348.137 179.881 348.137 178.807H348.069C347.91 179.045 347.721 179.251 347.502 179.425C347.284 179.598 347.041 179.732 346.774 179.825C346.507 179.919 346.223 179.966 345.921 179.966C345.421 179.966 344.963 179.842 344.545 179.595C344.13 179.345 343.798 179.003 343.548 178.568C343.301 178.131 343.177 177.631 343.177 177.068C343.177 176.534 343.296 176.045 343.535 175.602C343.777 175.156 344.115 174.801 344.549 174.537C344.987 174.273 345.501 174.145 346.092 174.153ZM346.092 175.091C345.734 175.091 345.411 175.18 345.125 175.359C344.84 175.536 344.615 175.774 344.447 176.075C344.282 176.374 344.2 176.705 344.2 177.068C344.2 177.432 344.279 177.763 344.438 178.061C344.6 178.357 344.821 178.592 345.099 178.768C345.38 178.942 345.7 179.028 346.058 179.028C346.328 179.028 346.579 178.976 346.812 178.871C347.045 178.763 347.248 178.616 347.421 178.432C347.598 178.244 347.735 178.033 347.835 177.797C347.934 177.558 347.984 177.31 347.984 177.051C347.984 176.71 347.902 176.391 347.737 176.092C347.575 175.794 347.35 175.553 347.063 175.368C346.779 175.183 346.456 175.091 346.092 175.091Z" fill="white"/>
<path d="M385.922 168.755V167.3" stroke="black"/>
<path d="M372.031 183V182.233L374.912 179.08C375.25 178.71 375.528 178.389 375.747 178.116C375.966 177.841 376.127 177.582 376.233 177.341C376.341 177.097 376.395 176.841 376.395 176.574C376.395 176.267 376.321 176.001 376.173 175.777C376.028 175.553 375.829 175.379 375.576 175.257C375.323 175.135 375.039 175.074 374.724 175.074C374.389 175.074 374.096 175.143 373.846 175.283C373.599 175.419 373.407 175.611 373.271 175.858C373.137 176.105 373.071 176.395 373.071 176.727H372.065C372.065 176.216 372.183 175.767 372.419 175.381C372.654 174.994 372.975 174.693 373.382 174.477C373.791 174.261 374.25 174.153 374.758 174.153C375.27 174.153 375.723 174.261 376.118 174.477C376.512 174.693 376.822 174.984 377.047 175.351C377.271 175.717 377.383 176.125 377.383 176.574C377.383 176.895 377.325 177.209 377.208 177.516C377.095 177.82 376.896 178.159 376.612 178.534C376.331 178.906 375.94 179.361 375.44 179.898L373.48 181.994V182.062H377.537V183H372.031ZM382.143 183.119C381.501 183.119 380.954 182.945 380.502 182.595C380.051 182.243 379.706 181.733 379.467 181.065C379.228 180.395 379.109 179.585 379.109 178.636C379.109 177.693 379.228 176.888 379.467 176.22C379.708 175.55 380.055 175.038 380.507 174.686C380.961 174.331 381.507 174.153 382.143 174.153C382.779 174.153 383.323 174.331 383.775 174.686C384.23 175.038 384.576 175.55 384.815 176.22C385.056 176.888 385.177 177.693 385.177 178.636C385.177 179.585 385.058 180.395 384.819 181.065C384.581 181.733 384.235 182.243 383.784 182.595C383.332 182.945 382.785 183.119 382.143 183.119ZM382.143 182.182C382.779 182.182 383.274 181.875 383.626 181.261C383.978 180.648 384.154 179.773 384.154 178.636C384.154 177.881 384.073 177.237 383.912 176.706C383.752 176.175 383.522 175.77 383.221 175.491C382.923 175.213 382.564 175.074 382.143 175.074C381.512 175.074 381.02 175.385 380.664 176.007C380.309 176.626 380.132 177.503 380.132 178.636C380.132 179.392 380.211 180.034 380.37 180.562C380.529 181.091 380.758 181.493 381.056 181.768C381.358 182.044 381.72 182.182 382.143 182.182ZM386.797 183V182.233L389.677 179.08C390.015 178.71 390.294 178.389 390.512 178.116C390.731 177.841 390.893 177.582 390.998 177.341C391.106 177.097 391.16 176.841 391.16 176.574C391.16 176.267 391.086 176.001 390.939 175.777C390.794 175.553 390.595 175.379 390.342 175.257C390.089 175.135 389.805 175.074 389.49 175.074C389.154 175.074 388.862 175.143 388.612 175.283C388.365 175.419 388.173 175.611 388.037 175.858C387.903 176.105 387.836 176.395 387.836 176.727H386.831C386.831 176.216 386.948 175.767 387.184 175.381C387.42 174.994 387.741 174.693 388.147 174.477C388.556 174.261 389.015 174.153 389.524 174.153C390.035 174.153 390.488 174.261 390.883 174.477C391.278 174.693 391.588 174.984 391.812 175.351C392.037 175.717 392.149 176.125 392.149 176.574C392.149 176.895 392.091 177.209 391.974 177.516C391.86 177.82 391.662 178.159 391.377 178.534C391.096 178.906 390.706 179.361 390.206 179.898L388.245 181.994V182.062H392.302V183H386.797ZM396.909 183.119C396.267 183.119 395.72 182.945 395.268 182.595C394.816 182.243 394.471 181.733 394.233 181.065C393.994 180.395 393.875 179.585 393.875 178.636C393.875 177.693 393.994 176.888 394.233 176.22C394.474 175.55 394.821 175.038 395.272 174.686C395.727 174.331 396.272 174.153 396.909 174.153C397.545 174.153 398.089 174.331 398.541 174.686C398.995 175.038 399.342 175.55 399.581 176.22C399.822 176.888 399.943 177.693 399.943 178.636C399.943 179.585 399.823 180.395 399.585 181.065C399.346 181.733 399.001 182.243 398.549 182.595C398.098 182.945 397.551 183.119 396.909 183.119ZM396.909 182.182C397.545 182.182 398.039 181.875 398.392 181.261C398.744 180.648 398.92 179.773 398.92 178.636C398.92 177.881 398.839 177.237 398.677 176.706C398.518 176.175 398.288 175.77 397.987 175.491C397.689 175.213 397.329 175.074 396.909 175.074C396.278 175.074 395.785 175.385 395.43 176.007C395.075 176.626 394.897 177.503 394.897 178.636C394.897 179.392 394.977 180.034 395.136 180.562C395.295 181.091 395.524 181.493 395.822 181.768C396.123 182.044 396.485 182.182 396.909 182.182Z" fill="white"/>
<path d="M435.805 168.755V167.3" stroke="black"/>
<path d="M422.39 183V182.233L425.271 179.08C425.609 178.71 425.887 178.389 426.106 178.116C426.325 177.841 426.487 177.582 426.592 177.341C426.7 177.097 426.754 176.841 426.754 176.574C426.754 176.267 426.68 176.001 426.532 175.777C426.387 175.553 426.189 175.379 425.936 175.257C425.683 175.135 425.399 175.074 425.083 175.074C424.748 175.074 424.456 175.143 424.206 175.283C423.958 175.419 423.767 175.611 423.63 175.858C423.497 176.105 423.43 176.395 423.43 176.727H422.424C422.424 176.216 422.542 175.767 422.778 175.381C423.014 174.994 423.335 174.693 423.741 174.477C424.15 174.261 424.609 174.153 425.118 174.153C425.629 174.153 426.082 174.261 426.477 174.477C426.872 174.693 427.181 174.984 427.406 175.351C427.63 175.717 427.743 176.125 427.743 176.574C427.743 176.895 427.684 177.209 427.568 177.516C427.454 177.82 427.255 178.159 426.971 178.534C426.69 178.906 426.299 179.361 425.799 179.898L423.839 181.994V182.062H427.896V183H422.39ZM432.502 183.119C431.86 183.119 431.314 182.945 430.862 182.595C430.41 182.243 430.065 181.733 429.826 181.065C429.588 180.395 429.468 179.585 429.468 178.636C429.468 177.693 429.588 176.888 429.826 176.22C430.068 175.55 430.414 175.038 430.866 174.686C431.321 174.331 431.866 174.153 432.502 174.153C433.139 174.153 433.683 174.331 434.135 174.686C434.589 175.038 434.936 175.55 435.174 176.22C435.416 176.888 435.537 177.693 435.537 178.636C435.537 179.585 435.417 180.395 435.179 181.065C434.94 181.733 434.595 182.243 434.143 182.595C433.691 182.945 433.145 183.119 432.502 183.119ZM432.502 182.182C433.139 182.182 433.633 181.875 433.985 181.261C434.338 180.648 434.514 179.773 434.514 178.636C434.514 177.881 434.433 177.237 434.271 176.706C434.112 176.175 433.882 175.77 433.581 175.491C433.282 175.213 432.923 175.074 432.502 175.074C431.872 175.074 431.379 175.385 431.024 176.007C430.669 176.626 430.491 177.503 430.491 178.636C430.491 179.392 430.571 180.034 430.73 180.562C430.889 181.091 431.118 181.493 431.416 181.768C431.717 182.044 432.079 182.182 432.502 182.182ZM437.156 183V182.233L440.037 179.08C440.375 178.71 440.653 178.389 440.872 178.116C441.091 177.841 441.252 177.582 441.358 177.341C441.466 177.097 441.52 176.841 441.52 176.574C441.52 176.267 441.446 176.001 441.298 175.777C441.153 175.553 440.954 175.379 440.701 175.257C440.448 175.135 440.164 175.074 439.849 175.074C439.514 175.074 439.221 175.143 438.971 175.283C438.724 175.419 438.532 175.611 438.396 175.858C438.262 176.105 438.196 176.395 438.196 176.727H437.19C437.19 176.216 437.308 175.767 437.544 175.381C437.779 174.994 438.1 174.693 438.507 174.477C438.916 174.261 439.375 174.153 439.883 174.153C440.395 174.153 440.848 174.261 441.243 174.477C441.637 174.693 441.947 174.984 442.172 175.351C442.396 175.717 442.508 176.125 442.508 176.574C442.508 176.895 442.45 177.209 442.333 177.516C442.22 177.82 442.021 178.159 441.737 178.534C441.456 178.906 441.065 179.361 440.565 179.898L438.605 181.994V182.062H442.662V183H437.156ZM447.49 174.273V183H446.433V175.381H446.382L444.251 176.795V175.722L446.433 174.273H447.49Z" fill="white"/>
<path d="M485.695 168.755V167.3" stroke="black"/>
<path d="M470.954 183V182.233L473.834 179.08C474.172 178.71 474.451 178.389 474.669 178.116C474.888 177.841 475.05 177.582 475.155 177.341C475.263 177.097 475.317 176.841 475.317 176.574C475.317 176.267 475.243 176.001 475.096 175.777C474.951 175.553 474.752 175.379 474.499 175.257C474.246 175.135 473.962 175.074 473.647 175.074C473.312 175.074 473.019 175.143 472.769 175.283C472.522 175.419 472.33 175.611 472.194 175.858C472.06 176.105 471.993 176.395 471.993 176.727H470.988C470.988 176.216 471.106 175.767 471.341 175.381C471.577 174.994 471.898 174.693 472.304 174.477C472.714 174.261 473.172 174.153 473.681 174.153C474.192 174.153 474.645 174.261 475.04 174.477C475.435 174.693 475.745 174.984 475.969 175.351C476.194 175.717 476.306 176.125 476.306 176.574C476.306 176.895 476.248 177.209 476.131 177.516C476.017 177.82 475.819 178.159 475.535 178.534C475.253 178.906 474.863 179.361 474.363 179.898L472.402 181.994V182.062H476.459V183H470.954ZM481.066 183.119C480.424 183.119 479.877 182.945 479.425 182.595C478.973 182.243 478.628 181.733 478.39 181.065C478.151 180.395 478.032 179.585 478.032 178.636C478.032 177.693 478.151 176.888 478.39 176.22C478.631 175.55 478.978 175.038 479.429 174.686C479.884 174.331 480.429 174.153 481.066 174.153C481.702 174.153 482.246 174.331 482.698 174.686C483.152 175.038 483.499 175.55 483.738 176.22C483.979 176.888 484.1 177.693 484.1 178.636C484.1 179.585 483.981 180.395 483.742 181.065C483.503 181.733 483.158 182.243 482.706 182.595C482.255 182.945 481.708 183.119 481.066 183.119ZM481.066 182.182C481.702 182.182 482.196 181.875 482.549 181.261C482.901 180.648 483.077 179.773 483.077 178.636C483.077 177.881 482.996 177.237 482.834 176.706C482.675 176.175 482.445 175.77 482.144 175.491C481.846 175.213 481.486 175.074 481.066 175.074C480.435 175.074 479.942 175.385 479.587 176.007C479.232 176.626 479.054 177.503 479.054 178.636C479.054 179.392 479.134 180.034 479.293 180.562C479.452 181.091 479.681 181.493 479.979 181.768C480.28 182.044 480.642 182.182 481.066 182.182ZM485.719 183V182.233L488.6 179.08C488.938 178.71 489.216 178.389 489.435 178.116C489.654 177.841 489.816 177.582 489.921 177.341C490.029 177.097 490.083 176.841 490.083 176.574C490.083 176.267 490.009 176.001 489.861 175.777C489.716 175.553 489.517 175.379 489.265 175.257C489.012 175.135 488.728 175.074 488.412 175.074C488.077 175.074 487.785 175.143 487.535 175.283C487.287 175.419 487.096 175.611 486.959 175.858C486.826 176.105 486.759 176.395 486.759 176.727H485.753C485.753 176.216 485.871 175.767 486.107 175.381C486.343 174.994 486.664 174.693 487.07 174.477C487.479 174.261 487.938 174.153 488.446 174.153C488.958 174.153 489.411 174.261 489.806 174.477C490.201 174.693 490.51 174.984 490.735 175.351C490.959 175.717 491.071 176.125 491.071 176.574C491.071 176.895 491.013 177.209 490.897 177.516C490.783 177.82 490.584 178.159 490.3 178.534C490.019 178.906 489.628 179.361 489.128 179.898L487.168 181.994V182.062H491.225V183H485.719ZM492.985 183V182.233L495.866 179.08C496.204 178.71 496.482 178.389 496.701 178.116C496.919 177.841 497.081 177.582 497.187 177.341C497.294 177.097 497.348 176.841 497.348 176.574C497.348 176.267 497.275 176.001 497.127 175.777C496.982 175.553 496.783 175.379 496.53 175.257C496.277 175.135 495.993 175.074 495.678 175.074C495.343 175.074 495.05 175.143 494.8 175.283C494.553 175.419 494.361 175.611 494.225 175.858C494.091 176.105 494.025 176.395 494.025 176.727H493.019C493.019 176.216 493.137 175.767 493.373 175.381C493.608 174.994 493.929 174.693 494.336 174.477C494.745 174.261 495.204 174.153 495.712 174.153C496.223 174.153 496.677 174.261 497.071 174.477C497.466 174.693 497.776 174.984 498 175.351C498.225 175.717 498.337 176.125 498.337 176.574C498.337 176.895 498.279 177.209 498.162 177.516C498.049 177.82 497.85 178.159 497.566 178.534C497.285 178.906 496.894 179.361 496.394 179.898L494.434 181.994V182.062H498.491V183H492.985Z" fill="white"/>
<path d="M533.156 168.456V167" stroke="black"/>
<path d="M519.246 182.7V181.933L522.126 178.78C522.464 178.41 522.743 178.089 522.961 177.817C523.18 177.541 523.342 177.283 523.447 177.041C523.555 176.797 523.609 176.541 523.609 176.274C523.609 175.967 523.535 175.702 523.388 175.477C523.243 175.253 523.044 175.079 522.791 174.957C522.538 174.835 522.254 174.774 521.939 174.774C521.603 174.774 521.311 174.844 521.061 174.983C520.814 175.119 520.622 175.311 520.486 175.558C520.352 175.805 520.285 176.095 520.285 176.427H519.28C519.28 175.916 519.398 175.467 519.633 175.081C519.869 174.695 520.19 174.393 520.596 174.177C521.005 173.962 521.464 173.854 521.973 173.854C522.484 173.854 522.937 173.962 523.332 174.177C523.727 174.393 524.037 174.685 524.261 175.051C524.486 175.418 524.598 175.825 524.598 176.274C524.598 176.595 524.54 176.909 524.423 177.216C524.309 177.52 524.111 177.859 523.826 178.234C523.545 178.606 523.155 179.061 522.655 179.598L520.694 181.695V181.763H524.751V182.7H519.246ZM529.358 182.82C528.716 182.82 528.169 182.645 527.717 182.295C527.265 181.943 526.92 181.433 526.682 180.766C526.443 180.095 526.324 179.285 526.324 178.337C526.324 177.393 526.443 176.588 526.682 175.92C526.923 175.25 527.27 174.739 527.721 174.386C528.176 174.031 528.721 173.854 529.358 173.854C529.994 173.854 530.538 174.031 530.99 174.386C531.444 174.739 531.791 175.25 532.03 175.92C532.271 176.588 532.392 177.393 532.392 178.337C532.392 179.285 532.273 180.095 532.034 180.766C531.795 181.433 531.45 181.943 530.998 182.295C530.547 182.645 530 182.82 529.358 182.82ZM529.358 181.882C529.994 181.882 530.488 181.575 530.841 180.962C531.193 180.348 531.369 179.473 531.369 178.337C531.369 177.581 531.288 176.937 531.126 176.406C530.967 175.875 530.737 175.47 530.436 175.192C530.138 174.913 529.778 174.774 529.358 174.774C528.727 174.774 528.234 175.085 527.879 175.707C527.524 176.327 527.346 177.203 527.346 178.337C527.346 179.092 527.426 179.734 527.585 180.263C527.744 180.791 527.973 181.193 528.271 181.469C528.572 181.744 528.934 181.882 529.358 181.882ZM534.011 182.7V181.933L536.892 178.78C537.23 178.41 537.508 178.089 537.727 177.817C537.946 177.541 538.108 177.283 538.213 177.041C538.321 176.797 538.375 176.541 538.375 176.274C538.375 175.967 538.301 175.702 538.153 175.477C538.008 175.253 537.809 175.079 537.557 174.957C537.304 174.835 537.02 174.774 536.704 174.774C536.369 174.774 536.076 174.844 535.826 174.983C535.579 175.119 535.388 175.311 535.251 175.558C535.118 175.805 535.051 176.095 535.051 176.427H534.045C534.045 175.916 534.163 175.467 534.399 175.081C534.635 174.695 534.956 174.393 535.362 174.177C535.771 173.962 536.23 173.854 536.738 173.854C537.25 173.854 537.703 173.962 538.098 174.177C538.493 174.393 538.802 174.685 539.027 175.051C539.251 175.418 539.363 175.825 539.363 176.274C539.363 176.595 539.305 176.909 539.189 177.216C539.075 177.52 538.876 177.859 538.592 178.234C538.311 178.606 537.92 179.061 537.42 179.598L535.46 181.695V181.763H539.517V182.7H534.011ZM544.226 182.82C543.663 182.82 543.162 182.723 542.721 182.53C542.284 182.337 541.936 182.068 541.677 181.724C541.422 181.378 541.282 180.976 541.26 180.518H542.334C542.356 180.8 542.453 181.043 542.623 181.247C542.794 181.449 543.017 181.605 543.292 181.716C543.568 181.827 543.873 181.882 544.209 181.882C544.584 181.882 544.916 181.817 545.206 181.686C545.496 181.555 545.723 181.373 545.888 181.141C546.052 180.908 546.135 180.638 546.135 180.331C546.135 180.01 546.055 179.727 545.896 179.483C545.737 179.236 545.504 179.043 545.197 178.903C544.89 178.764 544.515 178.695 544.072 178.695H543.373V177.757H544.072C544.419 177.757 544.723 177.695 544.984 177.57C545.248 177.445 545.454 177.268 545.602 177.041C545.753 176.814 545.828 176.547 545.828 176.24C545.828 175.945 545.763 175.687 545.632 175.469C545.501 175.25 545.317 175.079 545.078 174.957C544.842 174.835 544.564 174.774 544.243 174.774C543.942 174.774 543.657 174.829 543.39 174.94C543.126 175.048 542.91 175.206 542.743 175.413C542.575 175.618 542.484 175.865 542.47 176.155H541.447C541.464 175.697 541.602 175.297 541.861 174.953C542.119 174.606 542.457 174.337 542.875 174.143C543.295 173.95 543.757 173.854 544.26 173.854C544.799 173.854 545.263 173.963 545.649 174.182C546.035 174.398 546.332 174.683 546.54 175.038C546.747 175.393 546.851 175.777 546.851 176.189C546.851 176.68 546.721 177.099 546.463 177.446C546.207 177.793 545.859 178.033 545.419 178.166V178.234C545.97 178.325 546.4 178.56 546.71 178.937C547.02 179.312 547.174 179.777 547.174 180.331C547.174 180.805 547.045 181.231 546.787 181.609C546.531 181.984 546.182 182.28 545.738 182.496C545.295 182.712 544.791 182.82 544.226 182.82Z" fill="white"/>
<path d="M587.734 168.182V167" stroke="black"/>
<path d="M561.31 182.005V181.238L564.191 178.084C564.529 177.715 564.807 177.394 565.026 177.121C565.245 176.846 565.407 176.587 565.512 176.346C565.62 176.101 565.674 175.846 565.674 175.579C565.674 175.272 565.6 175.006 565.452 174.782C565.307 174.557 565.108 174.384 564.855 174.262C564.603 174.14 564.318 174.079 564.003 174.079C563.668 174.079 563.375 174.148 563.125 174.288C562.878 174.424 562.686 174.616 562.55 174.863C562.417 175.11 562.35 175.4 562.35 175.732H561.344C561.344 175.221 561.462 174.772 561.698 174.386C561.934 173.999 562.255 173.698 562.661 173.482C563.07 173.266 563.529 173.158 564.037 173.158C564.549 173.158 565.002 173.266 565.397 173.482C565.792 173.698 566.101 173.989 566.326 174.356C566.55 174.722 566.662 175.13 566.662 175.579C566.662 175.9 566.604 176.214 566.488 176.521C566.374 176.824 566.175 177.164 565.891 177.539C565.61 177.911 565.219 178.366 564.719 178.903L562.759 180.999V181.067H566.816V182.005H561.31ZM571.422 182.124C570.78 182.124 570.233 181.949 569.782 181.6C569.33 181.248 568.985 180.738 568.746 180.07C568.507 179.4 568.388 178.59 568.388 177.641C568.388 176.698 568.507 175.893 568.746 175.225C568.988 174.555 569.334 174.043 569.786 173.691C570.24 173.336 570.786 173.158 571.422 173.158C572.059 173.158 572.603 173.336 573.054 173.691C573.509 174.043 573.855 174.555 574.094 175.225C574.336 175.893 574.456 176.698 574.456 177.641C574.456 178.59 574.337 179.4 574.098 180.07C573.86 180.738 573.515 181.248 573.063 181.6C572.611 181.949 572.064 182.124 571.422 182.124ZM571.422 181.187C572.059 181.187 572.553 180.88 572.905 180.266C573.257 179.653 573.434 178.778 573.434 177.641C573.434 176.886 573.353 176.242 573.191 175.711C573.032 175.18 572.801 174.775 572.5 174.496C572.202 174.218 571.843 174.079 571.422 174.079C570.792 174.079 570.299 174.39 569.943 175.012C569.588 175.631 569.411 176.508 569.411 177.641C569.411 178.397 569.49 179.039 569.649 179.567C569.809 180.096 570.037 180.498 570.336 180.773C570.637 181.049 570.999 181.187 571.422 181.187ZM576.076 182.005V181.238L578.956 178.084C579.294 177.715 579.573 177.394 579.792 177.121C580.01 176.846 580.172 176.587 580.277 176.346C580.385 176.101 580.439 175.846 580.439 175.579C580.439 175.272 580.365 175.006 580.218 174.782C580.073 174.557 579.874 174.384 579.621 174.262C579.368 174.14 579.084 174.079 578.769 174.079C578.434 174.079 578.141 174.148 577.891 174.288C577.644 174.424 577.452 174.616 577.316 174.863C577.182 175.11 577.115 175.4 577.115 175.732H576.11C576.11 175.221 576.228 174.772 576.463 174.386C576.699 173.999 577.02 173.698 577.426 173.482C577.836 173.266 578.294 173.158 578.803 173.158C579.314 173.158 579.767 173.266 580.162 173.482C580.557 173.698 580.867 173.989 581.091 174.356C581.316 174.722 581.428 175.13 581.428 175.579C581.428 175.9 581.37 176.214 581.253 176.521C581.14 176.824 580.941 177.164 580.657 177.539C580.375 177.911 579.985 178.366 579.485 178.903L577.524 180.999V181.067H581.581V182.005H576.076ZM582.949 180.215V179.346L586.784 173.278H587.415V174.624H586.989L584.091 179.209V179.278H589.256V180.215H582.949ZM587.057 182.005V179.951V179.546V173.278H588.063V182.005H587.057Z" fill="white"/>
<path d="M36.7031 4.09961V167.3" stroke="black"/>
<path d="M31.2031 167.3H36.7091" stroke="black"/>
<path d="M22.8648 171.525C22.2227 171.525 21.6758 171.35 21.2241 171C20.7724 170.648 20.4273 170.138 20.1886 169.471C19.95 168.8 19.8307 167.991 19.8307 167.042C19.8307 166.098 19.95 165.293 20.1886 164.625C20.4301 163.955 20.7767 163.444 21.2284 163.091C21.6829 162.736 22.2284 162.559 22.8648 162.559C23.5011 162.559 24.0452 162.736 24.4969 163.091C24.9514 163.444 25.298 163.955 25.5366 164.625C25.7781 165.293 25.8988 166.098 25.8988 167.042C25.8988 167.991 25.7795 168.8 25.5409 169.471C25.3023 170.138 24.9571 170.648 24.5054 171C24.0537 171.35 23.5068 171.525 22.8648 171.525ZM22.8648 170.587C23.5011 170.587 23.9954 170.28 24.3477 169.667C24.7 169.053 24.8761 168.178 24.8761 167.042C24.8761 166.286 24.7952 165.642 24.6332 165.111C24.4741 164.58 24.244 164.175 23.9429 163.897C23.6446 163.618 23.2852 163.479 22.8648 163.479C22.2341 163.479 21.7412 163.79 21.3861 164.412C21.0309 165.032 20.8534 165.908 20.8534 167.042C20.8534 167.797 20.9329 168.439 21.092 168.968C21.2511 169.496 21.4798 169.898 21.7781 170.174C22.0792 170.449 22.4415 170.587 22.8648 170.587Z" fill="white"/>
<path d="M31.2031 122.319H36.7091" stroke="black"/>
<path d="M8.97827 128.605V127.966L11.3788 125.338C11.6606 125.031 11.8926 124.763 12.0749 124.536C12.2572 124.306 12.3921 124.091 12.4797 123.89C12.5697 123.686 12.6146 123.473 12.6146 123.25C12.6146 122.995 12.5531 122.773 12.43 122.586C12.3092 122.399 12.1435 122.255 11.9328 122.153C11.7221 122.051 11.4854 122 11.2226 122C10.9432 122 10.6994 122.058 10.4911 122.174C10.2851 122.288 10.1253 122.448 10.0116 122.654C9.90038 122.86 9.84475 123.101 9.84475 123.378H9.00668C9.00668 122.952 9.10493 122.578 9.30142 122.256C9.49792 121.934 9.76544 121.683 10.104 121.503C10.4449 121.323 10.8272 121.233 11.251 121.233C11.6771 121.233 12.0547 121.323 12.3838 121.503C12.7129 121.683 12.9709 121.926 13.158 122.231C13.345 122.537 13.4385 122.876 13.4385 123.25C13.4385 123.518 13.39 123.779 13.2929 124.035C13.1982 124.288 13.0325 124.571 12.7957 124.884C12.5614 125.194 12.2358 125.573 11.8192 126.02L10.1857 127.767V127.824H13.5663V128.605H8.97827ZM17.3057 128.705C16.889 128.705 16.5138 128.622 16.18 128.456C15.8462 128.291 15.5786 128.063 15.3774 127.775C15.1762 127.486 15.0661 127.157 15.0472 126.787H15.8994C15.9326 127.116 16.0817 127.389 16.3469 127.604C16.6144 127.817 16.934 127.924 17.3057 127.924C17.604 127.924 17.8691 127.854 18.1011 127.714C18.3355 127.574 18.519 127.383 18.6516 127.139C18.7865 126.893 18.854 126.614 18.854 126.304C18.854 125.987 18.7841 125.704 18.6445 125.456C18.5072 125.205 18.3178 125.007 18.0763 124.863C17.8348 124.718 17.559 124.645 17.2489 124.642C17.0263 124.64 16.7979 124.674 16.5635 124.745C16.3291 124.814 16.1362 124.903 15.9847 125.012L15.1608 124.912L15.6011 121.333H19.3795V122.114H16.3398L16.0841 124.259H16.1267C16.2759 124.141 16.4629 124.042 16.6878 123.964C16.9127 123.886 17.1471 123.847 17.3909 123.847C17.836 123.847 18.2325 123.953 18.5805 124.167C18.9309 124.377 19.2055 124.666 19.4044 125.033C19.6056 125.4 19.7063 125.819 19.7063 126.29C19.7063 126.754 19.6021 127.168 19.3938 127.533C19.1878 127.895 18.9037 128.182 18.5415 128.392C18.1793 128.601 17.7673 128.705 17.3057 128.705ZM23.4891 128.705C22.9541 128.705 22.4983 128.559 22.1219 128.268C21.7455 127.975 21.4578 127.55 21.259 126.993C21.0601 126.435 20.9607 125.76 20.9607 124.969C20.9607 124.183 21.0601 123.512 21.259 122.956C21.4602 122.397 21.749 121.971 22.1255 121.677C22.5043 121.381 22.9588 121.233 23.4891 121.233C24.0194 121.233 24.4728 121.381 24.8492 121.677C25.228 121.971 25.5168 122.397 25.7157 122.956C25.9169 123.512 26.0175 124.183 26.0175 124.969C26.0175 125.76 25.9181 126.435 25.7192 126.993C25.5203 127.55 25.2327 127.975 24.8563 128.268C24.4799 128.559 24.0241 128.705 23.4891 128.705ZM23.4891 127.924C24.0194 127.924 24.4313 127.668 24.7249 127.157C25.0185 126.645 25.1652 125.916 25.1652 124.969C25.1652 124.339 25.0978 123.803 24.9628 123.36C24.8302 122.918 24.6385 122.58 24.3875 122.348C24.139 122.116 23.8395 122 23.4891 122C22.9635 122 22.5528 122.26 22.2569 122.778C21.9609 123.294 21.813 124.025 21.813 124.969C21.813 125.599 21.8793 126.134 22.0118 126.574C22.1444 127.015 22.335 127.35 22.5836 127.579C22.8345 127.809 23.1364 127.924 23.4891 127.924Z" fill="white"/>
<path d="M31.2031 81.4668H36.7091" stroke="black"/>
<path d="M11.0557 87.9041C10.639 87.9041 10.2638 87.8213 9.92997 87.6555C9.59617 87.4898 9.32865 87.2625 9.12742 86.9737C8.92619 86.6849 8.8161 86.3558 8.79716 85.9865H9.64943C9.68258 86.3156 9.83173 86.5878 10.0969 86.8033C10.3644 87.0163 10.684 87.1229 11.0557 87.1229C11.354 87.1229 11.6191 87.053 11.8511 86.9134C12.0855 86.7737 12.269 86.5819 12.4016 86.3381C12.5365 86.0919 12.604 85.8137 12.604 85.5036C12.604 85.1863 12.5341 84.9034 12.3945 84.6548C12.2572 84.4039 12.0678 84.2062 11.8263 84.0618C11.5848 83.9174 11.309 83.844 10.9989 83.8416C10.7763 83.8393 10.5479 83.8736 10.3135 83.9446C10.0791 84.0133 9.88618 84.102 9.73466 84.2109L8.9108 84.1115L9.35114 80.532H13.1295V81.3132H10.0898L9.83409 83.4581H9.87671C10.0259 83.3397 10.2129 83.2415 10.4378 83.1634C10.6627 83.0852 10.8971 83.0462 11.1409 83.0462C11.586 83.0462 11.9825 83.1527 12.3305 83.3658C12.6809 83.5765 12.9555 83.8653 13.1544 84.2322C13.3556 84.5992 13.4563 85.0182 13.4563 85.4893C13.4563 85.9534 13.3521 86.3677 13.1438 86.7322C12.9378 87.0945 12.6537 87.3809 12.2915 87.5916C11.9293 87.8 11.5173 87.9041 11.0557 87.9041ZM17.2391 87.9041C16.7041 87.9041 16.2483 87.7585 15.8719 87.4673C15.4955 87.1738 15.2078 86.7488 15.009 86.1925C14.8101 85.6338 14.7107 84.959 14.7107 84.1683C14.7107 83.3823 14.8101 82.7112 15.009 82.1548C15.2102 81.5961 15.499 81.17 15.8755 80.8764C16.2543 80.5805 16.7088 80.4325 17.2391 80.4325C17.7694 80.4325 18.2228 80.5805 18.5992 80.8764C18.978 81.17 19.2668 81.5961 19.4657 82.1548C19.6669 82.7112 19.7675 83.3823 19.7675 84.1683C19.7675 84.959 19.6681 85.6338 19.4692 86.1925C19.2703 86.7488 18.9827 87.1738 18.6063 87.4673C18.2299 87.7585 17.7741 87.9041 17.2391 87.9041ZM17.2391 87.1229C17.7694 87.1229 18.1813 86.8672 18.4749 86.3558C18.7685 85.8445 18.9152 85.1153 18.9152 84.1683C18.9152 83.5386 18.8478 83.0024 18.7128 82.5597C18.5802 82.117 18.3885 81.7796 18.1375 81.5476C17.889 81.3156 17.5895 81.1996 17.2391 81.1996C16.7135 81.1996 16.3028 81.4588 16.0069 81.9773C15.7109 82.4934 15.563 83.2237 15.563 84.1683C15.563 84.7981 15.6293 85.3331 15.7618 85.7734C15.8944 86.2138 16.085 86.5488 16.3336 86.7784C16.5845 87.008 16.8864 87.1229 17.2391 87.1229ZM23.4891 87.9041C22.9541 87.9041 22.4983 87.7585 22.1219 87.4673C21.7455 87.1738 21.4578 86.7488 21.259 86.1925C21.0601 85.6338 20.9607 84.959 20.9607 84.1683C20.9607 83.3823 21.0601 82.7112 21.259 82.1548C21.4602 81.5961 21.749 81.17 22.1255 80.8764C22.5043 80.5805 22.9588 80.4325 23.4891 80.4325C24.0194 80.4325 24.4728 80.5805 24.8492 80.8764C25.228 81.17 25.5168 81.5961 25.7157 82.1548C25.9169 82.7112 26.0175 83.3823 26.0175 84.1683C26.0175 84.959 25.9181 85.6338 25.7192 86.1925C25.5203 86.7488 25.2327 87.1738 24.8563 87.4673C24.4799 87.7585 24.0241 87.9041 23.4891 87.9041ZM23.4891 87.1229C24.0194 87.1229 24.4313 86.8672 24.7249 86.3558C25.0185 85.8445 25.1652 85.1153 25.1652 84.1683C25.1652 83.5386 25.0978 83.0024 24.9628 82.5597C24.8302 82.117 24.6385 81.7796 24.3875 81.5476C24.139 81.3156 23.8395 81.1996 23.4891 81.1996C22.9635 81.1996 22.5528 81.4588 22.2569 81.9773C21.9609 82.4934 21.813 83.2237 21.813 84.1683C21.813 84.7981 21.8793 85.3331 22.0118 85.7734C22.1444 86.2138 22.335 86.5488 22.5836 86.7784C22.8345 87.008 23.1364 87.1229 23.4891 87.1229Z" fill="white"/>
<path d="M31.1953 44.8994H36.7013" stroke="black"/>
<path d="M10.0309 47L13.2837 40.5653V40.5085H9.53374V39.7273H14.1928V40.5511L10.9542 47H10.0309ZM17.6916 47.0994C17.2749 47.0994 16.8997 47.0166 16.5659 46.8509C16.2321 46.6851 15.9645 46.4579 15.7633 46.169C15.5621 45.8802 15.452 45.5511 15.4331 45.1818H16.2853C16.3185 45.5109 16.4676 45.7831 16.7328 45.9986C17.0003 46.2116 17.3199 46.3182 17.6916 46.3182C17.9899 46.3182 18.255 46.2483 18.487 46.1087C18.7214 45.969 18.9049 45.7772 19.0375 45.5334C19.1724 45.2872 19.2399 45.009 19.2399 44.6989C19.2399 44.3816 19.17 44.0987 19.0304 43.8501C18.8931 43.5992 18.7037 43.4015 18.4622 43.2571C18.2207 43.1127 17.9449 43.0393 17.6348 43.0369C17.4122 43.0346 17.1838 43.0689 16.9494 43.1399C16.715 43.2086 16.5221 43.2973 16.3706 43.4062L15.5467 43.3068L15.987 39.7273H19.7654V40.5085H16.7257L16.47 42.6534H16.5126C16.6618 42.535 16.8488 42.4368 17.0737 42.3587C17.2986 42.2805 17.533 42.2415 17.7768 42.2415C18.2219 42.2415 18.6184 42.348 18.9664 42.5611C19.3168 42.7718 19.5914 43.0606 19.7903 43.4276C19.9915 43.7945 20.0922 44.2135 20.0922 44.6847C20.0922 45.1487 19.988 45.563 19.7797 45.9276C19.5737 46.2898 19.2896 46.5762 18.9274 46.7869C18.5652 46.9953 18.1532 47.0994 17.6916 47.0994ZM23.875 47.0994C23.34 47.0994 22.8842 46.9538 22.5078 46.6626C22.1314 46.3691 21.8438 45.9441 21.6449 45.3878C21.446 44.8291 21.3466 44.1544 21.3466 43.3636C21.3466 42.5777 21.446 41.9065 21.6449 41.3501C21.8461 40.7914 22.1349 40.3653 22.5114 40.0717C22.8902 39.7758 23.3447 39.6278 23.875 39.6278C24.4053 39.6278 24.8587 39.7758 25.2351 40.0717C25.6139 40.3653 25.9027 40.7914 26.1016 41.3501C26.3028 41.9065 26.4034 42.5777 26.4034 43.3636C26.4034 44.1544 26.304 44.8291 26.1051 45.3878C25.9062 45.9441 25.6186 46.3691 25.2422 46.6626C24.8658 46.9538 24.41 47.0994 23.875 47.0994ZM23.875 46.3182C24.4053 46.3182 24.8172 46.0625 25.1108 45.5511C25.4044 45.0398 25.5511 44.3106 25.5511 43.3636C25.5511 42.7339 25.4837 42.1977 25.3487 41.755C25.2161 41.3123 25.0244 40.9749 24.7734 40.7429C24.5249 40.5109 24.2254 40.3949 23.875 40.3949C23.3494 40.3949 22.9387 40.6541 22.6428 41.1726C22.3468 41.6887 22.1989 42.419 22.1989 43.3636C22.1989 43.9934 22.2652 44.5284 22.3977 44.9688C22.5303 45.4091 22.7209 45.7441 22.9695 45.9737C23.2204 46.2034 23.5223 46.3182 23.875 46.3182Z" fill="white"/>
<path d="M31.2031 4.09961H36.7091" stroke="black"/>
<path d="M6.5235 3.21165V10.4844H5.64282V4.13494H5.6002L3.82463 5.31392V4.41903L5.64282 3.21165H6.5235ZM10.9873 10.5838C10.4522 10.5838 9.99651 10.4382 9.62009 10.147C9.24367 9.85346 8.95603 9.4285 8.75716 8.87216C8.5583 8.31345 8.45887 7.63873 8.45887 6.84801C8.45887 6.06203 8.5583 5.39086 8.75716 4.83452C8.95839 4.2758 9.24722 3.84967 9.62364 3.55611C10.0024 3.26018 10.457 3.11222 10.9873 3.11222C11.5176 3.11222 11.9709 3.26018 12.3474 3.55611C12.7261 3.84967 13.015 4.2758 13.2138 4.83452C13.4151 5.39086 13.5157 6.06203 13.5157 6.84801C13.5157 7.63873 13.4163 8.31345 13.2174 8.87216C13.0185 9.4285 12.7309 9.85346 12.3545 10.147C11.978 10.4382 11.5223 10.5838 10.9873 10.5838ZM10.9873 9.80256C11.5176 9.80256 11.9295 9.54687 12.2231 9.03551C12.5166 8.52415 12.6634 7.79498 12.6634 6.84801C12.6634 6.21828 12.5959 5.68205 12.461 5.23935C12.3284 4.79664 12.1367 4.45928 11.8857 4.22727C11.6371 3.99527 11.3377 3.87926 10.9873 3.87926C10.4617 3.87926 10.051 4.13849 9.75503 4.65696C9.4591 5.17306 9.31114 5.90341 9.31114 6.84801C9.31114 7.47775 9.37743 8.01278 9.51 8.45312C9.64258 8.89347 9.83316 9.22846 10.0817 9.4581C10.3327 9.68774 10.6345 9.80256 10.9873 9.80256ZM17.2373 10.5838C16.7022 10.5838 16.2465 10.4382 15.8701 10.147C15.4937 9.85346 15.206 9.4285 15.0072 8.87216C14.8083 8.31345 14.7089 7.63873 14.7089 6.84801C14.7089 6.06203 14.8083 5.39086 15.0072 4.83452C15.2084 4.2758 15.4972 3.84967 15.8736 3.55611C16.2524 3.26018 16.707 3.11222 17.2373 3.11222C17.7676 3.11222 18.2209 3.26018 18.5974 3.55611C18.9761 3.84967 19.265 4.2758 19.4638 4.83452C19.6651 5.39086 19.7657 6.06203 19.7657 6.84801C19.7657 7.63873 19.6663 8.31345 19.4674 8.87216C19.2685 9.4285 18.9809 9.85346 18.6045 10.147C18.228 10.4382 17.7723 10.5838 17.2373 10.5838ZM17.2373 9.80256C17.7676 9.80256 18.1795 9.54687 18.4731 9.03551C18.7666 8.52415 18.9134 7.79498 18.9134 6.84801C18.9134 6.21828 18.8459 5.68205 18.711 5.23935C18.5784 4.79664 18.3867 4.45928 18.1357 4.22727C17.8871 3.99527 17.5877 3.87926 17.2373 3.87926C16.7117 3.87926 16.301 4.13849 16.005 4.65696C15.7091 5.17306 15.5611 5.90341 15.5611 6.84801C15.5611 7.47775 15.6274 8.01278 15.76 8.45312C15.8926 8.89347 16.0832 9.22846 16.3317 9.4581C16.5827 9.68774 16.8845 9.80256 17.2373 9.80256ZM23.4873 10.5838C22.9522 10.5838 22.4965 10.4382 22.1201 10.147C21.7437 9.85346 21.456 9.4285 21.2572 8.87216C21.0583 8.31345 20.9589 7.63873 20.9589 6.84801C20.9589 6.06203 21.0583 5.39086 21.2572 4.83452C21.4584 4.2758 21.7472 3.84967 22.1236 3.55611C22.5024 3.26018 22.957 3.11222 23.4873 3.11222C24.0176 3.11222 24.4709 3.26018 24.8474 3.55611C25.2261 3.84967 25.515 4.2758 25.7138 4.83452C25.9151 5.39086 26.0157 6.06203 26.0157 6.84801C26.0157 7.63873 25.9163 8.31345 25.7174 8.87216C25.5185 9.4285 25.2309 9.85346 24.8545 10.147C24.478 10.4382 24.0223 10.5838 23.4873 10.5838ZM23.4873 9.80256C24.0176 9.80256 24.4295 9.54687 24.7231 9.03551C25.0166 8.52415 25.1634 7.79498 25.1634 6.84801C25.1634 6.21828 25.0959 5.68205 24.961 5.23935C24.8284 4.79664 24.6367 4.45928 24.3857 4.22727C24.1371 3.99527 23.8377 3.87926 23.4873 3.87926C22.9617 3.87926 22.551 4.13849 22.255 4.65696C21.9591 5.17306 21.8111 5.90341 21.8111 6.84801C21.8111 7.47775 21.8774 8.01278 22.01 8.45312C22.1426 8.89347 22.3332 9.22846 22.5817 9.4581C22.8327 9.68774 23.1345 9.80256 23.4873 9.80256Z" fill="white"/>
<path d="M36.7031 167.3H585.467" stroke="#CCCCCC"/>
<path d="M36.7031 126.5H585.467" stroke="#CCCCCC"/>
<path d="M36.7031 85.6992H585.467" stroke="#CCCCCC"/>
<path d="M36.7031 44.8994H585.467" stroke="#CCCCCC"/>
<path d="M36.7031 4.09961H585.467" stroke="#CCCCCC"/>
<path d="M36.7031 4.09961V167.3" stroke="#CCCCCC"/>
<path d="M86.5938 4.09961V167.3" stroke="#CCCCCC"/>
<path d="M136.477 4.09961V167.3" stroke="#CCCCCC"/>
<path d="M186.367 4.09961V167.3" stroke="#CCCCCC"/>
<path d="M236.25 4.09961V167.3" stroke="#CCCCCC"/>
<path d="M286.141 4.09961V167.3" stroke="#CCCCCC"/>
<path d="M336.031 4.09961V167.3" stroke="#CCCCCC"/>
<path d="M385.914 4.09961V167.3" stroke="#CCCCCC"/>
<path d="M435.805 4.09961V167.3" stroke="#CCCCCC"/>
<path d="M485.688 4.09961V167.3" stroke="#CCCCCC"/>
<path d="M535.578 4.09961V167.3" stroke="#CCCCCC"/>
<path d="M585.469 4.09961V167.3" stroke="#CCCCCC"/>
<path d="M485.69 37.6776C487.211 37.6776 488.443 36.3076 488.443 34.6176C488.443 32.9276 487.211 31.5576 485.69 31.5576C484.17 31.5576 482.938 32.9276 482.938 34.6176C482.938 36.3076 484.17 37.6776 485.69 37.6776Z" fill="#4EDEFB" fill-opacity="0.6"/>
<path d="M36.7031 11.7695L86.5907 59.5871L136.478 105.773L186.366 28.4159L236.254 153.264L286.141 131.885L336.029 17.6447L385.916 128.947L435.804 119.808L485.691 34.6175L535.579 128.784L585.467 61.8719V167.299H535.579H485.691H435.804H385.916H336.029H286.141H236.254H186.366H136.478H86.5907H36.7031V11.7695Z" fill="#35A8FD" fill-opacity="0.6"/>
<path d="M36.7061 14.83C38.2266 14.83 39.4591 13.46 39.4591 11.77C39.4591 10.08 38.2266 8.70996 36.7061 8.70996C35.1857 8.70996 33.9531 10.08 33.9531 11.77C33.9531 13.46 35.1857 14.83 36.7061 14.83Z" fill="#35A8FD" fill-opacity="0.6"/>
<path d="M136.48 108.833C138 108.833 139.233 107.463 139.233 105.773C139.233 104.083 138 102.713 136.48 102.713C134.959 102.713 133.727 104.083 133.727 105.773C133.727 107.463 134.959 108.833 136.48 108.833Z" fill="#35A8FD" fill-opacity="0.6"/>
<path d="M186.37 31.4764C187.891 31.4764 189.123 30.1064 189.123 28.4164C189.123 26.7265 187.891 25.3564 186.37 25.3564C184.85 25.3564 183.617 26.7265 183.617 28.4164C183.617 30.1064 184.85 31.4764 186.37 31.4764Z" fill="#35A8FD" fill-opacity="0.6"/>
<path d="M336.034 20.705C337.555 20.705 338.787 19.335 338.787 17.645C338.787 15.955 337.555 14.585 336.034 14.585C334.514 14.585 333.281 15.955 333.281 17.645C333.281 19.335 334.514 20.705 336.034 20.705Z" fill="#35A8FD" fill-opacity="0.6"/>
<path d="M485.69 37.6776C487.211 37.6776 488.443 36.3076 488.443 34.6176C488.443 32.9276 487.211 31.5576 485.69 31.5576C484.17 31.5576 482.938 32.9276 482.938 34.6176C482.938 36.3076 484.17 37.6776 485.69 37.6776Z" fill="#35A8FD" fill-opacity="0.6"/>
<path d="M585.472 64.9325C586.992 64.9325 588.225 63.5625 588.225 61.8725C588.225 60.1825 586.992 58.8125 585.472 58.8125C583.951 58.8125 582.719 60.1825 582.719 61.8725C582.719 63.5625 583.951 64.9325 585.472 64.9325Z" fill="#35A8FD" fill-opacity="0.6"/>
</svg>
