<svg width="62" height="60" viewBox="0 0 62 60" fill="none" xmlns="http://www.w3.org/2000/svg">
<ellipse cx="30.975" cy="30" rx="30.6" ry="30" fill="white"/>
<path d="M20.5281 35.1677C20.9914 35.1677 21.4357 35.3482 21.7633 35.6693C22.0909 35.9905 22.2749 36.4261 22.2749 36.8803V40.3054C22.2749 40.7596 22.0909 41.1952 21.7633 41.5164C21.4357 41.8376 20.9914 42.018 20.5281 42.018C20.0648 42.018 19.6205 41.8376 19.2929 41.5164C18.9653 41.1952 18.7812 40.7596 18.7812 40.3054V36.8803C18.7812 36.4261 18.9653 35.9905 19.2929 35.6693C19.6205 35.3482 20.0648 35.1677 20.5281 35.1677ZM27.5154 28.3174C27.9787 28.3174 28.423 28.4979 28.7506 28.819C29.0782 29.1402 29.2622 29.5758 29.2622 30.03V40.3054C29.2622 40.7596 29.0782 41.1952 28.7506 41.5164C28.423 41.8376 27.9787 42.018 27.5154 42.018C27.0521 42.018 26.6078 41.8376 26.2802 41.5164C25.9526 41.1952 25.7685 40.7596 25.7685 40.3054V30.03C25.7685 29.5758 25.9526 29.1402 26.2802 28.819C26.6078 28.4979 27.0521 28.3174 27.5154 28.3174ZM34.5027 21.4671C34.966 21.4671 35.4103 21.6476 35.7379 21.9687C36.0655 22.2899 36.2495 22.7255 36.2495 23.1797V40.3054C36.2495 40.7596 36.0655 41.1952 35.7379 41.5164C35.4103 41.8376 34.966 42.018 34.5027 42.018C34.0394 42.018 33.5951 41.8376 33.2675 41.5164C32.9399 41.1952 32.7558 40.7596 32.7558 40.3054V23.1797C32.7558 22.7255 32.9399 22.2899 33.2675 21.9687C33.5951 21.6476 34.0394 21.4671 34.5027 21.4671ZM41.49 18.042C41.9533 18.042 42.3976 18.2224 42.7252 18.5436C43.0528 18.8648 43.2368 19.3004 43.2368 19.7546V40.3054C43.2368 40.7596 43.0528 41.1952 42.7252 41.5164C42.3976 41.8376 41.9533 42.018 41.49 42.018C41.0267 42.018 40.5824 41.8376 40.2548 41.5164C39.9272 41.1952 39.7431 40.7596 39.7431 40.3054V19.7546C39.7431 19.3004 39.9272 18.8648 40.2548 18.5436C40.5824 18.2224 41.0267 18.042 41.49 18.042Z" fill="black"/>
</svg>
