<svg width="62" height="60" viewBox="0 0 62 60" fill="none" xmlns="http://www.w3.org/2000/svg">
<ellipse cx="30.975" cy="30" rx="30.6" ry="30" fill="white"/>
<path d="M43.2179 27.735C43.3401 27.136 42.8514 26.4173 42.2405 26.4173L35.276 25.459L32.0992 19.23C31.9771 18.9905 31.8549 18.8707 31.6105 18.7509C30.9996 18.3915 30.2665 18.6311 29.8999 19.23L26.8454 25.459L19.8809 26.4173C19.5144 26.4173 19.27 26.5371 19.1478 26.7767C18.6591 27.2558 18.6591 27.9745 19.1478 28.4537L24.1573 33.2452L22.9355 40.0731C22.9355 40.3127 22.9355 40.5522 23.0577 40.7918C23.4242 41.3908 24.1573 41.6303 24.7682 41.271L30.9996 38.0367L37.231 41.271C37.3531 41.3908 37.5975 41.3908 37.8419 41.3908H38.0862C38.6972 41.271 39.1859 40.672 39.0637 39.9533L37.8419 33.1254L42.8514 28.3339C43.0958 28.2141 43.2179 27.9745 43.2179 27.735Z" fill="black"/>
</svg>
