<svg width="62" height="60" viewBox="0 0 62 60" fill="none" xmlns="http://www.w3.org/2000/svg">
<ellipse cx="30.975" cy="30" rx="30.6" ry="30" fill="white"/>
<path d="M31.4832 20.2598C24.7579 20.2598 18.7969 24.1559 18.7969 28.6514C18.7969 31.6484 20.4782 34.1958 23.3823 35.6943C26.2864 37.1928 23.3823 35.8442 23.3823 35.8442C23.2294 37.7922 22.0067 38.3916 22.0067 38.3916L19.2554 39.7403H22.3124C26.1335 39.7403 28.8848 38.0919 30.1076 36.8931H31.3303C37.9028 36.8931 43.2524 33.1469 43.2524 28.5015C43.2524 23.8562 38.0556 20.2598 31.4832 20.2598ZM31.3303 35.3946C30.8718 35.3946 30.2604 35.3946 29.9547 35.3946H29.4962L29.1905 35.6943C28.4262 36.4436 26.7449 37.7922 24.1465 38.2418C24.6051 37.4925 24.9108 36.5934 24.9108 35.2448V34.7952L24.4522 34.6454C21.701 33.2967 20.3253 31.1988 20.3253 28.6514C20.3253 25.055 25.675 21.7583 31.4832 21.7583C37.1385 21.7583 41.7239 24.7553 41.7239 28.6514C41.7239 32.2478 36.9857 35.3946 31.3303 35.3946Z" fill="black"/>
</svg>
