<svg width="62" height="60" viewBox="0 0 62 60" fill="none" xmlns="http://www.w3.org/2000/svg">
<ellipse cx="30.975" cy="30" rx="30.6" ry="30" fill="white"/>
<path d="M42.9244 33.0342L40.7303 31.7921C40.9518 30.6206 40.9518 29.4188 40.7303 28.2473L42.9244 27.0051C43.1768 26.8638 43.2901 26.5709 43.2077 26.2982C42.636 24.5006 41.6626 22.8747 40.3904 21.5214C40.1947 21.3144 39.8753 21.2639 39.6281 21.4053L37.434 22.6474C36.5121 21.8698 35.4511 21.2689 34.3025 20.8751V18.3958C34.3025 18.113 34.1017 17.8656 33.8184 17.805C31.9282 17.3909 29.9916 17.4111 28.1941 17.805C27.9108 17.8656 27.7099 18.113 27.7099 18.3958V20.8801C26.5665 21.279 25.5055 21.8799 24.5784 22.6525L22.3895 21.4103C22.1371 21.2689 21.8229 21.3144 21.6272 21.5264C20.355 22.8747 19.3816 24.5006 18.8099 26.3033C18.7223 26.5759 18.8408 26.8688 19.0932 27.0102L21.2873 28.2524C21.0658 29.4238 21.0658 30.6256 21.2873 31.7971L19.0932 33.0393C18.8408 33.1807 18.7275 33.4735 18.8099 33.7462C19.3816 35.5438 20.355 37.1698 21.6272 38.523C21.8229 38.73 22.1423 38.7805 22.3895 38.6392L24.5836 37.397C25.5055 38.1746 26.5665 38.7755 27.7151 39.1694V41.6537C27.7151 41.9365 27.9159 42.1839 28.1992 42.2445C30.0894 42.6586 32.026 42.6384 33.8235 42.2445C34.1068 42.1839 34.3077 41.9365 34.3077 41.6537V39.1694C35.4511 38.7704 36.5121 38.1696 37.4392 37.397L39.6333 38.6392C39.8856 38.7805 40.1998 38.7351 40.3955 38.523C41.6677 37.1748 42.6412 35.5489 43.2129 33.7462C43.2901 33.4685 43.1768 33.1756 42.9244 33.0342ZM31.0062 34.0593C28.7349 34.0593 26.8858 32.2465 26.8858 30.0197C26.8858 27.7929 28.7349 25.9801 31.0062 25.9801C33.2776 25.9801 35.1266 27.7929 35.1266 30.0197C35.1266 32.2465 33.2776 34.0593 31.0062 34.0593Z" fill="black"/>
</svg>
