<svg width="62" height="60" viewBox="0 0 62 60" fill="none" xmlns="http://www.w3.org/2000/svg">
<ellipse cx="30.975" cy="30" rx="30.6" ry="30" fill="white"/>
<path d="M32.2289 19.3809C30.2135 19.3809 28.2434 19.9668 26.5677 21.0645C24.892 22.1622 23.586 23.7224 22.8147 25.5479C22.0435 27.3733 21.8417 29.382 22.2349 31.3198C22.628 33.2577 23.5985 35.0377 25.0236 36.4349C26.4487 37.832 28.2643 38.7835 30.2409 39.1689C32.2176 39.5544 34.2664 39.3566 36.1284 38.6004C37.9903 37.8443 39.5817 36.5639 40.7014 34.921C41.8211 33.2782 42.4187 31.3467 42.4187 29.3709C42.4187 28.059 42.1551 26.7599 41.643 25.5479C41.131 24.3358 40.3804 23.2345 39.4342 22.3069C38.488 21.3792 37.3646 20.6433 36.1284 20.1413C34.8921 19.6393 33.567 19.3809 32.2289 19.3809ZM33.2479 33.3669C33.2479 33.6318 33.1405 33.8859 32.9494 34.0733C32.7583 34.2606 32.4991 34.3659 32.2289 34.3659C31.9586 34.3659 31.6994 34.2606 31.5084 34.0733C31.3173 33.8859 31.2099 33.6318 31.2099 33.3669V28.3719C31.2099 28.1069 31.3173 27.8528 31.5084 27.6655C31.6994 27.4781 31.9586 27.3729 32.2289 27.3729C32.4991 27.3729 32.7583 27.4781 32.9494 27.6655C33.1405 27.8528 33.2479 28.1069 33.2479 28.3719V33.3669ZM32.2289 26.3739C32.0273 26.3739 31.8303 26.3153 31.6628 26.2055C31.4952 26.0957 31.3646 25.9397 31.2875 25.7572C31.2103 25.5746 31.1902 25.3738 31.2295 25.18C31.2688 24.9862 31.3658 24.8082 31.5084 24.6685C31.6509 24.5288 31.8324 24.4336 32.0301 24.3951C32.2277 24.3565 32.4326 24.3763 32.6188 24.4519C32.805 24.5275 32.9642 24.6556 33.0761 24.8199C33.1881 24.9841 33.2479 25.1773 33.2479 25.3749C33.2479 25.6398 33.1405 25.8939 32.9494 26.0813C32.7583 26.2686 32.4991 26.3739 32.2289 26.3739Z" fill="#231F20"/>
</svg>
