<svg width="62" height="60" viewBox="0 0 62 60" fill="none" xmlns="http://www.w3.org/2000/svg">
<ellipse cx="30.975" cy="30" rx="30.6" ry="30" fill="white"/>
<path d="M19.6471 23.3953H42.3617C42.8442 23.3953 43.2353 23.0119 43.2353 22.5388V20.3975C43.2353 19.9245 42.8442 19.541 42.3617 19.541H19.6471C19.1646 19.541 18.7734 19.9245 18.7734 20.3975V22.5388C18.7734 23.0119 19.1646 23.3953 19.6471 23.3953ZM19.6471 31.9604H42.3617C42.8442 31.9604 43.2353 31.5769 43.2353 31.1039V28.9626C43.2353 28.4895 42.8442 28.1061 42.3617 28.1061H19.6471C19.1646 28.1061 18.7734 28.4895 18.7734 28.9626V31.1039C18.7734 31.5769 19.1646 31.9604 19.6471 31.9604ZM19.6471 40.5255H42.3617C42.8442 40.5255 43.2353 40.142 43.2353 39.6689V37.5277C43.2353 37.0546 42.8442 36.6712 42.3617 36.6712H19.6471C19.1646 36.6712 18.7734 37.0546 18.7734 37.5277V39.6689C18.7734 40.142 19.1646 40.5255 19.6471 40.5255Z" fill="black"/>
</svg>
