<svg width="62" height="60" viewBox="0 0 62 60" fill="none" xmlns="http://www.w3.org/2000/svg">
<ellipse cx="30.975" cy="30" rx="30.6" ry="30" fill="white"/>
<path d="M30.6879 25.5198L22.8585 31.8417V38.6648C22.8585 38.8415 22.9301 39.0109 23.0576 39.1359C23.185 39.2608 23.3578 39.331 23.538 39.331L28.2966 39.3189C28.4763 39.318 28.6482 39.2474 28.7749 39.1226C28.9016 38.9978 28.9727 38.8289 28.9727 38.6528V34.6681C28.9727 34.4914 29.0443 34.322 29.1717 34.1971C29.2991 34.0722 29.4719 34.002 29.6521 34.002H32.3699C32.5501 34.002 32.7229 34.0722 32.8504 34.1971C32.9778 34.322 33.0494 34.4914 33.0494 34.6681V38.6498C33.0491 38.7375 33.0664 38.8243 33.1005 38.9054C33.1345 38.9865 33.1845 39.0601 33.2476 39.1222C33.3107 39.1843 33.3857 39.2335 33.4683 39.2671C33.5509 39.3008 33.6394 39.3181 33.7288 39.3181L38.4858 39.331C38.666 39.331 38.8388 39.2608 38.9662 39.1359C39.0936 39.0109 39.1652 38.8415 39.1652 38.6648V31.8371L31.3376 25.5198C31.2456 25.447 31.1309 25.4074 31.0127 25.4074C30.8945 25.4074 30.7799 25.447 30.6879 25.5198ZM43.055 29.8167L39.5049 26.9478V21.1812C39.5049 21.0487 39.4512 20.9217 39.3557 20.828C39.2601 20.7343 39.1305 20.6816 38.9953 20.6816H36.6173C36.4821 20.6816 36.3525 20.7343 36.257 20.828C36.1614 20.9217 36.1077 21.0487 36.1077 21.1812V24.2042L32.3058 21.1375C31.9409 20.8432 31.4831 20.6822 31.0106 20.6822C30.5381 20.6822 30.0803 20.8432 29.7154 21.1375L18.9662 29.8167C18.9146 29.8585 18.8719 29.9098 18.8406 29.9678C18.8092 30.0258 18.7898 30.0893 18.7835 30.1547C18.7772 30.22 18.7841 30.2859 18.8038 30.3486C18.8235 30.4114 18.8556 30.4697 18.8982 30.5203L19.9811 31.8109C20.0237 31.8616 20.076 31.9036 20.1352 31.9345C20.1943 31.9654 20.2591 31.9845 20.3258 31.9908C20.3925 31.9971 20.4598 31.9905 20.5239 31.9712C20.588 31.952 20.6475 31.9206 20.6992 31.8787L30.6879 23.8128C30.7799 23.7401 30.8945 23.7004 31.0127 23.7004C31.1309 23.7004 31.2456 23.7401 31.3376 23.8128L41.3267 31.8787C41.3783 31.9206 41.4377 31.952 41.5017 31.9713C41.5657 31.9906 41.6329 31.9974 41.6996 31.9912C41.7662 31.985 41.831 31.966 41.8901 31.9353C41.9493 31.9046 42.0017 31.8627 42.0443 31.8121L43.1272 30.5215C43.1698 30.4706 43.2018 30.412 43.2213 30.349C43.2407 30.286 43.2473 30.2199 43.2406 30.1544C43.2339 30.0889 43.214 30.0253 43.1822 29.9674C43.1503 29.9094 43.1071 29.8582 43.055 29.8167Z" fill="black"/>
</svg>
