<svg width="60" height="45" viewBox="0 0 60 45" fill="none" xmlns="http://www.w3.org/2000/svg">
<path fill-rule="evenodd" clip-rule="evenodd" d="M0 0H60V45H0V0Z" fill="#229E45"/>
<path fill-rule="evenodd" clip-rule="evenodd" d="M30.1297 40.875L58.3953 22.5281L29.9609 4.125L1.60156 22.5656L30.1297 40.875Z" fill="#F8E509"/>
<path fill-rule="evenodd" clip-rule="evenodd" d="M42.45 22.5C42.45 29.0906 37.0969 34.4344 30.4875 34.4344C28.1257 34.4307 25.8179 33.7268 23.8561 32.4117C21.8942 31.0967 20.3662 29.2294 19.4654 27.0461C18.5646 24.8628 18.3313 22.4615 18.795 20.1456C19.2587 17.8297 20.3986 15.7033 22.0707 14.0352C23.7427 12.3671 25.8718 11.2321 28.1888 10.7739C30.5057 10.3156 32.9066 10.5546 35.0877 11.4605C37.2689 12.3665 39.1325 13.8988 40.443 15.8638C41.7534 17.8288 42.4519 20.1381 42.45 22.5Z" fill="#2B49A3"/>
<path fill-rule="evenodd" clip-rule="evenodd" d="M26.5609 29.6527L26.1859 29.4371L25.8109 29.6246L25.8953 29.2027L25.5953 28.884L26.0172 28.8371L26.2234 28.4621L26.4016 28.8559L26.8141 28.9309L26.5047 29.2121M34.5672 31.6777L34.2016 31.4621L33.8266 31.6496L33.9016 31.2277L33.6109 30.9184L34.0328 30.8715L34.2297 30.4871L34.4172 30.8809L34.8297 30.9559L34.5109 31.2465M31.1172 28.434L30.7984 28.2465L30.4703 28.4152L30.5453 28.0496L30.2828 27.7777L30.6578 27.7402L30.8266 27.4027L30.9766 27.7496L31.3422 27.8152L31.0609 28.0684M39.2172 27.2715L38.8984 27.084L38.5703 27.2527L38.6453 26.8871L38.3922 26.6246L38.7578 26.5871L38.9266 26.259L39.0766 26.5965L39.4328 26.6621L39.1609 26.9059M30.9766 24.8434L30.6016 24.6371L30.2266 24.8246L30.3016 24.3934L30.0109 24.084L30.4328 24.0371L30.6297 23.6527L30.8172 24.0465L31.2297 24.1215L30.9109 24.4215M21.1047 21.1402L20.7297 20.934L20.3547 21.1215L20.4484 20.6902L20.1391 20.3809L20.5703 20.334L20.7578 19.9496L20.9453 20.3434L21.3578 20.4184L21.0484 20.709M22.2953 26.0715L21.9203 25.8559L21.5453 26.0434L21.6297 25.6215L21.3297 25.3121L21.7516 25.2559L21.9484 24.8809L22.1359 25.2746L22.5484 25.3496L22.2391 25.6402M34.6141 19.3309L34.2766 19.1434L33.9391 19.3121L34.0141 18.9371L33.7516 18.6559L34.1266 18.609L34.3047 18.2715L34.4641 18.6277L34.8391 18.6934L34.5578 18.9465M33.9297 22.5371L33.6766 22.3871L33.4047 22.5184L33.4609 22.2184L33.2547 22.0027L33.5547 21.9652L33.6953 21.7027L33.8172 21.984L34.0984 22.0309L33.8922 22.2371M20.5609 26.9621L20.3078 26.8215L20.0547 26.9434L20.1109 26.6621L19.9141 26.4559L20.1953 26.4184L20.3266 26.1652L20.4484 26.4277L20.7297 26.484L20.5141 26.6715M39.2828 28.1059L39.0766 28.0027L38.8703 28.0965L38.9172 27.8809L38.7578 27.7309L38.9828 27.7027L39.0953 27.5152L39.1891 27.7027L39.4234 27.7496L39.2453 27.8902" fill="#FFFFEF"/>
<path fill-rule="evenodd" clip-rule="evenodd" d="M20.5609 26.9629L20.3078 26.8223L20.0547 26.9441L20.1109 26.6629L19.9141 26.4566L20.1953 26.4191L20.3266 26.166L20.4484 26.4285L20.7297 26.4848L20.5141 26.6723" fill="#FFFFEF"/>
<path fill-rule="evenodd" clip-rule="evenodd" d="M20.5609 26.9621L20.3078 26.8215L20.0547 26.9434L20.1109 26.6621L19.9141 26.4559L20.1953 26.4184L20.3266 26.1652L20.4484 26.4277L20.7297 26.484L20.5141 26.6715M24.4797 26.9527L24.2359 26.8215L23.9828 26.9434L24.0391 26.6621L23.8422 26.4559L24.1234 26.4184L24.2547 26.1652L24.3766 26.4277L24.6578 26.4746L24.4422 26.6715M23.9922 28.2652L23.7484 28.1246L23.4953 28.2559L23.5516 27.9746L23.3547 27.759L23.6359 27.7215L23.7672 27.4684L23.8891 27.7309L24.1703 27.7871L23.9547 27.9746M32.1484 25.8934L31.9047 25.7434L31.6422 25.8746L31.6984 25.5934L31.5109 25.3777L31.7922 25.3496L31.9234 25.0965L32.0359 25.359L32.3172 25.4059L32.1109 25.6027M29.7578 25.884L29.5047 25.7434L29.2516 25.8746L29.3078 25.5934L29.1203 25.3777L29.4016 25.3496L29.5328 25.0871L29.6453 25.359L29.9266 25.4059L29.7203 25.6027M23.2703 25.059L23.1109 24.9652L22.9516 25.0402L22.9891 24.8621L22.8672 24.7309L23.0453 24.7121L23.1203 24.5527L23.1953 24.7215L23.3734 24.7496L23.2422 24.8715M38.9734 29.1277L38.7297 28.9871L38.4766 29.1184L38.5328 28.8371L38.3359 28.6215L38.6172 28.584L38.7484 28.3309L38.8703 28.5934L39.1516 28.6496L38.9359 28.8371M36.9859 29.3996L36.7797 29.2684L36.5641 29.3809L36.6109 29.1371L36.4516 28.9684L36.6859 28.9402L36.7984 28.7246L36.8922 28.9496L37.1266 28.9871L36.9484 29.1559M37.9234 29.3715L37.7359 29.259L37.5391 29.3527L37.5766 29.1371L37.4266 28.9777L37.6422 28.9496L37.7453 28.7621L37.8391 28.9496L38.0547 28.9965L37.8953 29.1465M40.6234 27.009L40.4359 26.9152L40.2484 27.009L40.2953 26.7934L40.1453 26.634L40.3609 26.6059L40.4547 26.4184L40.5484 26.6152L40.7453 26.6527L40.5953 26.8027M36.9578 30.7215L36.7234 30.5902L36.4703 30.7027L36.5266 30.4402L36.3391 30.2527L36.6203 30.2246L36.7422 29.9902L36.8547 30.234L37.1359 30.2809L36.9203 30.459M36.9766 31.7902L36.7516 31.659L36.5266 31.7809L36.5828 31.5184L36.4047 31.3309L36.6578 31.2934L36.7703 31.059L36.8734 31.3027L37.1266 31.3496L36.9391 31.5371M35.1578 29.3715L34.9797 29.259L34.7922 29.3527L34.8297 29.1465L34.6891 28.9871L34.8953 28.9684L34.9891 28.7809L35.0828 28.9684L35.2891 29.0059L35.1391 29.1559M33.4703 29.3715L33.2828 29.259L33.0953 29.3527L33.1422 29.1465L32.9922 28.9871L33.2078 28.9684L33.3016 28.7809L33.3953 28.9684L33.5922 29.0059L33.4422 29.1559M30.5922 26.8496L30.4047 26.7465L30.2172 26.8402L30.2641 26.6246L30.1141 26.4746L30.3203 26.4465L30.4141 26.259L30.5078 26.4465L30.7141 26.4934L30.5641 26.634M30.9109 31.9777L30.7609 31.8934L30.5922 31.9777L30.6297 31.7902L30.5078 31.659L30.6859 31.6402L30.7703 31.4809L30.8453 31.6496L31.0234 31.6777L30.8922 31.7996M26.5609 23.6809L26.1859 23.4652L25.8109 23.6527L25.8953 23.2309L25.5953 22.9215L26.0172 22.8652L26.2234 22.4902L26.4016 22.884L26.8141 22.959L26.5047 23.2496" fill="#FFFFEF"/>
<path fill-rule="evenodd" clip-rule="evenodd" d="M41.6625 26.7941C41.8948 26.1914 42.0766 25.5705 42.2063 24.9378C35.85 19.3597 28.7719 16.5003 19.8281 17.0909C19.5037 17.7186 19.237 18.3744 19.0312 19.0503C29.625 18.0378 37.4062 22.7253 41.6625 26.7941Z" fill="white"/>
<path d="M38.8094 23.6625L39.025 23.7844C38.9928 23.848 38.9829 23.9207 38.9969 23.9906C39.0188 24.0585 39.0658 24.1154 39.1281 24.15C39.1937 24.1969 39.2594 24.225 39.3156 24.2156C39.3719 24.2156 39.4094 24.1875 39.4375 24.15C39.4538 24.1251 39.4605 24.0951 39.4562 24.0656C39.4486 24.031 39.4325 23.9988 39.4094 23.9719C39.3906 23.9437 39.3437 23.8781 39.2687 23.8031C39.1917 23.7236 39.1339 23.6273 39.1 23.5219C39.0766 23.4421 39.0827 23.3565 39.1171 23.2808C39.1515 23.2051 39.212 23.1442 39.2875 23.1094C39.3557 23.0809 39.431 23.0744 39.5031 23.0906C39.5913 23.1109 39.6742 23.1492 39.7469 23.2031C39.8781 23.2969 39.9625 23.3906 39.9906 23.5031C40.0036 23.5557 40.0053 23.6105 39.9956 23.6638C39.9859 23.7171 39.965 23.7678 39.9344 23.8125L39.7094 23.6719C39.7375 23.6156 39.7469 23.5594 39.7281 23.5125C39.7187 23.4656 39.6812 23.4187 39.6156 23.3812C39.5675 23.3425 39.5085 23.3196 39.4469 23.3156C39.4299 23.3151 39.4131 23.3191 39.3982 23.3274C39.3833 23.3356 39.371 23.3478 39.3625 23.3625C39.3437 23.3906 39.3437 23.4187 39.3531 23.4562C39.3625 23.4937 39.4094 23.5687 39.5031 23.6625C39.5969 23.7562 39.6531 23.8406 39.6906 23.8969C39.7241 23.9583 39.7393 24.0281 39.7343 24.0979C39.7293 24.1677 39.7044 24.2346 39.6625 24.2906C39.6186 24.3544 39.5566 24.4034 39.4844 24.4313C39.4141 24.4636 39.3355 24.4734 39.2594 24.4594C39.175 24.4406 39.0906 24.4031 38.9969 24.3375C38.8562 24.2438 38.7719 24.1406 38.7437 24.0281C38.7132 23.9006 38.7334 23.7661 38.8 23.6531L38.8094 23.6625ZM37.7219 22.95L37.9562 23.0719C37.9272 23.1366 37.9206 23.2092 37.9375 23.2781C37.9615 23.3425 38.0082 23.3958 38.0687 23.4281C38.1437 23.475 38.2 23.4938 38.2562 23.4844C38.3125 23.4844 38.35 23.4562 38.3781 23.4094C38.3923 23.3871 38.3989 23.3607 38.3969 23.3344C38.3969 23.3062 38.3781 23.2687 38.35 23.2406C38.302 23.1827 38.2519 23.1264 38.2 23.0719C38.0969 22.9688 38.0312 22.8844 38.0125 22.8094C37.9972 22.7611 37.9926 22.7101 37.9991 22.6599C38.0055 22.6097 38.0229 22.5615 38.05 22.5187C38.0856 22.4609 38.1379 22.4152 38.2 22.3875C38.2644 22.3578 38.3362 22.348 38.4062 22.3594C38.493 22.374 38.5758 22.4059 38.65 22.4531C38.7906 22.5469 38.875 22.6406 38.9031 22.7438C38.9202 22.7964 38.9257 22.8522 38.9192 22.9072C38.9128 22.9622 38.8945 23.0152 38.8656 23.0625L38.6312 22.9313C38.6594 22.8656 38.6687 22.8187 38.65 22.7719C38.6312 22.725 38.5937 22.6781 38.5281 22.6406C38.4762 22.6034 38.4138 22.5837 38.35 22.5844C38.3346 22.5854 38.3197 22.5902 38.3066 22.5984C38.2935 22.6066 38.2827 22.6179 38.275 22.6312C38.2562 22.6594 38.2563 22.6875 38.2656 22.725C38.275 22.7625 38.3312 22.8375 38.425 22.9313C38.5187 23.025 38.5844 23.1 38.6125 23.1562C38.6501 23.215 38.67 23.2834 38.67 23.3531C38.67 23.4229 38.6501 23.4912 38.6125 23.55C38.5721 23.6154 38.5134 23.6675 38.4437 23.7C38.3734 23.7324 38.2949 23.7422 38.2188 23.7281C38.1223 23.7118 38.0299 23.6768 37.9469 23.625C37.8257 23.5604 37.7323 23.4537 37.6844 23.325C37.6481 23.1998 37.6616 23.0655 37.7219 22.95ZM36.3906 22.5938L37.075 21.4688L37.9 21.9844L37.7875 22.1719L37.1875 21.7969L37.0375 22.05L37.6 22.3969L37.4781 22.5844L36.9156 22.2375L36.7281 22.5469L37.3562 22.9219L37.2437 23.1094L36.3906 22.5938ZM34.45 21L34.5531 20.8125L35.0594 21.0656L34.825 21.5344C34.75 21.5531 34.6562 21.5625 34.5437 21.5531C34.4357 21.5412 34.3308 21.5094 34.2344 21.4594C34.1209 21.4041 34.024 21.3201 33.9531 21.2156C33.8887 21.1186 33.8559 21.0039 33.8594 20.8875C33.8641 20.7663 33.8962 20.6477 33.9531 20.5406C34.0095 20.4279 34.0933 20.3312 34.1969 20.2594C34.296 20.1909 34.4139 20.1548 34.5344 20.1562C34.6281 20.1562 34.7219 20.1844 34.8344 20.25C34.9844 20.3156 35.0781 20.4094 35.125 20.5125C35.1738 20.6149 35.1837 20.7314 35.1531 20.8406L34.9 20.7656C34.9155 20.7028 34.9089 20.6366 34.8812 20.5781C34.8531 20.5219 34.8062 20.4844 34.7312 20.4469C34.6875 20.4219 34.639 20.4065 34.589 20.4017C34.5389 20.3968 34.4883 20.4026 34.4406 20.4188C34.3469 20.4469 34.2625 20.5312 34.1969 20.6625C34.1312 20.7937 34.1031 20.9156 34.1312 21.0187C34.1442 21.0677 34.1677 21.1131 34.2001 21.152C34.2325 21.1909 34.273 21.2222 34.3187 21.2438C34.3656 21.2719 34.4219 21.2906 34.4781 21.2906C34.5341 21.2991 34.5909 21.2991 34.6469 21.2906L34.7219 21.1406L34.45 21ZM25.9937 18.9094L26.1812 17.5969L26.575 17.6625L26.6781 18.5812L27.0437 17.7375L27.4375 17.7938L27.25 19.0875L26.9969 19.05L27.1562 18.0281L26.7437 19.0125L26.4906 18.975L26.3875 17.9156L26.2375 18.9469L25.9937 18.9094ZM24.6719 18.75L24.7937 17.4375L25.7594 17.5312L25.7406 17.7562L25.0375 17.6906L25.0094 17.9719L25.6656 18.0375L25.6375 18.2625L24.9812 18.1969L24.9531 18.5531L25.6844 18.6188L25.6656 18.8438L24.6719 18.75Z" fill="#309E3A"/>
<path d="M20.2991 17.9348C20.2991 17.7941 20.3272 17.691 20.3647 17.5973C20.3976 17.5306 20.442 17.4703 20.496 17.4191C20.5441 17.3706 20.6015 17.3324 20.6647 17.3066C20.7585 17.2785 20.8522 17.2598 20.946 17.2598C21.1429 17.2598 21.2929 17.3348 21.4147 17.4473C21.4727 17.5189 21.5159 17.6014 21.5416 17.69C21.5674 17.7785 21.5752 17.8713 21.5647 17.9629C21.5647 18.1691 21.4991 18.3379 21.3772 18.4598C21.3146 18.5177 21.2405 18.5618 21.1598 18.5892C21.079 18.6167 20.9934 18.6269 20.9085 18.6191C20.8247 18.62 20.7416 18.6038 20.6642 18.5716C20.5869 18.5393 20.5169 18.4917 20.4585 18.4316C20.3418 18.2936 20.2845 18.1149 20.2991 17.9348Z" fill="#309E3A"/>
<path d="M20.5703 17.9345C20.5703 18.0752 20.5984 18.1877 20.6641 18.272C20.7297 18.347 20.8141 18.3939 20.9266 18.3939C20.9752 18.3973 21.024 18.3898 21.0695 18.372C21.1149 18.3542 21.1557 18.3264 21.1891 18.2908C21.2547 18.2158 21.2828 18.1033 21.2922 17.9439C21.2922 17.7939 21.2734 17.6814 21.1984 17.6064C21.1679 17.5686 21.1294 17.5381 21.0856 17.517C21.0418 17.4959 20.9939 17.4849 20.9453 17.4845C20.896 17.483 20.8469 17.4922 20.8016 17.5117C20.7562 17.5311 20.7157 17.5602 20.6828 17.597C20.6078 17.672 20.5797 17.7845 20.5703 17.9345Z" fill="#F7FFFF"/>
<path d="M21.8438 18.6094L21.8625 17.2969H22.425C22.5656 17.2969 22.6594 17.3156 22.725 17.3438C22.7906 17.3625 22.8375 17.4094 22.875 17.4656C22.9125 17.5219 22.9313 17.5969 22.9313 17.6813C22.932 17.7714 22.8985 17.8585 22.8375 17.925C22.7682 17.9899 22.679 18.0296 22.5844 18.0375L22.725 18.15C22.7625 18.1875 22.8094 18.2625 22.8656 18.3656L23.025 18.6281H22.7062L22.5187 18.3281L22.3875 18.1406C22.3648 18.1148 22.3357 18.0954 22.3031 18.0844C22.2605 18.0719 22.2163 18.0656 22.1719 18.0656H22.1156V18.6094H21.8438Z" fill="#309E3A"/>
<path d="M22.125 17.859H22.3125C22.4437 17.859 22.5281 17.859 22.5563 17.8402C22.5844 17.8402 22.6125 17.8121 22.6312 17.7934C22.65 17.7746 22.6594 17.7277 22.6594 17.6996C22.6594 17.6434 22.65 17.6059 22.6219 17.5871C22.6031 17.559 22.5656 17.5402 22.5281 17.5309H22.3406L22.125 17.5215V17.859Z" fill="white"/>
<path d="M23.3469 17.3623L23.8344 17.3904C23.9375 17.3904 24.0219 17.3998 24.0781 17.4186C24.1511 17.445 24.2158 17.4903 24.2656 17.5498C24.3196 17.6154 24.3581 17.6923 24.3781 17.7748C24.4062 17.8592 24.4156 17.9623 24.4062 18.0842C24.4062 18.1799 24.3903 18.2749 24.3594 18.3654C24.3219 18.4592 24.2656 18.5342 24.2 18.5904C24.1454 18.6354 24.0813 18.6675 24.0125 18.6842C23.9563 18.7029 23.8719 18.7029 23.7781 18.7029L23.2812 18.6748L23.3469 17.3623Z" fill="#309E3A"/>
<path d="M23.6016 17.5967L23.5547 18.4686H23.9109C23.9578 18.4686 23.9953 18.4498 24.0234 18.4217C24.0516 18.3936 24.0797 18.3561 24.0984 18.2998C24.1172 18.2436 24.1359 18.1592 24.1359 18.0561L24.1266 17.8217C24.1132 17.7722 24.0874 17.7271 24.0516 17.6904C24.0204 17.6591 23.9816 17.6365 23.9391 17.6248C23.8682 17.609 23.796 17.5996 23.7234 17.5967H23.6016Z" fill="white"/>
<path d="M29.7734 19.7066L30.0828 18.4316L30.4953 18.5254L30.7953 18.6191C30.8609 18.6566 30.9172 18.7129 30.9453 18.7973C30.9828 18.8723 30.9828 18.9566 30.9641 19.0598C30.9453 19.1348 30.9172 19.2004 30.8703 19.2473C30.8359 19.2884 30.7929 19.3215 30.7443 19.3442C30.6957 19.3669 30.6427 19.3786 30.5891 19.3785C30.5234 19.3785 30.4297 19.3598 30.3078 19.3316L30.1484 19.2848L30.0359 19.7723L29.7734 19.7066Z" fill="#309E3A"/>
<path d="M30.2781 18.7129L30.2031 19.0691L30.3438 19.1066C30.4375 19.1254 30.5125 19.1441 30.55 19.1348C30.5865 19.1297 30.6205 19.1135 30.6473 19.0883C30.6742 19.0631 30.6926 19.0302 30.7 18.9941C30.7 18.9473 30.7 18.9098 30.6812 18.8723C30.6607 18.8342 30.6276 18.8043 30.5875 18.7879L30.4094 18.741L30.2875 18.7129H30.2781Z" fill="white"/>
<path d="M30.9922 20.0715L31.4328 18.834L31.9484 19.0215C32.0891 19.0684 32.1734 19.1152 32.2297 19.1527C32.2766 19.1996 32.3141 19.2465 32.3234 19.3215C32.3328 19.3965 32.3422 19.4621 32.3234 19.5371C32.2859 19.6309 32.2297 19.6965 32.1547 19.7434C32.0797 19.7809 31.9859 19.7902 31.8734 19.7715C31.9109 19.8184 31.9484 19.8652 31.9672 19.9215L32.0422 20.1746L32.0984 20.4652L31.8078 20.3621L31.7141 20.0246C31.697 19.9483 31.6751 19.8731 31.6484 19.7996C31.636 19.7704 31.6167 19.7447 31.5922 19.7246C31.5734 19.6965 31.5359 19.6777 31.4703 19.659L31.4234 19.6402L31.2359 20.1652L30.9922 20.0715Z" fill="#309E3A"/>
<path d="M31.5016 19.4432L31.6797 19.5088C31.8016 19.5557 31.8766 19.5744 31.9141 19.5744C31.9422 19.5744 31.9703 19.5744 31.9984 19.5463C32.0266 19.5275 32.0453 19.4994 32.0547 19.4619C32.0734 19.4244 32.0734 19.3869 32.0547 19.3494C32.0408 19.3131 32.0141 19.2831 31.9797 19.265L31.7922 19.1994L31.6047 19.1338L31.4922 19.4432H31.5016Z" fill="white"/>
<path d="M32.5278 20.0248C32.5601 19.915 32.6143 19.813 32.6872 19.7248C32.7346 19.6682 32.7918 19.6206 32.8559 19.5842C32.9141 19.5514 32.9775 19.5291 33.0434 19.5186C33.1372 19.5186 33.2309 19.5186 33.3341 19.5561C33.4179 19.5768 33.4963 19.6151 33.5642 19.6684C33.6321 19.7218 33.6878 19.7889 33.7278 19.8654C33.8028 20.0154 33.8028 20.1936 33.7466 20.3998C33.7002 20.577 33.5856 20.7286 33.4278 20.8217C33.2872 20.9061 33.1184 20.9154 32.9403 20.8592C32.8567 20.8379 32.7786 20.7994 32.7107 20.7461C32.6429 20.6928 32.587 20.626 32.5466 20.5498C32.509 20.4678 32.488 20.3793 32.4848 20.2892C32.4816 20.1991 32.4962 20.1092 32.5278 20.0248Z" fill="#309E3A"/>
<path d="M32.7896 20.0995C32.7521 20.2402 32.7427 20.362 32.7896 20.4558C32.8364 20.5495 32.9021 20.6058 33.0052 20.6433C33.0989 20.6714 33.1927 20.662 33.2864 20.6058C33.3802 20.5589 33.4364 20.4558 33.4833 20.3058C33.5302 20.1652 33.5302 20.0527 33.4833 19.9589C33.4648 19.9144 33.4367 19.8746 33.4011 19.8422C33.3654 19.8098 33.3231 19.7856 33.2771 19.7714C33.2309 19.7555 33.1819 19.7497 33.1333 19.7546C33.0848 19.7595 33.0379 19.7748 32.9958 19.7995C32.9021 19.8558 32.8364 19.9495 32.7896 20.0995Z" fill="white"/>
<path d="M35.0938 21.8529L35.6938 20.6904L36.1906 20.9436C36.2843 20.9885 36.3698 21.0487 36.4438 21.1217C36.4906 21.1686 36.5188 21.2248 36.5188 21.2998C36.5188 21.3748 36.5188 21.4404 36.4813 21.5061C36.4452 21.5904 36.378 21.6575 36.2938 21.6936C36.2 21.7123 36.1063 21.7123 36.0031 21.6748C36.0406 21.7311 36.0594 21.7873 36.0781 21.8342C36.0969 21.8904 36.1063 21.9748 36.1156 22.0967L36.1344 22.3967L35.8531 22.2561L35.8156 21.9092C35.8112 21.8305 35.8018 21.7523 35.7875 21.6748C35.7811 21.6397 35.7648 21.6072 35.7406 21.5811L35.6281 21.5154L35.5813 21.4873L35.3281 21.9748L35.0938 21.8529Z" fill="#309E3A"/>
<path d="M35.6719 21.3L35.85 21.3937C35.9625 21.45 36.0375 21.4875 36.0656 21.4875C36.0938 21.4875 36.1313 21.4875 36.1594 21.4688C36.1875 21.4594 36.2062 21.4312 36.225 21.3937C36.2437 21.3562 36.2531 21.3187 36.2438 21.2812C36.2322 21.2439 36.2092 21.2111 36.1781 21.1875C36.1232 21.1539 36.0669 21.1226 36.0094 21.0938L35.8219 21L35.6719 21.3Z" fill="white"/>
<path d="M39.9439 24.2536C40.0046 24.1572 40.0843 24.0742 40.1783 24.0098C40.2414 23.9695 40.3112 23.9409 40.3845 23.9255C40.4526 23.9116 40.5227 23.9116 40.5908 23.9255C40.6845 23.9442 40.7689 23.9817 40.8533 24.038C40.9262 24.0834 40.9889 24.1436 41.0374 24.2146C41.0858 24.2856 41.1189 24.3659 41.1345 24.4505C41.1627 24.6098 41.1158 24.788 41.0033 24.9661C40.9092 25.121 40.7575 25.2323 40.5814 25.2755C40.4975 25.2936 40.4107 25.2938 40.3266 25.276C40.2426 25.2582 40.1633 25.2229 40.0939 25.1723C40.0209 25.1269 39.9583 25.0667 39.9098 24.9957C39.8614 24.9247 39.8283 24.8444 39.8127 24.7598C39.7845 24.5911 39.8314 24.4223 39.9439 24.2536Z" fill="#309E3A"/>
<path d="M40.1789 24.404C40.0852 24.5259 40.057 24.6384 40.0758 24.7415C40.0827 24.789 40.0997 24.8345 40.1255 24.8749C40.1514 24.9153 40.1856 24.9497 40.2258 24.9759C40.3195 25.0415 40.4133 25.0603 40.507 25.0321C40.6008 25.004 40.6945 24.9384 40.7789 24.8071C40.8633 24.6759 40.9008 24.5634 40.882 24.4696C40.8727 24.3759 40.8164 24.2915 40.732 24.2259C40.6477 24.1603 40.5445 24.1509 40.4508 24.179C40.357 24.1978 40.2633 24.2728 40.1695 24.404H40.1789Z" fill="white"/>
<path d="M28.2969 19.1717L28.5125 18.2529L29.1875 18.4123L29.1594 18.5623L28.6625 18.4498L28.6156 18.6561L29.075 18.7592L29.0375 18.9186L28.5781 18.8061L28.5219 19.0592L29.0375 19.1811L29 19.3311L28.2969 19.1717Z" fill="#309E3A"/>
</svg>
