<svg width="60" height="45" viewBox="0 0 60 45" fill="none" xmlns="http://www.w3.org/2000/svg">
<path fill-rule="evenodd" clip-rule="evenodd" d="M0 0H60V45H0V0Z" fill="#BE0027"/>
<path fill-rule="evenodd" clip-rule="evenodd" d="M2.39844 2.55957H57.6641V42.7221H2.39844V2.55957Z" fill="#3B5AA3"/>
<path fill-rule="evenodd" clip-rule="evenodd" d="M29.4746 38.7376C29.5973 38.7962 29.7313 38.8273 29.8673 38.829C30.0033 38.8306 30.138 38.8026 30.2621 38.7469C43.1809 31.8751 43.1809 13.0313 30.2715 6.25319C30.1429 6.19466 30.0028 6.16595 29.8615 6.16919C29.7203 6.17244 29.5816 6.20756 29.4559 6.27194C16.8652 13.1532 16.8277 31.7813 29.4652 38.7376H29.4746Z" fill="#CBE0E5"/>
<path fill-rule="evenodd" clip-rule="evenodd" d="M29.4785 39.0848C29.666 39.2441 30.0785 39.2254 30.266 39.0848C39.7816 31.9598 39.8285 27.5254 39.416 27.5254H20.5722C20.291 27.5254 20.741 32.0441 29.4785 39.0848Z" fill="#ADD2D9"/>
<path fill-rule="evenodd" clip-rule="evenodd" d="M22.0563 31.0503C22.9181 30.7802 23.8492 30.837 24.6719 31.2097C25.3844 31.5847 25.7969 31.5847 26.5656 31.5847C27.3719 31.6034 28 32.1941 28.8719 32.2222C30.475 32.2597 31.15 33.0566 29.9031 33.0659C29.3219 33.0659 28.0562 32.6628 27.4469 32.7472C26.1719 32.8784 25.3656 33.1597 24.1656 34.5003L25.5531 35.4378C26.7531 34.9597 26.95 34.4066 27.6156 34.3878C28.3656 34.3597 28.6188 33.9003 29.4906 33.9003C30.5315 33.9873 31.5796 33.8856 32.5844 33.6003C33.9719 33.2816 33.3156 32.3066 32.4719 31.9597C31.7875 31.6691 30.5219 31.9503 29.7344 31.6597C29.1344 31.4253 29.6219 31.0503 29.95 30.9753C30.2688 30.9097 30.6156 31.0222 31.0187 31.0878C31.7406 31.1441 32.65 31.0784 33.2781 30.9753C34.5906 30.7784 34.5344 30.3941 35.1531 30.3847C35.6219 30.3566 35.9688 30.2253 36.2781 30.0003C36.6531 29.7472 37.0375 29.2503 37.4875 29.2691L38.6781 29.3159L36.9906 33.1034L32.2375 37.9503L29.7719 38.8878L24.3531 35.3534L21.625 31.1628L22.0563 31.0503Z" fill="#FDF9A1"/>
<path fill-rule="evenodd" clip-rule="evenodd" d="M28.2906 27.375L39.1656 27.3188L39.3531 26.3531C39.3531 26.3531 38.9687 26.2969 38.65 26.2781C38.2656 26.25 37.5906 26.6906 37.15 26.6813C36.8219 26.6813 36.4656 26.1188 36.1469 26.1188C35.5844 26.1188 35.5469 26.6156 35.0219 26.6344C34.6 26.6156 34.4219 26.2969 33.8687 26.3344C33.3062 26.3625 33.3437 26.6813 32.6219 26.6625C31.6656 26.6344 31.2812 25.8094 30.5125 25.8C29.2375 25.7813 29.2 27.0188 28.2812 27.3656L28.2906 27.375Z" fill="#179A3B"/>
<path fill-rule="evenodd" clip-rule="evenodd" d="M28.2937 27.6004L39.4875 27.5441V27.2441L28.0312 27.3004L28.2937 27.6004Z" fill="#FDF9A1"/>
<path fill-rule="evenodd" clip-rule="evenodd" d="M32.8875 30.966C33.0656 31.6223 33.2438 31.8473 33.9375 32.0254C34.6219 32.1848 35.6719 31.5191 35.025 30.8723C34.4063 30.2723 33.75 30.1223 33.1969 29.5785C32.025 28.4254 30.2625 25.5941 30.2625 23.5973C30.2625 21.8816 30.0938 18.366 30.0938 15.0379C30.0938 14.8223 29.4375 15.6379 29.4375 15.8629C29.475 18.7973 29.475 21.0191 29.5875 23.9816C29.775 26.1473 30.8062 27.6098 31.7156 28.9223C32.1187 29.5598 32.7094 30.2348 32.8875 30.966Z" fill="#A79270"/>
<path d="M26.4517 22.1581C26.4184 22.0564 26.3746 21.9652 26.3202 21.8846C26.2668 21.803 26.2028 21.7334 26.1282 21.676C26.0547 21.6186 25.9711 21.5747 25.8773 21.5445C25.7836 21.5143 25.6809 21.4992 25.569 21.4992C25.3856 21.4992 25.2189 21.5465 25.0688 21.6412C24.9186 21.736 24.7992 21.8755 24.7106 22.0599C24.6219 22.2443 24.5776 22.4705 24.5776 22.7385C24.5776 23.0065 24.6224 23.2327 24.7121 23.4171C24.8018 23.6015 24.9232 23.741 25.0763 23.8357C25.2295 23.9305 25.4018 23.9778 25.5932 23.9778C25.7705 23.9778 25.9267 23.94 26.0617 23.8645C26.1978 23.7879 26.3036 23.6801 26.3791 23.541C26.4557 23.401 26.494 23.2362 26.494 23.0468L26.6088 23.071H25.6778V22.7385H26.8567V23.071C26.8567 23.3259 26.8023 23.5476 26.6935 23.736C26.5857 23.9244 26.4366 24.0705 26.2461 24.1743C26.0567 24.2771 25.8391 24.3285 25.5932 24.3285C25.3191 24.3285 25.0783 24.264 24.8708 24.135C24.6642 24.006 24.503 23.8226 24.3871 23.5849C24.2723 23.3471 24.2148 23.065 24.2148 22.7385C24.2148 22.4937 24.2476 22.2735 24.3131 22.078C24.3796 21.8816 24.4733 21.7143 24.5942 21.5763C24.7151 21.4382 24.8582 21.3324 25.0234 21.2589C25.1887 21.1853 25.3705 21.1485 25.569 21.1485C25.7323 21.1485 25.8844 21.1732 26.0255 21.2226C26.1675 21.271 26.294 21.34 26.4048 21.4297C26.5167 21.5183 26.6099 21.6246 26.6844 21.7486C26.759 21.8715 26.8104 22.008 26.8386 22.1581H26.4517Z" fill="#BD0728"/>
<path d="M26.4517 22.1581L26.3252 22.1994L26.3552 22.2911H26.4517V22.1581ZM26.3202 21.8846L26.2089 21.9574L26.2099 21.959L26.3202 21.8846ZM26.1282 21.676L26.0464 21.7808L26.0471 21.7814L26.1282 21.676ZM25.8773 21.5445L25.9182 21.4179H25.9182L25.8773 21.5445ZM24.7106 22.0599L24.8304 22.1175L24.7106 22.0599ZM24.7121 23.4171L24.5925 23.4753L24.7121 23.4171ZM25.0763 23.8357L25.0064 23.9489L25.0763 23.8357ZM26.0617 23.8645L26.1267 23.9805L26.127 23.9804L26.0617 23.8645ZM26.3791 23.541L26.2624 23.4772L26.2623 23.4775L26.3791 23.541ZM26.494 23.0468L26.5214 22.9167L26.361 22.8829V23.0468H26.494ZM26.6088 23.071V23.204L26.6362 22.9408L26.6088 23.071ZM25.6778 23.071H25.5448V23.204H25.6778V23.071ZM25.6778 22.7385V22.6055H25.5448V22.7385H25.6778ZM26.8567 22.7385H26.9897V22.6055H26.8567V22.7385ZM26.6935 23.736L26.5783 23.6695L26.578 23.6699L26.6935 23.736ZM26.2461 24.1743L26.3095 24.2912L26.3098 24.2911L26.2461 24.1743ZM24.8708 24.135L24.8003 24.2478L24.8006 24.248L24.8708 24.135ZM24.3871 23.5849L24.2674 23.6427L24.2676 23.6431L24.3871 23.5849ZM24.3131 22.078L24.1871 22.0354L24.187 22.0358L24.3131 22.078ZM24.5942 21.5763L24.6942 21.6639L24.5942 21.5763ZM26.0255 21.2226L25.9815 21.3481L25.9826 21.3485L26.0255 21.2226ZM26.4048 21.4297L26.3212 21.5331L26.3222 21.5339L26.4048 21.4297ZM26.6844 21.7486L26.5704 21.8171L26.5707 21.8175L26.6844 21.7486ZM26.8386 22.1581V22.2911H26.9989L26.9693 22.1336L26.8386 22.1581ZM26.5781 22.1168C26.5414 22.0045 26.4924 21.902 26.4304 21.8102L26.2099 21.959C26.2568 22.0284 26.2954 22.1082 26.3252 22.1994L26.5781 22.1168ZM26.4315 21.8118C26.3702 21.7181 26.2962 21.6375 26.2094 21.5706L26.0471 21.7814C26.1094 21.8294 26.1633 21.8878 26.2089 21.9574L26.4315 21.8118ZM26.2101 21.5712C26.1236 21.5036 26.0259 21.4527 25.9182 21.4179L25.8365 21.6711C25.9162 21.6968 25.9858 21.7335 26.0464 21.7808L26.2101 21.5712ZM25.9182 21.4179C25.8096 21.3829 25.6929 21.3662 25.569 21.3662V21.6322C25.6689 21.6322 25.7577 21.6457 25.8365 21.6711L25.9182 21.4179ZM25.569 21.3662C25.3614 21.3662 25.1699 21.4202 24.9978 21.5288L25.1397 21.7537C25.2679 21.6729 25.4099 21.6322 25.569 21.6322V21.3662ZM24.9978 21.5288C24.8235 21.6387 24.6885 21.7989 24.5907 22.0023L24.8304 22.1175C24.91 21.9521 25.0138 21.8332 25.1397 21.7537L24.9978 21.5288ZM24.5907 22.0023C24.4911 22.2093 24.4446 22.4565 24.4446 22.7385H24.7106C24.7106 22.4845 24.7527 22.2793 24.8304 22.1175L24.5907 22.0023ZM24.4446 22.7385C24.4446 23.0207 24.4917 23.2681 24.5925 23.4753L24.8317 23.3589C24.7531 23.1973 24.7106 22.9923 24.7106 22.7385H24.4446ZM24.5925 23.4753C24.6916 23.6791 24.8289 23.8391 25.0064 23.9489L25.1463 23.7226C25.0174 23.6429 24.9119 23.5239 24.8317 23.3589L24.5925 23.4753ZM25.0064 23.9489C25.1819 24.0574 25.3787 24.1108 25.5932 24.1108V23.8448C25.4249 23.8448 25.2771 23.8035 25.1463 23.7226L25.0064 23.9489ZM25.5932 24.1108C25.7899 24.1108 25.9691 24.0687 26.1267 23.9805L25.9968 23.7484C25.8844 23.8113 25.7512 23.8448 25.5932 23.8448V24.1108ZM26.127 23.9804C26.2851 23.8913 26.4086 23.7652 26.496 23.6045L26.2623 23.4775C26.1985 23.5949 26.1104 23.6844 25.9965 23.7486L26.127 23.9804ZM26.4958 23.6048C26.5849 23.4419 26.627 23.2544 26.627 23.0468H26.361C26.361 23.2181 26.3265 23.3601 26.2624 23.4772L26.4958 23.6048ZM26.4666 23.177L26.5814 23.2011L26.6362 22.9408L26.5214 22.9167L26.4666 23.177ZM26.6088 22.938H25.6778V23.204H26.6088V22.938ZM25.8108 23.071V22.7385H25.5448V23.071H25.8108ZM25.6778 22.8715H26.8567V22.6055H25.6778V22.8715ZM26.7237 22.7385V23.071H26.9897V22.7385H26.7237ZM26.7237 23.071C26.7237 23.3066 26.6736 23.5045 26.5783 23.6695L26.8087 23.8025C26.931 23.5906 26.9897 23.3452 26.9897 23.071H26.7237ZM26.578 23.6699C26.4825 23.837 26.3513 23.9655 26.1825 24.0575L26.3098 24.2911C26.5218 24.1755 26.6889 24.0118 26.8089 23.802L26.578 23.6699ZM26.1827 24.0574C26.0153 24.1482 25.8201 24.1955 25.5932 24.1955V24.4615C25.8581 24.4615 26.0981 24.4059 26.3095 24.2912L26.1827 24.0574ZM25.5932 24.1955C25.3409 24.1955 25.125 24.1364 24.941 24.022L24.8006 24.248C25.0317 24.3916 25.2974 24.4615 25.5932 24.4615V24.1955ZM24.9412 24.0222C24.7577 23.9076 24.6126 23.744 24.5067 23.5266L24.2676 23.6431C24.3934 23.9013 24.5708 24.1045 24.8003 24.2478L24.9412 24.0222ZM24.5069 23.527C24.4026 23.311 24.3478 23.0495 24.3478 22.7385H24.0818C24.0818 23.0804 24.142 23.3831 24.2674 23.6427L24.5069 23.527ZM24.3478 22.7385C24.3478 22.5054 24.379 22.2999 24.4392 22.1203L24.187 22.0358C24.1162 22.2471 24.0818 22.4819 24.0818 22.7385H24.3478ZM24.4391 22.1207C24.5007 21.9386 24.5863 21.7872 24.6942 21.6639L24.4942 21.4886C24.3603 21.6414 24.2585 21.8245 24.1871 22.0354L24.4391 22.1207ZM24.6942 21.6639C24.8027 21.5401 24.9301 21.446 25.0775 21.3804L24.9693 21.1374C24.7862 21.2189 24.6276 21.3363 24.4942 21.4886L24.6942 21.6639ZM25.0775 21.3804C25.2241 21.3151 25.3873 21.2815 25.569 21.2815V21.0155C25.3537 21.0155 25.1532 21.0555 24.9693 21.1374L25.0775 21.3804ZM25.569 21.2815C25.7187 21.2815 25.8558 21.3041 25.9815 21.3481L26.0694 21.0971C25.913 21.0423 25.7458 21.0155 25.569 21.0155V21.2815ZM25.9826 21.3485C26.1106 21.3921 26.2231 21.4537 26.3212 21.5331L26.4885 21.3263C26.3648 21.2262 26.2244 21.1498 26.0683 21.0967L25.9826 21.3485ZM26.3222 21.5339C26.4214 21.6125 26.504 21.7067 26.5705 21.8171L26.7984 21.68C26.7157 21.5426 26.6119 21.4241 26.4874 21.3254L26.3222 21.5339ZM26.5707 21.8175C26.6365 21.926 26.6824 22.0473 26.7079 22.1827L26.9693 22.1336C26.9383 21.9687 26.8815 21.817 26.7981 21.6796L26.5707 21.8175ZM26.8386 22.0251H26.4517V22.2911H26.8386V22.0251Z" fill="white"/>
<path d="M29.2342 21.2036H29.609V23.253C29.609 23.4646 29.5592 23.6535 29.4594 23.8197C29.3607 23.985 29.2211 24.1154 29.0408 24.2112C28.8604 24.3059 28.6488 24.3532 28.406 24.3532C28.1632 24.3532 27.9516 24.3059 27.7712 24.2112C27.5909 24.1154 27.4508 23.985 27.3511 23.8197C27.2523 23.6535 27.2029 23.4646 27.2029 23.253V21.2036H27.5778V23.2227C27.5778 23.3739 27.611 23.5084 27.6775 23.6263C27.744 23.7432 27.8387 23.8353 27.9616 23.9029C28.0856 23.9694 28.2337 24.0026 28.406 24.0026C28.5783 24.0026 28.7264 23.9694 28.8503 23.9029C28.9743 23.8353 29.069 23.7432 29.1345 23.6263C29.201 23.5084 29.2342 23.3739 29.2342 23.2227V21.2036Z" fill="#BD0728"/>
<path d="M29.2342 21.2036V21.0706H29.1012V21.2036H29.2342ZM29.609 21.2036H29.742V21.0706H29.609V21.2036ZM29.4594 23.8197L29.3454 23.7513L29.3452 23.7515L29.4594 23.8197ZM29.0408 24.2112L29.1026 24.3289L29.1031 24.3286L29.0408 24.2112ZM27.7712 24.2112L27.7089 24.3286L27.7094 24.3289L27.7712 24.2112ZM27.3511 23.8197L27.2367 23.8876L27.2372 23.8885L27.3511 23.8197ZM27.2029 21.2036V21.0706H27.0699V21.2036H27.2029ZM27.5778 21.2036H27.7108V21.0706H27.5778V21.2036ZM27.6775 23.6263L27.5617 23.6916L27.5619 23.692L27.6775 23.6263ZM27.9616 23.9029L27.8976 24.0194L27.8988 24.02L27.9616 23.9029ZM28.8503 23.9029L28.9132 24.02L28.914 24.0196L28.8503 23.9029ZM29.1345 23.6263L29.0186 23.5609L29.0184 23.5613L29.1345 23.6263ZM29.2342 21.3366H29.609V21.0706H29.2342V21.3366ZM29.476 21.2036V23.253H29.742V21.2036H29.476ZM29.476 23.253C29.476 23.4427 29.4316 23.6076 29.3454 23.7513L29.5735 23.8882C29.6867 23.6994 29.742 23.4864 29.742 23.253H29.476ZM29.3452 23.7515C29.2597 23.8946 29.1387 24.0086 28.9784 24.0937L29.1031 24.3286C29.3036 24.2223 29.4616 24.0753 29.5736 23.8879L29.3452 23.7515ZM28.9789 24.0934C28.821 24.1764 28.6314 24.2202 28.406 24.2202V24.4862C28.6662 24.4862 28.8998 24.4354 29.1026 24.3289L28.9789 24.0934ZM28.406 24.2202C28.1806 24.2202 27.991 24.1764 27.8331 24.0934L27.7094 24.3289C27.9121 24.4354 28.1457 24.4862 28.406 24.4862V24.2202ZM27.8336 24.0937C27.6732 24.0086 27.5515 23.8944 27.4649 23.751L27.2372 23.8885C27.3501 24.0755 27.5085 24.2223 27.7089 24.3286L27.8336 24.0937ZM27.4654 23.7518C27.38 23.608 27.3359 23.443 27.3359 23.253H27.0699C27.0699 23.4861 27.1246 23.6989 27.2367 23.8876L27.4654 23.7518ZM27.3359 23.253V21.2036H27.0699V23.253H27.3359ZM27.2029 21.3366H27.5778V21.0706H27.2029V21.3366ZM27.4448 21.2036V23.2227H27.7108V21.2036H27.4448ZM27.4448 23.2227C27.4448 23.394 27.4827 23.5515 27.5617 23.6916L27.7934 23.5609C27.7394 23.4652 27.7108 23.3537 27.7108 23.2227H27.4448ZM27.5619 23.692C27.6411 23.8312 27.7541 23.9406 27.8976 24.0194L28.0257 23.7863C27.9233 23.7301 27.8469 23.6551 27.7931 23.5605L27.5619 23.692ZM27.8988 24.02C28.0459 24.099 28.2166 24.1356 28.406 24.1356V23.8696C28.2508 23.8696 28.1252 23.8397 28.0245 23.7857L27.8988 24.02ZM28.406 24.1356C28.5953 24.1356 28.7661 24.099 28.9132 24.02L28.7874 23.7857C28.6867 23.8397 28.5612 23.8696 28.406 23.8696V24.1356ZM28.914 24.0196C29.0586 23.9408 29.1721 23.8312 29.2505 23.6913L29.0184 23.5613C28.9659 23.6551 28.8899 23.7299 28.7867 23.7861L28.914 24.0196ZM29.2503 23.6916C29.3293 23.5515 29.3672 23.394 29.3672 23.2227H29.1012C29.1012 23.3537 29.0726 23.4652 29.0186 23.5609L29.2503 23.6916ZM29.3672 23.2227V21.2036H29.1012V23.2227H29.3672Z" fill="white"/>
<path d="M30.8065 24.2988H30.4135L31.5501 21.2036H31.937L33.0735 24.2988H32.6806L31.7556 21.6932H31.7314L30.8065 24.2988ZM30.9516 23.0897H32.5355V23.4222H30.9516V23.0897Z" fill="#BD0728"/>
<path d="M30.8065 24.2988V24.4318H30.9004L30.9318 24.3433L30.8065 24.2988ZM30.4135 24.2988L30.2887 24.253L30.223 24.4318H30.4135V24.2988ZM31.5501 21.2036V21.0706H31.4572L31.4252 21.1577L31.5501 21.2036ZM31.937 21.2036L32.0618 21.1577L32.0298 21.0706H31.937V21.2036ZM33.0735 24.2988V24.4318H33.264L33.1984 24.253L33.0735 24.2988ZM32.6806 24.2988L32.5552 24.3433L32.5866 24.4318H32.6806V24.2988ZM31.7556 21.6932L31.8809 21.6487L31.8495 21.5602H31.7556V21.6932ZM31.7314 21.6932V21.5602H31.6375L31.6061 21.6487L31.7314 21.6932ZM30.9516 23.0897V22.9567H30.8186V23.0897H30.9516ZM32.5355 23.0897H32.6685V22.9567H32.5355V23.0897ZM32.5355 23.4222V23.5552H32.6685V23.4222H32.5355ZM30.9516 23.4222H30.8186V23.5552H30.9516V23.4222ZM30.8065 24.1658H30.4135V24.4318H30.8065V24.1658ZM30.5384 24.3447L31.6749 21.2494L31.4252 21.1577L30.2887 24.253L30.5384 24.3447ZM31.5501 21.3366H31.937V21.0706H31.5501V21.3366ZM31.8121 21.2494L32.9487 24.3447L33.1984 24.253L32.0618 21.1577L31.8121 21.2494ZM33.0735 24.1658H32.6806V24.4318H33.0735V24.1658ZM32.8059 24.2543L31.8809 21.6487L31.6303 21.7377L32.5552 24.3433L32.8059 24.2543ZM31.7556 21.5602H31.7314V21.8262H31.7556V21.5602ZM31.6061 21.6487L30.6811 24.2543L30.9318 24.3433L31.8568 21.7377L31.6061 21.6487ZM30.9516 23.2227H32.5355V22.9567H30.9516V23.2227ZM32.4025 23.0897V23.4222H32.6685V23.0897H32.4025ZM32.5355 23.2892H30.9516V23.5552H32.5355V23.2892ZM31.0846 23.4222V23.0897H30.8186V23.4222H31.0846Z" fill="white"/>
<path d="M33.6092 21.1909H34.0566L35.1085 23.7602H35.1447L36.1966 21.1909H36.644V24.2861H36.2934V21.9345H36.2631L35.2959 24.2861H34.9573L33.9901 21.9345H33.9598V24.2861H33.6092V21.1909Z" fill="#BD0728"/>
<path d="M33.6092 21.1909V21.0579H33.4762V21.1909H33.6092ZM34.0566 21.1909L34.1796 21.1405L34.1458 21.0579H34.0566V21.1909ZM35.1085 23.7602L34.9854 23.8106L35.0192 23.8932H35.1085V23.7602ZM35.1447 23.7602V23.8932H35.234L35.2678 23.8106L35.1447 23.7602ZM36.1966 21.1909V21.0579H36.1074L36.0736 21.1405L36.1966 21.1909ZM36.644 21.1909H36.777V21.0579H36.644V21.1909ZM36.644 24.2861V24.4191H36.777V24.2861H36.644ZM36.2934 24.2861H36.1604V24.4191H36.2934V24.2861ZM36.2934 21.9345H36.4264V21.8015H36.2934V21.9345ZM36.2631 21.9345V21.8015H36.174L36.1401 21.8839L36.2631 21.9345ZM35.2959 24.2861V24.4191H35.385L35.4189 24.3367L35.2959 24.2861ZM34.9573 24.2861L34.8343 24.3367L34.8682 24.4191H34.9573V24.2861ZM33.9901 21.9345L34.1131 21.8839L34.0792 21.8015H33.9901V21.9345ZM33.9598 21.9345V21.8015H33.8268V21.9345H33.9598ZM33.9598 24.2861V24.4191H34.0928V24.2861H33.9598ZM33.6092 24.2861H33.4762V24.4191H33.6092V24.2861ZM33.6092 21.3239H34.0566V21.0579H33.6092V21.3239ZM33.9335 21.2413L34.9854 23.8106L35.2315 23.7098L34.1796 21.1405L33.9335 21.2413ZM35.1085 23.8932H35.1447V23.6272H35.1085V23.8932ZM35.2678 23.8106L36.3197 21.2413L36.0736 21.1405L35.0217 23.7098L35.2678 23.8106ZM36.1966 21.3239H36.644V21.0579H36.1966V21.3239ZM36.511 21.1909V24.2861H36.777V21.1909H36.511ZM36.644 24.1531H36.2934V24.4191H36.644V24.1531ZM36.4264 24.2861V21.9345H36.1604V24.2861H36.4264ZM36.2934 21.8015H36.2631V22.0675H36.2934V21.8015ZM36.1401 21.8839L35.1729 24.2355L35.4189 24.3367L36.3861 21.985L36.1401 21.8839ZM35.2959 24.1531H34.9573V24.4191H35.2959V24.1531ZM35.0803 24.2355L34.1131 21.8839L33.8671 21.985L34.8343 24.3367L35.0803 24.2355ZM33.9901 21.8015H33.9598V22.0675H33.9901V21.8015ZM33.8268 21.9345V24.2861H34.0928V21.9345H33.8268ZM33.9598 24.1531H33.6092V24.4191H33.9598V24.1531ZM33.7422 24.2861V21.1909H33.4762V24.2861H33.7422Z" fill="white"/>
<path fill-rule="evenodd" clip-rule="evenodd" d="M24.3382 15.0839C24.1975 15.3651 24.6757 14.9995 24.7882 14.962C25.4163 14.737 25.66 13.9495 26.7382 14.4276C27.5819 14.7933 28.7163 14.5776 28.1257 14.9526C27.3944 15.3933 25.9225 15.8808 25.8944 18.0651C26.0163 18.2714 26.0257 18.2433 26.1288 18.0089C26.3538 17.5026 27.4132 16.1245 27.9382 16.237C28.1538 16.2933 28.7725 15.6089 28.7819 15.8058C28.8475 16.3495 27.9382 17.4558 27.9569 18.9276C27.9569 19.2745 28.3788 19.387 28.5757 19.1433C28.7819 18.9276 28.8944 18.712 29.2507 18.4308C29.8694 17.9245 29.7007 15.7495 29.7757 15.8526C30.2163 16.4151 30.2819 18.037 30.9382 18.6933C31.4913 19.2464 31.9319 18.9745 31.81 18.2245C31.5757 16.687 30.8538 17.1276 30.5069 15.5433C30.4319 15.2339 30.4132 14.962 30.8257 15.0839C31.3225 15.2339 31.6225 15.4589 31.9882 16.0214C32.3632 16.5651 33.0569 17.0808 33.46 17.3901C34.1632 17.9339 34.4163 17.4651 34.0788 16.7714C33.6502 15.9835 32.9508 15.3774 32.11 15.0651C31.5288 14.8589 31.3225 14.8401 30.8163 14.7464C30.6757 14.7183 30.535 14.4276 30.7788 14.2683C31.321 13.8773 31.9529 13.6291 32.6163 13.5464C33.2444 13.5276 33.7413 14.0339 34.1819 14.1651C35.0632 14.3901 35.0632 13.837 34.6694 13.4151C34.3507 13.0683 33.6757 12.4776 33.0475 12.562C31.7819 12.7214 31.8663 12.6839 31.0788 13.1995C30.7975 13.3683 30.4788 13.5558 30.6007 13.3495C30.8819 12.8339 30.6194 12.9276 31.06 12.4026C31.3975 12.0276 31.6507 11.7464 31.9975 11.6526C32.3163 11.5683 32.7475 11.2308 32.8694 11.0526C33.1882 10.6214 32.9163 10.3683 32.4288 10.5183C31.9975 10.6308 31.7725 10.912 31.4913 10.987C30.7975 11.212 30.2444 12.7683 30.16 12.9933C30.0569 13.2558 29.935 13.1245 29.9538 12.8995C30.0475 11.8026 30.1413 9.94639 29.7663 9.18701C29.1663 8.06201 29.2225 8.58701 28.9975 9.12139C28.66 9.96514 28.7819 10.762 28.9975 11.587C29.0913 11.9995 29.4288 12.4683 29.4944 12.7964C29.5413 13.0495 29.3444 12.7214 29.2319 12.562C28.8663 11.9995 28.5944 11.6245 27.9944 11.3151C27.3951 11.0686 26.7366 11.0034 26.1007 11.1276C25.9319 11.1839 26.2882 11.4276 26.4288 11.5401C26.8319 11.8589 27.5913 11.962 28.1163 12.2808C28.5475 12.5526 28.885 12.7214 29.035 13.0964C29.0913 13.3776 29.185 13.7901 28.9975 13.7808C28.5194 13.7526 27.7788 13.3308 26.2413 13.4995C25.4538 13.612 24.7788 14.2776 24.3382 15.0839Z" fill="#239E46"/>
<path fill-rule="evenodd" clip-rule="evenodd" d="M27.6875 29.1191H28.1281V29.8598H27.6875V29.1191Z" fill="black"/>
<path fill-rule="evenodd" clip-rule="evenodd" d="M25.4719 24.1777C27.2344 26.6152 30.0656 28.0402 30.1219 29.1465H24.6094C25.875 27.6277 26.6531 26.5965 25.4719 24.1777Z" fill="#FDF9FF"/>
<path fill-rule="evenodd" clip-rule="evenodd" d="M23.8694 29.2029C26.2694 29.7373 29.1288 30.0373 30.9569 29.1279C30.9756 29.6623 30.3663 30.4404 29.86 30.4404H25.2663C25.8006 30.3561 26.11 30.1967 26.9725 30.1592L24.535 30.1779C24.2538 30.1873 23.785 29.4654 23.8694 29.2029Z" fill="#A68861"/>
<path fill-rule="evenodd" clip-rule="evenodd" d="M29.3039 39.8436C29.5477 39.9842 29.932 39.9749 30.1477 39.8624C44.0039 32.4842 44.0133 12.2624 30.1664 4.98736C30.0278 4.92318 29.8763 4.89151 29.7236 4.89476C29.5709 4.89801 29.4209 4.93609 29.2852 5.00611C15.7852 12.3936 15.7477 32.3811 29.3039 39.853V39.8436ZM29.3695 38.1842C29.486 38.2415 29.6137 38.2721 29.7435 38.2737C29.8732 38.2753 30.0017 38.248 30.1195 38.1936C41.707 31.3686 41.8477 13.3405 30.1289 6.88111C29.9039 6.71236 29.5758 6.76861 29.3508 6.88111C18.2508 13.453 17.632 30.7405 29.3695 38.1842Z" fill="#BE0027"/>
<path d="M25.2031 21.1309C25.4156 21.1309 25.6031 21.1746 25.7656 21.2621C25.9844 21.3746 26.1188 21.5809 26.1688 21.8809H25.8781C25.8406 21.7184 25.7594 21.5934 25.6344 21.5059C25.5219 21.4309 25.375 21.3934 25.1938 21.3934C24.9875 21.3934 24.8094 21.4777 24.6594 21.6465C24.5156 21.8027 24.4438 22.0402 24.4438 22.359C24.4438 22.6215 24.5031 22.8402 24.6219 23.0152C24.7469 23.184 24.9438 23.2684 25.2125 23.2684C25.4188 23.2684 25.5875 23.209 25.7188 23.0902C25.8625 22.9715 25.9344 22.7777 25.9344 22.509H25.2219V22.2559H26.2156V23.4746H26.0188L25.9438 23.1746C25.8438 23.2934 25.75 23.3777 25.6625 23.4277C25.525 23.5027 25.3531 23.5402 25.1469 23.5402C24.8781 23.5402 24.6438 23.4527 24.4438 23.2777C24.2313 23.0527 24.125 22.7496 24.125 22.3684C24.125 21.9871 24.2281 21.684 24.4344 21.459C24.6344 21.2402 24.8906 21.1309 25.2031 21.1309Z" fill="#BD0728"/>
<path d="M27.4125 21.1969V22.6219C27.4125 22.7844 27.4437 22.9188 27.5062 23.025C27.5937 23.1938 27.75 23.2781 27.975 23.2781C28.2312 23.2781 28.4094 23.1906 28.5094 23.0156C28.5594 22.9156 28.5844 22.7844 28.5844 22.6219V21.1875H28.9031V22.4813C28.9031 22.7563 28.8594 22.975 28.7719 23.1375C28.6406 23.4063 28.3844 23.5406 28.0031 23.5406C27.6094 23.5406 27.3438 23.4031 27.2063 23.1281C27.1313 22.9719 27.0938 22.7563 27.0938 22.4813V21.1875L27.4125 21.1969Z" fill="#BD0728"/>
<path d="M31.7281 22.5469L31.3813 21.5438L31.0063 22.5469H31.7281ZM31.2219 21.1875H31.5688L32.4125 23.4844H32.0563L31.8313 22.8H30.9219L30.6688 23.4844H30.3594L31.2219 21.1875Z" fill="#BD0728"/>
<path d="M33.4688 21.1875H33.9281L34.575 23.1281L35.2312 21.1875H35.6719V23.475H35.3719V21.5438L34.7156 23.475H34.425L33.7688 21.5438V23.475H33.4688V21.1875Z" fill="#BD0728"/>
</svg>
