<svg width="60" height="45" viewBox="0 0 60 45" fill="none" xmlns="http://www.w3.org/2000/svg">
<path d="M0 0H60V45H0V0Z" fill="#74ACDF"/>
<path d="M0 15H60V30H0V15Z" fill="white"/>
<path d="M29.7188 22.617L32.2838 28.197C32.2838 28.197 32.3288 28.305 32.4008 28.278C32.4728 28.242 32.4278 28.134 32.4278 28.134L30.2948 22.374M30.2318 24.552C30.1958 25.398 30.7178 25.866 30.6548 26.622C30.5828 27.387 30.9968 27.81 31.1048 28.107C31.1948 28.404 30.9968 28.575 31.0778 28.62C31.1678 28.665 31.3478 28.431 31.2938 28.008C31.2308 27.594 30.9158 27.468 30.9878 26.541C31.0598 25.614 30.6098 25.398 30.7178 24.561" fill="#F6B40E"/>
<path d="M29.7188 22.617L32.2838 28.197C32.2838 28.197 32.3288 28.305 32.4008 28.278C32.4728 28.242 32.4278 28.134 32.4278 28.134L30.2948 22.374M30.2318 24.552C30.1958 25.398 30.7178 25.866 30.6548 26.622C30.5828 27.387 30.9968 27.81 31.1048 28.107C31.1948 28.404 30.9968 28.575 31.0778 28.62C31.1678 28.665 31.3478 28.431 31.2938 28.008C31.2308 27.594 30.9158 27.468 30.9878 26.541C31.0598 25.614 30.6098 25.398 30.7178 24.561" stroke="#85340A" stroke-width="0.132"/>
<path d="M29.6961 22.4979L29.9304 28.6348C29.9304 28.6348 29.9307 28.7518 30.0075 28.7544C30.0878 28.7487 30.0876 28.6317 30.0876 28.6317L30.3212 22.4939M29.4295 24.482C29.0725 25.2498 29.3757 25.8819 29.0282 26.5563C28.6689 27.2355 28.8895 27.7847 28.8756 28.1004C28.8451 28.4093 28.5968 28.4915 28.6544 28.5641C28.7203 28.6401 28.9761 28.4928 29.0881 28.0813C29.1884 27.6747 28.9456 27.4378 29.3668 26.6089C29.7881 25.78 29.455 25.4082 29.8751 24.6763" fill="#F6B40E"/>
<path d="M29.6961 22.4979L29.9304 28.6348C29.9304 28.6348 29.9307 28.7518 30.0075 28.7544C30.0878 28.7487 30.0876 28.6317 30.0876 28.6317L30.3212 22.4939M29.4295 24.482C29.0725 25.2498 29.3757 25.8819 29.0282 26.5563C28.6689 27.2355 28.8895 27.7847 28.8756 28.1004C28.8451 28.4093 28.5968 28.4915 28.6544 28.5641C28.7203 28.6401 28.9761 28.4928 29.0881 28.0813C29.1884 27.6747 28.9456 27.4378 29.3668 26.6089C29.7881 25.78 29.455 25.4082 29.8751 24.6763" stroke="#85340A" stroke-width="0.132"/>
<path d="M29.7188 22.3789L27.5869 28.1382C27.5869 28.1382 27.5423 28.2464 27.6123 28.2783C27.6887 28.3037 27.7332 28.1955 27.7332 28.1955L30.2979 22.6143M28.7133 24.1099C28.0896 24.6826 28.1278 25.3826 27.5487 25.8727C26.9568 26.3627 26.9505 26.9545 26.8168 27.2409C26.6705 27.5146 26.4095 27.4955 26.435 27.5846C26.4668 27.68 26.7596 27.6419 27.0205 27.3046C27.2687 26.9673 27.135 26.6554 27.8414 26.0509C28.5478 25.4463 28.3824 24.9754 29.0506 24.4599" fill="#F6B40E"/>
<path d="M29.7188 22.3789L27.5869 28.1382C27.5869 28.1382 27.5423 28.2464 27.6123 28.2783C27.6887 28.3037 27.7332 28.1955 27.7332 28.1955L30.2979 22.6143M28.7133 24.1099C28.0896 24.6826 28.1278 25.3826 27.5487 25.8727C26.9568 26.3627 26.9505 26.9545 26.8168 27.2409C26.6705 27.5146 26.4095 27.4955 26.435 27.5846C26.4668 27.68 26.7596 27.6419 27.0205 27.3046C27.2687 26.9673 27.135 26.6554 27.8414 26.0509C28.5478 25.4463 28.3824 24.9754 29.0506 24.4599" stroke="#85340A" stroke-width="0.132"/>
<path d="M29.7833 22.2785L25.6096 26.7837C25.6096 26.7837 25.5271 26.8666 25.5796 26.9228C25.6404 26.9755 25.723 26.8926 25.723 26.8926L30.2282 22.7177M28.1919 23.493C27.3965 23.7835 27.1639 24.4448 26.4414 24.6759C25.707 24.9022 25.4747 25.4465 25.2416 25.66C25.0017 25.8568 24.7679 25.7393 24.7573 25.8313C24.7502 25.9317 25.0353 26.0085 25.4054 25.7967C25.7638 25.5801 25.7596 25.2408 26.6436 24.9526C27.5276 24.6644 27.555 24.166 28.3696 23.9454" fill="#F6B40E"/>
<path d="M29.7833 22.2785L25.6096 26.7837C25.6096 26.7837 25.5271 26.8666 25.5796 26.9228C25.6404 26.9755 25.723 26.8926 25.723 26.8926L30.2282 22.7177M28.1919 23.493C27.3965 23.7835 27.1639 24.4448 26.4414 24.6759C25.707 24.9022 25.4747 25.4465 25.2416 25.66C25.0017 25.8568 24.7679 25.7393 24.7573 25.8313C24.7502 25.9317 25.0353 26.0085 25.4054 25.7967C25.7638 25.5801 25.7596 25.2408 26.6436 24.9526C27.5276 24.6644 27.555 24.166 28.3696 23.9454" stroke="#85340A" stroke-width="0.132"/>
<path d="M30.3904 24.6963C30.4354 25.5063 30.8944 25.8663 30.8044 26.6133C31.0024 26.0283 30.5254 25.5693 30.5524 24.7053M29.8594 22.5633L31.6144 26.3973L30.1474 22.4463" fill="#85340A"/>
<path d="M29.5202 24.6765C29.2518 25.442 29.5381 25.9503 29.169 26.606C29.5758 26.1413 29.3108 25.5347 29.6664 24.7468M29.8459 22.5026L30.0001 26.7164L30.1567 22.5047" fill="#85340A"/>
<path d="M28.722 24.3258C28.181 24.9304 28.251 25.5095 27.6592 25.9741C28.2129 25.7005 28.2001 25.0386 28.8302 24.4468M29.8548 22.4421L28.3847 26.3941L30.1411 22.563" fill="#85340A"/>
<path d="M28.1245 23.6973C27.3934 24.0489 27.2364 24.6107 26.5118 24.8134C27.1281 24.7725 27.3696 24.1561 28.1782 23.8504M29.8919 22.3905L27.0214 25.4791L30.1102 22.6118" fill="#85340A"/>
<path d="M29.882 22.2119L24.302 24.7769C24.302 24.7769 24.194 24.8219 24.221 24.8939C24.257 24.9659 24.365 24.9209 24.365 24.9209L30.125 22.7879M27.947 22.7249C27.101 22.6889 26.633 23.2109 25.877 23.1479C25.112 23.0759 24.689 23.4899 24.392 23.5979C24.095 23.6879 23.924 23.4899 23.879 23.5709C23.834 23.6609 24.068 23.8409 24.491 23.7869C24.905 23.7239 25.031 23.4089 25.958 23.4809C26.885 23.5529 27.101 23.1029 27.938 23.2109" fill="#F6B40E"/>
<path d="M29.882 22.2119L24.302 24.7769C24.302 24.7769 24.194 24.8219 24.221 24.8939C24.257 24.9659 24.365 24.9209 24.365 24.9209L30.125 22.7879M27.947 22.7249C27.101 22.6889 26.633 23.2109 25.877 23.1479C25.112 23.0759 24.689 23.4899 24.392 23.5979C24.095 23.6879 23.924 23.4899 23.879 23.5709C23.834 23.6609 24.068 23.8409 24.491 23.7869C24.905 23.7239 25.031 23.4089 25.958 23.4809C26.885 23.5529 27.101 23.1029 27.938 23.2109" stroke="#85340A" stroke-width="0.132"/>
<path d="M30.0021 22.1892L23.8652 22.4236C23.8652 22.4236 23.7482 22.4239 23.7456 22.5007C23.7513 22.581 23.8683 22.5808 23.8683 22.5808L30.0061 22.8144M28.018 21.9227C27.2502 21.5657 26.6181 21.8689 25.9437 21.5213C25.2645 21.1621 24.7153 21.3827 24.3996 21.3688C24.0907 21.3383 24.0085 21.0899 23.9359 21.1475C23.8599 21.2135 24.0072 21.4693 24.4187 21.5813C24.8253 21.6815 25.0622 21.4387 25.8911 21.86C26.72 22.2813 27.0918 21.9482 27.8237 22.3683" fill="#F6B40E"/>
<path d="M30.0021 22.1892L23.8652 22.4236C23.8652 22.4236 23.7482 22.4239 23.7456 22.5007C23.7513 22.581 23.8683 22.5808 23.8683 22.5808L30.0061 22.8144M28.018 21.9227C27.2502 21.5657 26.6181 21.8689 25.9437 21.5213C25.2645 21.1621 24.7153 21.3827 24.3996 21.3688C24.0907 21.3383 24.0085 21.0899 23.9359 21.1475C23.8599 21.2135 24.0072 21.4693 24.4187 21.5813C24.8253 21.6815 25.0622 21.4387 25.8911 21.86C26.72 22.2813 27.0918 21.9482 27.8237 22.3683" stroke="#85340A" stroke-width="0.132"/>
<path d="M30.1172 22.2139L24.3579 20.082C24.3579 20.082 24.2497 20.0374 24.2178 20.1074C24.1924 20.1838 24.3006 20.2284 24.3006 20.2284L29.8818 22.793M28.3862 21.2084C27.8135 20.5847 27.1134 20.6229 26.6234 20.0438C26.1334 19.452 25.5415 19.4456 25.2552 19.312C24.9815 19.1656 25.0006 18.9047 24.9115 18.9301C24.8161 18.9619 24.8542 19.2547 25.1915 19.5156C25.5288 19.7638 25.8407 19.6301 26.4452 20.3365C27.0498 21.0429 27.5207 20.8775 28.0362 21.5457" fill="#F6B40E"/>
<path d="M30.1172 22.2139L24.3579 20.082C24.3579 20.082 24.2497 20.0374 24.2178 20.1074C24.1924 20.1838 24.3006 20.2284 24.3006 20.2284L29.8818 22.793M28.3862 21.2084C27.8135 20.5847 27.1134 20.6229 26.6234 20.0438C26.1334 19.452 25.5415 19.4456 25.2552 19.312C24.9815 19.1656 25.0006 18.9047 24.9115 18.9301C24.8161 18.9619 24.8542 19.2547 25.1915 19.5156C25.5288 19.7638 25.8407 19.6301 26.4452 20.3365C27.0498 21.0429 27.5207 20.8775 28.0362 21.5457" stroke="#85340A" stroke-width="0.132"/>
<path d="M30.2195 22.2814L25.7144 18.1077C25.7144 18.1077 25.6315 18.0251 25.5753 18.0776C25.5225 18.1384 25.6055 18.221 25.6055 18.221L29.7803 22.7263M29.0051 20.69C28.7146 19.8946 28.0532 19.662 27.8221 18.9394C27.5959 18.2051 27.0515 17.9727 26.8381 17.7397C26.6413 17.4997 26.7588 17.266 26.6667 17.2554C26.5663 17.2482 26.4896 17.5333 26.7014 17.9034C26.918 18.2618 27.2572 18.2577 27.5455 19.1417C27.8337 20.0257 28.3321 20.053 28.5526 20.8676" fill="#F6B40E"/>
<path d="M30.2195 22.2814L25.7144 18.1077C25.7144 18.1077 25.6315 18.0251 25.5753 18.0776C25.5225 18.1384 25.6055 18.221 25.6055 18.221L29.7803 22.7263M29.0051 20.69C28.7146 19.8946 28.0532 19.662 27.8221 18.9394C27.5959 18.2051 27.0515 17.9727 26.8381 17.7397C26.6413 17.4997 26.7588 17.266 26.6667 17.2554C26.5663 17.2482 26.4896 17.5333 26.7014 17.9034C26.918 18.2618 27.2572 18.2577 27.5455 19.1417C27.8337 20.0257 28.3321 20.053 28.5526 20.8676" stroke="#85340A" stroke-width="0.132"/>
<path d="M27.8047 22.8865C26.9947 22.9315 26.6347 23.3905 25.8877 23.3005C26.4727 23.4985 26.9317 23.0215 27.7957 23.0485M29.9377 22.3555L26.1037 24.1105L30.0547 22.6435" fill="#85340A"/>
<path d="M27.8196 22.0172C27.0541 21.7488 26.5458 22.0351 25.8901 21.6661C26.3548 22.0729 26.9614 21.8079 27.7493 22.1635M29.9935 22.3429L25.7797 22.4971L29.9913 22.6538" fill="#85340A"/>
<path d="M28.1742 21.221C27.5696 20.6801 26.9905 20.7501 26.5259 20.1582C26.7995 20.7119 27.4614 20.6992 28.0532 21.3292M30.0579 22.3538L26.1059 20.8837L29.937 22.6402" fill="#85340A"/>
<path d="M28.7968 20.6196C28.4453 19.8885 27.8834 19.7315 27.6807 19.0069C27.7217 19.6232 28.338 19.8647 28.6437 20.6733M30.1037 22.387L27.015 19.5165L29.8824 22.6053" fill="#85340A"/>
<path d="M30.2812 22.383L27.7162 16.803C27.7162 16.803 27.6712 16.695 27.5992 16.722C27.5272 16.758 27.5722 16.866 27.5722 16.866L29.7052 22.626M29.7682 20.448C29.8042 19.602 29.2822 19.134 29.3452 18.378C29.4172 17.613 29.0032 17.19 28.8952 16.893C28.8052 16.596 29.0032 16.425 28.9222 16.38C28.8322 16.335 28.6522 16.569 28.7062 16.992C28.7692 17.406 29.0842 17.532 29.0122 18.459C28.9402 19.386 29.3902 19.602 29.2822 20.439" fill="#F6B40E"/>
<path d="M30.2812 22.383L27.7162 16.803C27.7162 16.803 27.6712 16.695 27.5992 16.722C27.5272 16.758 27.5722 16.866 27.5722 16.866L29.7052 22.626M29.7682 20.448C29.8042 19.602 29.2822 19.134 29.3452 18.378C29.4172 17.613 29.0032 17.19 28.8952 16.893C28.8052 16.596 29.0032 16.425 28.9222 16.38C28.8322 16.335 28.6522 16.569 28.7062 16.992C28.7692 17.406 29.0842 17.532 29.0122 18.459C28.9402 19.386 29.3902 19.602 29.2822 20.439" stroke="#85340A" stroke-width="0.132"/>
<path d="M30.3039 22.5021L30.0696 16.3652C30.0696 16.3652 30.0693 16.2482 29.9925 16.2456C29.9122 16.2513 29.9124 16.3683 29.9124 16.3683L29.6788 22.5061M30.5705 20.518C30.9275 19.7502 30.6243 19.1181 30.9718 18.4437C31.3311 17.7645 31.1105 17.2153 31.1244 16.8996C31.1549 16.5907 31.4032 16.5085 31.3456 16.4359C31.2797 16.3599 31.0239 16.5072 30.9119 16.9187C30.8116 17.3253 31.0544 17.5622 30.6332 18.3911C30.2119 19.22 30.545 19.5918 30.1249 20.3237" fill="#F6B40E"/>
<path d="M30.3039 22.5021L30.0696 16.3652C30.0696 16.3652 30.0693 16.2482 29.9925 16.2456C29.9122 16.2513 29.9124 16.3683 29.9124 16.3683L29.6788 22.5061M30.5705 20.518C30.9275 19.7502 30.6243 19.1181 30.9718 18.4437C31.3311 17.7645 31.1105 17.2153 31.1244 16.8996C31.1549 16.5907 31.4032 16.5085 31.3456 16.4359C31.2797 16.3599 31.0239 16.5072 30.9119 16.9187C30.8116 17.3253 31.0544 17.5622 30.6332 18.3911C30.2119 19.22 30.545 19.5918 30.1249 20.3237" stroke="#85340A" stroke-width="0.132"/>
<path d="M30.2812 22.6211L32.4131 16.8618C32.4131 16.8618 32.4577 16.7536 32.3877 16.7217C32.3113 16.6963 32.2668 16.8045 32.2668 16.8045L29.7021 22.3857M31.2867 20.8901C31.9104 20.3174 31.8722 19.6174 32.4513 19.1273C33.0432 18.6373 33.0495 18.0455 33.1832 17.7591C33.3295 17.4854 33.5905 17.5045 33.565 17.4154C33.5332 17.32 33.2404 17.3581 32.9795 17.6954C32.7313 18.0327 32.865 18.3446 32.1586 18.9491C31.4522 19.5537 31.6176 20.0246 30.9494 20.5401" fill="#F6B40E"/>
<path d="M30.2812 22.6211L32.4131 16.8618C32.4131 16.8618 32.4577 16.7536 32.3877 16.7217C32.3113 16.6963 32.2668 16.8045 32.2668 16.8045L29.7021 22.3857M31.2867 20.8901C31.9104 20.3174 31.8722 19.6174 32.4513 19.1273C33.0432 18.6373 33.0495 18.0455 33.1832 17.7591C33.3295 17.4854 33.5905 17.5045 33.565 17.4154C33.5332 17.32 33.2404 17.3581 32.9795 17.6954C32.7313 18.0327 32.865 18.3446 32.1586 18.9491C31.4522 19.5537 31.6176 20.0246 30.9494 20.5401" stroke="#85340A" stroke-width="0.132"/>
<path d="M30.2167 22.7215L34.3904 18.2163C34.3904 18.2163 34.4729 18.1334 34.4204 18.0772C34.3596 18.0245 34.277 18.1074 34.277 18.1074L29.7718 22.2823M31.8081 21.507C32.6035 21.2165 32.8361 20.5552 33.5586 20.3241C34.293 20.0978 34.5253 19.5535 34.7584 19.34C34.9983 19.1432 35.2321 19.2607 35.2427 19.1687C35.2498 19.0683 34.9647 18.9915 34.5946 19.2033C34.2362 19.4199 34.2404 19.7592 33.3564 20.0474C32.4724 20.3356 32.445 20.834 31.6304 21.0546" fill="#F6B40E"/>
<path d="M30.2167 22.7215L34.3904 18.2163C34.3904 18.2163 34.4729 18.1334 34.4204 18.0772C34.3596 18.0245 34.277 18.1074 34.277 18.1074L29.7718 22.2823M31.8081 21.507C32.6035 21.2165 32.8361 20.5552 33.5586 20.3241C34.293 20.0978 34.5253 19.5535 34.7584 19.34C34.9983 19.1432 35.2321 19.2607 35.2427 19.1687C35.2498 19.0683 34.9647 18.9915 34.5946 19.2033C34.2362 19.4199 34.2404 19.7592 33.3564 20.0474C32.4724 20.3356 32.445 20.834 31.6304 21.0546" stroke="#85340A" stroke-width="0.132"/>
<path d="M29.6096 20.3037C29.5646 19.4937 29.1056 19.1337 29.1956 18.3867C28.9976 18.9717 29.4746 19.4307 29.4476 20.2947M30.1406 22.4367L28.3856 18.6027L29.8526 22.5537" fill="#85340A"/>
<path d="M30.4798 20.3235C30.7482 19.558 30.4619 19.0497 30.831 18.394C30.4242 18.8587 30.6892 19.4653 30.3336 20.2532M30.1541 22.4974L29.9999 18.2836L29.8433 22.4953" fill="#85340A"/>
<path d="M31.278 20.6742C31.819 20.0696 31.749 19.4905 32.3408 19.0259C31.7871 19.2995 31.7999 19.9614 31.1698 20.5532M30.1452 22.5579L31.6153 18.6059L29.8589 22.437" fill="#85340A"/>
<path d="M31.8755 21.3027C32.6066 20.9511 32.7636 20.3893 33.4882 20.1866C32.8719 20.2275 32.6304 20.8439 31.8218 21.1496M30.1081 22.6095L32.9786 19.5209L29.8898 22.3882" fill="#85340A"/>
<path d="M30.118 22.7881L35.698 20.2231C35.698 20.2231 35.806 20.1781 35.779 20.1061C35.743 20.0341 35.635 20.0791 35.635 20.0791L29.875 22.2121M32.053 22.2751C32.899 22.3111 33.367 21.7891 34.123 21.8521C34.888 21.9241 35.311 21.5101 35.608 21.4021C35.905 21.3121 36.076 21.5101 36.121 21.4291C36.166 21.3391 35.932 21.1591 35.509 21.2131C35.095 21.2761 34.969 21.5911 34.042 21.5191C33.115 21.4471 32.899 21.8971 32.062 21.7891" fill="#F6B40E"/>
<path d="M30.118 22.7881L35.698 20.2231C35.698 20.2231 35.806 20.1781 35.779 20.1061C35.743 20.0341 35.635 20.0791 35.635 20.0791L29.875 22.2121M32.053 22.2751C32.899 22.3111 33.367 21.7891 34.123 21.8521C34.888 21.9241 35.311 21.5101 35.608 21.4021C35.905 21.3121 36.076 21.5101 36.121 21.4291C36.166 21.3391 35.932 21.1591 35.509 21.2131C35.095 21.2761 34.969 21.5911 34.042 21.5191C33.115 21.4471 32.899 21.8971 32.062 21.7891" stroke="#85340A" stroke-width="0.132"/>
<path d="M29.9979 22.8108L36.1348 22.5764C36.1348 22.5764 36.2518 22.5761 36.2544 22.4993C36.2487 22.419 36.1317 22.4192 36.1317 22.4192L29.9939 22.1856M31.982 23.0773C32.7498 23.4343 33.3819 23.1311 34.0563 23.4787C34.7355 23.8379 35.2847 23.6173 35.6004 23.6312C35.9093 23.6617 35.9915 23.9101 36.0641 23.8525C36.1401 23.7865 35.9928 23.5307 35.5813 23.4187C35.1747 23.3185 34.9378 23.5613 34.1089 23.14C33.28 22.7187 32.9082 23.0518 32.1763 22.6317" fill="#F6B40E"/>
<path d="M29.9979 22.8108L36.1348 22.5764C36.1348 22.5764 36.2518 22.5761 36.2544 22.4993C36.2487 22.419 36.1317 22.4192 36.1317 22.4192L29.9939 22.1856M31.982 23.0773C32.7498 23.4343 33.3819 23.1311 34.0563 23.4787C34.7355 23.8379 35.2847 23.6173 35.6004 23.6312C35.9093 23.6617 35.9915 23.9101 36.0641 23.8525C36.1401 23.7865 35.9928 23.5307 35.5813 23.4187C35.1747 23.3185 34.9378 23.5613 34.1089 23.14C33.28 22.7187 32.9082 23.0518 32.1763 22.6317" stroke="#85340A" stroke-width="0.132"/>
<path d="M29.8828 22.7861L35.6421 24.918C35.6421 24.918 35.7503 24.9626 35.7822 24.8926C35.8076 24.8162 35.6994 24.7716 35.6994 24.7716L30.1182 22.207M31.6138 23.7916C32.1865 24.4153 32.8866 24.3771 33.3766 24.9562C33.8666 25.548 34.4585 25.5544 34.7448 25.688C35.0185 25.8344 34.9994 26.0953 35.0885 26.0699C35.1839 26.0381 35.1458 25.7453 34.8085 25.4844C34.4712 25.2362 34.1593 25.3699 33.5548 24.6635C32.9502 23.9571 32.4793 24.1225 31.9638 23.4543" fill="#F6B40E"/>
<path d="M29.8828 22.7861L35.6421 24.918C35.6421 24.918 35.7503 24.9626 35.7822 24.8926C35.8076 24.8162 35.6994 24.7716 35.6994 24.7716L30.1182 22.207M31.6138 23.7916C32.1865 24.4153 32.8866 24.3771 33.3766 24.9562C33.8666 25.548 34.4585 25.5544 34.7448 25.688C35.0185 25.8344 34.9994 26.0953 35.0885 26.0699C35.1839 26.0381 35.1458 25.7453 34.8085 25.4844C34.4712 25.2362 34.1593 25.3699 33.5548 24.6635C32.9502 23.9571 32.4793 24.1225 31.9638 23.4543" stroke="#85340A" stroke-width="0.132"/>
<path d="M29.7805 22.7186L34.2856 26.8923C34.2856 26.8923 34.3685 26.9749 34.4247 26.9224C34.4775 26.8616 34.3945 26.779 34.3945 26.779L30.2197 22.2737M30.9949 24.31C31.2854 25.1054 31.9468 25.338 32.1779 26.0606C32.4041 26.7949 32.9485 27.0273 33.1619 27.2603C33.3587 27.5003 33.2412 27.734 33.3333 27.7446C33.4337 27.7518 33.5104 27.4667 33.2986 27.0966C33.082 26.7382 32.7428 26.7423 32.4545 25.8583C32.1663 24.9743 31.6679 24.947 31.4474 24.1324" fill="#F6B40E"/>
<path d="M29.7805 22.7186L34.2856 26.8923C34.2856 26.8923 34.3685 26.9749 34.4247 26.9224C34.4775 26.8616 34.3945 26.779 34.3945 26.779L30.2197 22.2737M30.9949 24.31C31.2854 25.1054 31.9468 25.338 32.1779 26.0606C32.4041 26.7949 32.9485 27.0273 33.1619 27.2603C33.3587 27.5003 33.2412 27.734 33.3333 27.7446C33.4337 27.7518 33.5104 27.4667 33.2986 27.0966C33.082 26.7382 32.7428 26.7423 32.4545 25.8583C32.1663 24.9743 31.6679 24.947 31.4474 24.1324" stroke="#85340A" stroke-width="0.132"/>
<path d="M32.1953 22.1135C33.0053 22.0685 33.3653 21.6095 34.1123 21.6995C33.5273 21.5015 33.0683 21.9785 32.2043 21.9515M30.0623 22.6445L33.8963 20.8895L29.9453 22.3565" fill="#85340A"/>
<path d="M32.1804 22.9828C32.9459 23.2512 33.4542 22.9649 34.1099 23.3339C33.6452 22.9271 33.0386 23.1921 32.2507 22.8365M30.0065 22.6571L34.2203 22.5029L30.0087 22.3462" fill="#85340A"/>
<path d="M31.8258 23.779C32.4304 24.3199 33.0095 24.2499 33.4741 24.8418C33.2005 24.2881 32.5386 24.3008 31.9468 23.6708M29.9421 22.6462L33.8941 24.1163L30.063 22.3598" fill="#85340A"/>
<path d="M31.2032 24.3804C31.5547 25.1115 32.1166 25.2685 32.3193 25.9931C32.2783 25.3768 31.662 25.1353 31.3563 24.3267M29.8963 22.613L32.985 25.4835L30.1176 22.3947" fill="#85340A"/>
<path d="M30.0031 25.0033C31.3856 25.0033 32.5063 23.8826 32.5063 22.5002C32.5063 21.1178 31.3856 19.9971 30.0031 19.9971C28.6207 19.9971 27.5 21.1178 27.5 22.5002C27.5 23.8826 28.6207 25.0033 30.0031 25.0033Z" fill="#F6B40E" stroke="#85340A" stroke-width="0.175"/>
<path d="M30.8438 21.9658C30.6844 21.9658 30.5156 22.0408 30.4219 22.1908C30.6094 22.3689 31.0406 22.3783 31.3313 22.1721C31.2698 22.1069 31.1957 22.055 31.1135 22.0195C31.0313 21.984 30.9427 21.9658 30.8531 21.9658H30.8438ZM30.8438 22.0033C31.0125 22.0033 31.1719 22.0783 31.1906 22.1533C31.0031 22.3689 30.6937 22.3408 30.4969 22.1908C30.5906 22.0596 30.7219 22.0033 30.8531 22.0033H30.8438Z" fill="#843511"/>
<path d="M30.8831 21.8438C30.63 21.8438 30.5738 21.9 30.4613 22.0031C30.3488 22.0969 30.2831 22.0781 30.2738 22.0969C30.2456 22.1156 30.2738 22.1719 30.3019 22.1531C30.3488 22.1344 30.4238 22.0969 30.5363 22.0031C30.6488 21.9094 30.7706 21.9094 30.8831 21.9094C31.23 21.9094 31.4175 22.1906 31.455 22.1719C31.5019 22.1531 31.2675 21.8438 30.8831 21.8438Z" fill="#85340A"/>
<path d="M31.5781 21.9653C31.1375 21.581 30.575 21.5153 30.2656 21.806C30.1944 21.8997 30.1462 22.0089 30.125 22.1247C30.0875 22.3497 30.1531 22.5841 30.3219 22.8278L30.2469 22.8653C30.0969 22.5747 30.0406 22.2747 30.0969 21.9841L30.1531 21.7685C30.575 21.4216 31.1562 21.3935 31.5781 21.956V21.9653Z" fill="#85340A"/>
<path d="M30.8406 22.3219C30.9338 22.3219 31.0094 22.2463 31.0094 22.1531C31.0094 22.0599 30.9338 21.9844 30.8406 21.9844C30.7474 21.9844 30.6719 22.0599 30.6719 22.1531C30.6719 22.2463 30.7474 22.3219 30.8406 22.3219Z" fill="#85340A"/>
<path d="M31.3438 22.266C31.0156 22.5191 30.6875 22.5004 30.5 22.3879C30.3125 22.266 30.3125 22.2285 30.35 22.2285C30.3875 22.2285 30.425 22.266 30.575 22.3504C30.7344 22.4254 30.9594 22.4254 31.3438 22.266Z" fill="#85340A"/>
<path d="M29.6219 22.8467C29.5958 22.8528 29.5716 22.8651 29.5512 22.8824C29.5309 22.8998 29.5149 22.9218 29.5047 22.9465C29.4945 22.9712 29.4903 22.998 29.4925 23.0247C29.4947 23.0514 29.5032 23.0772 29.5173 23.0999C29.5314 23.1226 29.5507 23.1417 29.5737 23.1555C29.5966 23.1693 29.6225 23.1774 29.6492 23.1793C29.6759 23.1811 29.7026 23.1765 29.7272 23.166C29.7518 23.1554 29.7735 23.1392 29.7906 23.1186C29.8525 23.1569 29.9241 23.1765 29.9969 23.1748H30.0156C30.0719 23.1748 30.1656 23.1654 30.2312 23.1186C30.2594 23.1654 30.3156 23.1842 30.3719 23.1842C30.4166 23.1879 30.461 23.1737 30.4953 23.1447C30.5296 23.1157 30.551 23.0742 30.5547 23.0295C30.5584 22.9847 30.5442 22.9403 30.5152 22.906C30.4862 22.8718 30.4448 22.8504 30.4 22.8467C30.4469 22.8654 30.475 22.9029 30.475 22.9592C30.475 22.989 30.4631 23.0176 30.442 23.0387C30.421 23.0598 30.3923 23.0717 30.3625 23.0717C30.3327 23.0717 30.304 23.0598 30.283 23.0387C30.2619 23.0176 30.25 22.989 30.25 22.9592C30.2278 23.0055 30.1933 23.0448 30.1504 23.0729C30.1074 23.101 30.0576 23.1168 30.0062 23.1186C29.9566 23.1151 29.9087 23.0986 29.8675 23.0705C29.8263 23.0425 29.7933 23.0041 29.7719 22.9592C29.7719 23.0248 29.7156 23.0717 29.65 23.0717C29.5937 23.0717 29.5375 23.0154 29.5375 22.9592C29.5375 22.9029 29.5656 22.8654 29.6125 22.8467H29.6219ZM29.8094 23.3529C29.6125 23.3529 29.5281 23.5404 29.3594 23.6436C29.4531 23.6061 29.5281 23.5311 29.6687 23.4561C29.8 23.3811 29.9125 23.4748 29.9969 23.4748C30.0719 23.4748 30.1844 23.3811 30.325 23.4561C30.4562 23.5311 30.5406 23.6061 30.6344 23.6436C30.4562 23.5311 30.3812 23.3623 30.1844 23.3623C30.1469 23.3623 30.0719 23.3811 29.9969 23.4186L29.8094 23.3529Z" fill="#85340A"/>
<path d="M29.7406 23.5878C29.6656 23.5878 29.5719 23.6065 29.4219 23.644C29.7688 23.569 29.8438 23.6909 30.0031 23.6909C30.1531 23.6909 30.2375 23.569 30.575 23.644C30.2 23.5315 30.1156 23.6065 30.0031 23.6065C29.9281 23.6065 29.8719 23.5784 29.7406 23.5878Z" fill="#85340A"/>
<path d="M29.4344 23.6434H29.3594C29.7625 23.6903 29.575 23.9247 29.9969 23.9247C30.4187 23.9247 30.2312 23.6903 30.6344 23.6434C30.2125 23.6059 30.3437 23.8591 29.9969 23.8591C29.6687 23.8591 29.7719 23.6434 29.4344 23.6434Z" fill="#85340A"/>
<path d="M30.35 24.2717C30.35 24.1797 30.3135 24.0915 30.2484 24.0264C30.1834 23.9613 30.0951 23.9248 30.0031 23.9248C29.9111 23.9248 29.8229 23.9613 29.7578 24.0264C29.6928 24.0915 29.6562 24.1797 29.6562 24.2717C29.6746 24.1934 29.7188 24.1237 29.7818 24.0737C29.8448 24.0238 29.9228 23.9966 30.0031 23.9966C30.0835 23.9966 30.1615 24.0238 30.2245 24.0737C30.2874 24.1237 30.3317 24.1934 30.35 24.2717Z" fill="#85340A"/>
<path d="M28.4453 21.9653C28.8859 21.581 29.4484 21.5153 29.7578 21.806C29.8291 21.8997 29.8772 22.0089 29.8984 22.1247C29.9359 22.3497 29.8703 22.5841 29.7016 22.8278L29.7766 22.8653C29.9266 22.5747 29.9828 22.2747 29.9266 21.9841L29.8703 21.7685C29.4484 21.4216 28.8672 21.3935 28.4453 21.956V21.9653Z" fill="#85340A"/>
<path d="M29.1403 21.8438C29.3934 21.8438 29.4497 21.9 29.5622 22.0031C29.6747 22.0969 29.7403 22.0781 29.7497 22.0969C29.7778 22.1156 29.7497 22.1719 29.7216 22.1531C29.6747 22.1344 29.5997 22.0969 29.4872 22.0031C29.3747 21.9094 29.2528 21.9094 29.1403 21.9094C28.7934 21.9094 28.6059 22.1906 28.5684 22.1719C28.5216 22.1531 28.7559 21.8438 29.1403 21.8438Z" fill="#85340A"/>
<path d="M29.1172 21.9658C28.9578 21.9658 28.7891 22.0408 28.6953 22.1908C28.8828 22.3689 29.3141 22.3783 29.6047 22.1721C29.5433 22.1069 29.4692 22.055 29.387 22.0195C29.3047 21.984 29.2161 21.9658 29.1266 21.9658H29.1172ZM29.1172 22.0033C29.2859 22.0033 29.4453 22.0783 29.4641 22.1533C29.2766 22.3689 28.9672 22.3408 28.7703 22.1908C28.8641 22.0596 28.9953 22.0033 29.1266 22.0033H29.1172Z" fill="#843511"/>
<path d="M29.1453 22.3219C29.2385 22.3219 29.3141 22.2463 29.3141 22.1531C29.3141 22.0599 29.2385 21.9844 29.1453 21.9844C29.0521 21.9844 28.9766 22.0599 28.9766 22.1531C28.9766 22.2463 29.0521 22.3219 29.1453 22.3219Z" fill="#85340A"/>
<path d="M28.6797 22.266C29.0078 22.5191 29.3359 22.5004 29.5234 22.3879C29.7109 22.266 29.7109 22.2285 29.6734 22.2285C29.6359 22.2285 29.5984 22.266 29.4484 22.3504C29.2891 22.4254 29.0641 22.4254 28.6797 22.266Z" fill="#85340A"/>
</svg>
