<svg width="60" height="45" viewBox="0 0 60 45" fill="none" xmlns="http://www.w3.org/2000/svg">
<path fill-rule="evenodd" clip-rule="evenodd" d="M0 0H60V22.8375H0V0Z" fill="#FF0000"/>
<path fill-rule="evenodd" clip-rule="evenodd" d="M0 22.1621H60V44.9996H0V22.1621Z" fill="#000001"/>
<path fill-rule="evenodd" clip-rule="evenodd" d="M21.4391 13.8941C36.9266 17.9535 26.9703 37.8566 14.7547 29.5691L13.9297 30.8441C21.1203 35.9629 28.2359 31.8379 30.2422 26.4941C32.3234 20.9816 29.5297 13.2285 21.5609 12.4316L21.4391 13.8941Z" fill="#FFEC00"/>
<path fill-rule="evenodd" clip-rule="evenodd" d="M15.9406 31.0125L17.975 31.9594L17.0187 34.0031L14.9844 33.0469L15.9406 31.0125ZM29.9094 21.6844H32.1594V23.9344H29.9094V21.6844ZM28.8125 18.0375L30.9031 17.2313L31.7187 19.3219L29.6281 20.1375L28.8125 18.0375ZM26.375 15.3094L27.9781 13.725L29.5625 15.3187L27.9687 16.9031L26.375 15.3094ZM23.9188 11.5781L26.0187 12.3656L25.2219 14.4656L23.1219 13.6781L23.9188 11.5781ZM29.6281 25.3125L31.7187 26.1469L30.875 28.2281L28.7938 27.3938L29.6281 25.3125ZM23.075 31.875L25.1375 31.0031L26.0281 33.0656L23.9656 33.9469L23.075 31.875ZM19.3719 32.1375H21.6219V34.3875H19.3719V32.1375ZM23.2437 21.2625L21.3406 19.8563L19.4375 21.225L20.1875 19.0687L18.2844 17.6625H20.5812L21.3781 15.5438L22.1094 17.6719L24.425 17.6437L22.5875 19.0781L23.2437 21.2625Z" fill="#FFEC00"/>
<path fill-rule="evenodd" clip-rule="evenodd" d="M31.5031 32.4746C31.3906 32.5121 30.9219 33.6371 30.5938 34.1809L30.9406 34.2746C32.2156 34.7246 32.8531 35.1371 33.3969 35.9152C33.5226 36.0377 33.6878 36.1116 33.863 36.1236C34.0381 36.1356 34.2118 36.085 34.3531 35.9809C34.3531 35.9809 34.6156 35.8871 34.9531 35.5121C35.2344 35.0902 35.1594 34.7621 34.8219 34.4715C33.7906 33.7215 32.675 33.159 31.5031 32.4746Z" fill="#FFEE00"/>
<path fill-rule="evenodd" clip-rule="evenodd" d="M34.2437 34.9504C34.2437 35.0585 34.2008 35.1623 34.1243 35.2388C34.0478 35.3152 33.9441 35.3582 33.8359 35.3582C33.7278 35.3582 33.624 35.3152 33.5476 35.2388C33.4711 35.1623 33.4281 35.0585 33.4281 34.9504C33.4281 34.8435 33.4706 34.7409 33.5462 34.6653C33.6218 34.5897 33.7243 34.5473 33.8312 34.5473C33.9382 34.5473 34.0407 34.5897 34.1163 34.6653C34.1919 34.7409 34.2344 34.8435 34.2344 34.9504H34.2437ZM32.2375 33.6754C32.2375 33.7835 32.1945 33.8873 32.1181 33.9638C32.0416 34.0402 31.9378 34.0832 31.8297 34.0832C31.7215 34.0832 31.6178 34.0402 31.5413 33.9638C31.4648 33.8873 31.4219 33.7835 31.4219 33.6754C31.4219 33.5672 31.4648 33.4635 31.5413 33.387C31.6178 33.3105 31.7215 33.2676 31.8297 33.2676C31.9378 33.2676 32.0416 33.3105 32.1181 33.387C32.1945 33.4635 32.2375 33.5672 32.2375 33.6754ZM33.2594 34.3316C33.2594 34.4398 33.2164 34.5435 33.1399 34.62C33.0634 34.6965 32.9597 34.7395 32.8516 34.7395C32.7434 34.7395 32.6397 34.6965 32.5632 34.62C32.4867 34.5435 32.4437 34.4398 32.4437 34.3316C32.4437 34.2235 32.4867 34.1198 32.5632 34.0433C32.6397 33.9668 32.7434 33.9238 32.8516 33.9238C32.9597 33.9238 33.0634 33.9668 33.1399 34.0433C33.2164 34.1198 33.2594 34.2235 33.2594 34.3316Z" fill="#000001"/>
<path fill-rule="evenodd" clip-rule="evenodd" d="M30.4227 34.0965C26.429 31.8184 22.2383 29.3621 18.2352 27.084C16.4821 25.9871 16.3977 23.9527 17.579 22.4059C17.6915 22.1902 17.8415 22.2371 17.8977 22.359C18.0383 23.109 18.4602 23.8871 18.9665 24.3746C23.1216 26.9883 27.2377 29.6636 31.3133 32.3996C30.9946 32.9434 30.7508 33.5527 30.4227 34.0871V34.0965Z" fill="#FFEE00"/>
<path fill-rule="evenodd" clip-rule="evenodd" d="M27.8594 28.6406L29.5281 30.1406L28.0281 31.8094L26.3594 30.3094L27.8594 28.6406Z" fill="#FFEC00"/>
<path d="M31.0781 32.7002L19.3594 25.6221M29.6344 31.0689L25.6875 28.5096M27.3938 32.5127L23.3719 30.1877" stroke="black" stroke-width="0.375"/>
</svg>
