<svg width="60" height="45" viewBox="0 0 60 45" fill="none" xmlns="http://www.w3.org/2000/svg">
<path fill-rule="evenodd" clip-rule="evenodd" d="M0 0H60V45H0V0Z" fill="#00247D"/>
<path d="M45.9766 10.0488V11.4709L48.8208 10.0488H45.9766Z" fill="white"/>
<path d="M46.5454 11.7554L45.9766 10.6177L48.8208 10.0488L46.5454 11.7554Z" fill="white"/>
<path d="M45.9766 10.0488V11.4709L43.1323 10.0488H45.9766Z" fill="white"/>
<path d="M45.4077 11.7554L45.9766 10.6177L43.1323 10.0488L45.4077 11.7554Z" fill="white"/>
<path d="M46.7891 10.6387L45.4365 11.0781L47.668 13.3437L46.7891 10.6387Z" fill="white"/>
<path d="M45.3418 11.707L46.2481 10.8145L47.668 13.3437L45.3418 11.707Z" fill="white"/>
<path d="M45.1641 10.6387L46.5166 11.0781L46.043 7.93364L45.1641 10.6387Z" fill="white"/>
<path d="M46.9629 10.625L45.7051 10.8145L46.043 7.93364L46.9629 10.625Z" fill="white"/>
<path d="M45.1641 10.6387L46.5166 11.0781L44.2851 13.3437L45.1641 10.6387Z" fill="white"/>
<path d="M46.6113 11.707L45.7051 10.8145L44.2851 13.3437L46.6113 11.707Z" fill="white"/>
<path d="M45.9766 10.3379V11.2776L47.856 10.3379H45.9766Z" fill="#CC142B"/>
<path d="M46.3525 11.4656L45.9766 10.7138L47.856 10.3379L46.3525 11.4656Z" fill="#CC142B"/>
<path d="M45.9766 10.3379V11.2776L44.0971 10.3379H45.9766Z" fill="#CC142B"/>
<path d="M45.6007 11.4656L45.9766 10.7138L44.0971 10.3379L45.6007 11.4656Z" fill="#CC142B"/>
<path d="M46.5078 10.7275L45.6141 11.0179L47.0886 12.515L46.5078 10.7275Z" fill="#CC142B"/>
<path d="M45.5515 11.4335L46.1503 10.8437L47.0886 12.515L45.5515 11.4335Z" fill="#CC142B"/>
<path d="M45.4375 10.7275L46.3312 11.0179L46.0183 8.94007L45.4375 10.7275Z" fill="#CC142B"/>
<path d="M46.6261 10.7185L45.795 10.8437L46.0183 8.94007L46.6261 10.7185Z" fill="#CC142B"/>
<path d="M45.4375 10.7275L46.3312 11.0179L44.8567 12.515L45.4375 10.7275Z" fill="#CC142B"/>
<path d="M46.3938 11.4335L45.795 10.8437L44.8567 12.515L46.3938 11.4335Z" fill="#CC142B"/>
<path d="M53.4297 16.6123L53.4297 17.8778L55.9607 16.6123L53.4297 16.6123Z" fill="white"/>
<path d="M53.9359 18.1309L53.4297 17.1185L55.9607 16.6123L53.9359 18.1309Z" fill="white"/>
<path d="M53.4297 16.6123L53.4297 17.8778L50.8987 16.6123L53.4297 16.6123Z" fill="white"/>
<path d="M52.9235 18.1309L53.4297 17.1185L50.8987 16.6123L52.9235 18.1309Z" fill="white"/>
<path d="M54.1484 17.1367L52.9449 17.5278L54.9306 19.5438L54.1484 17.1367Z" fill="white"/>
<path d="M52.8606 18.0874L53.667 17.2931L54.9306 19.5438L52.8606 18.0874Z" fill="white"/>
<path d="M52.7109 17.1367L53.9145 17.5278L53.4931 14.7296L52.7109 17.1367Z" fill="white"/>
<path d="M54.3116 17.1246L53.1924 17.2931L53.4931 14.7296L54.3116 17.1246Z" fill="white"/>
<path d="M52.7109 17.1367L53.9145 17.5278L51.9288 19.5438L52.7109 17.1367Z" fill="white"/>
<path d="M53.9988 18.0874L53.1924 17.2931L51.9288 19.5438L53.9988 18.0874Z" fill="white"/>
<path d="M53.4219 16.9023L53.4219 17.6854L54.9881 16.9023L53.4219 16.9023Z" fill="#CC142B"/>
<path d="M53.7351 17.8421L53.4219 17.2156L54.9881 16.9023L53.7351 17.8421Z" fill="#CC142B"/>
<path d="M53.4219 16.9023L53.4219 17.6854L51.8557 16.9023L53.4219 16.9023Z" fill="#CC142B"/>
<path d="M53.1086 17.8421L53.4219 17.2156L51.8557 16.9023L53.1086 17.8421Z" fill="#CC142B"/>
<path d="M53.875 17.2266L53.1302 17.4686L54.359 18.7161L53.875 17.2266Z" fill="#CC142B"/>
<path d="M53.0781 17.8149L53.5771 17.3234L54.359 18.7161L53.0781 17.8149Z" fill="#CC142B"/>
<path d="M52.9766 17.2266L53.7213 17.4686L53.4605 15.737L52.9766 17.2266Z" fill="#CC142B"/>
<path d="M53.9671 17.219L53.2745 17.3234L53.4605 15.737L53.9671 17.219Z" fill="#CC142B"/>
<path d="M52.9766 17.2266L53.7213 17.4686L52.4926 18.7161L52.9766 17.2266Z" fill="#CC142B"/>
<path d="M53.7735 17.8149L53.2745 17.3234L52.4926 18.7161L53.7735 17.8149Z" fill="#CC142B"/>
<path d="M37.2969 18.7891L37.2969 20.2112L40.1411 18.7891L37.2969 18.7891Z" fill="white"/>
<path d="M37.8657 20.4956L37.2969 19.3579L40.1411 18.7891L37.8657 20.4956Z" fill="white"/>
<path d="M37.2969 18.7891L37.2969 20.2112L34.4526 18.7891L37.2969 18.7891Z" fill="white"/>
<path d="M36.728 20.4956L37.2969 19.3579L34.4526 18.7891L36.728 20.4956Z" fill="white"/>
<path d="M38.1094 19.3789L36.7569 19.8184L38.9883 22.0839L38.1094 19.3789Z" fill="white"/>
<path d="M36.6621 20.4473L37.5684 19.5547L38.9883 22.0839L36.6621 20.4473Z" fill="white"/>
<path d="M36.4844 19.3789L37.8369 19.8184L37.3633 16.6739L36.4844 19.3789Z" fill="white"/>
<path d="M38.2832 19.3653L37.0254 19.5547L37.3633 16.6739L38.2832 19.3653Z" fill="white"/>
<path d="M36.4844 19.3789L37.8369 19.8184L35.6055 22.0839L36.4844 19.3789Z" fill="white"/>
<path d="M37.9316 20.4473L37.0254 19.5547L35.6055 22.0839L37.9316 20.4473Z" fill="white"/>
<path d="M37.2969 19.0781L37.2969 20.0179L39.1763 19.0781L37.2969 19.0781Z" fill="#CC142B"/>
<path d="M37.6728 20.2058L37.2969 19.454L39.1763 19.0781L37.6728 20.2058Z" fill="#CC142B"/>
<path d="M37.2969 19.0781L37.2969 20.0179L35.4174 19.0781L37.2969 19.0781Z" fill="#CC142B"/>
<path d="M36.921 20.2058L37.2969 19.454L35.4174 19.0781L36.921 20.2058Z" fill="#CC142B"/>
<path d="M37.8281 19.4678L36.9344 19.7582L38.4089 21.2552L37.8281 19.4678Z" fill="#CC142B"/>
<path d="M36.8718 20.1737L37.4706 19.5839L38.4089 21.2552L36.8718 20.1737Z" fill="#CC142B"/>
<path d="M36.7578 19.4678L37.6515 19.7582L37.3386 17.6803L36.7578 19.4678Z" fill="#CC142B"/>
<path d="M37.9464 19.4587L37.1153 19.5839L37.3386 17.6803L37.9464 19.4587Z" fill="#CC142B"/>
<path d="M36.7578 19.4678L37.6515 19.7582L36.177 21.2552L36.7578 19.4678Z" fill="#CC142B"/>
<path d="M37.7141 20.1737L37.1153 19.5839L36.177 21.2552L37.7141 20.1737Z" fill="#CC142B"/>
<path d="M45.9766 32.5088V34.0875L49.134 32.5088H45.9766Z" fill="white"/>
<path d="M46.6081 34.4033L45.9766 33.1403L49.134 32.5088L46.6081 34.4033Z" fill="white"/>
<path d="M45.9766 32.5088V34.0875L42.8191 32.5088H45.9766Z" fill="white"/>
<path d="M45.3451 34.4033L45.9766 33.1403L42.8191 32.5088L45.3451 34.4033Z" fill="white"/>
<path d="M46.875 33.1631L45.3735 33.6509L47.8507 36.166L46.875 33.1631Z" fill="white"/>
<path d="M45.2684 34.3491L46.2744 33.3582L47.8507 36.166L45.2684 34.3491Z" fill="white"/>
<path d="M45.0781 33.1631L46.5796 33.6509L46.0538 30.1601L45.0781 33.1631Z" fill="white"/>
<path d="M47.075 33.1479L45.6787 33.3582L46.0538 30.1601L47.075 33.1479Z" fill="white"/>
<path d="M45.0781 33.1631L46.5796 33.6509L44.1024 36.166L45.0781 33.1631Z" fill="white"/>
<path d="M46.6847 34.3491L45.6787 33.3582L44.1024 36.166L46.6847 34.3491Z" fill="white"/>
<path d="M45.9766 32.7979V33.8942L48.1693 32.7979H45.9766Z" fill="#CC142B"/>
<path d="M46.4151 34.1135L45.9766 33.2364L48.1693 32.7979L46.4151 34.1135Z" fill="#CC142B"/>
<path d="M45.9766 32.7979V33.8942L43.7839 32.7979H45.9766Z" fill="#CC142B"/>
<path d="M45.538 34.1135L45.9766 33.2364L43.7839 32.7979L45.538 34.1135Z" fill="#CC142B"/>
<path d="M46.6016 33.252L45.5589 33.5907L47.2791 35.3373L46.6016 33.252Z" fill="#CC142B"/>
<path d="M45.4859 34.0756L46.1845 33.3875L47.2791 35.3373L45.4859 34.0756Z" fill="#CC142B"/>
<path d="M45.3516 33.252L46.3943 33.5907L46.0291 31.1666L45.3516 33.252Z" fill="#CC142B"/>
<path d="M46.7383 33.2414L45.7686 33.3875L46.0291 31.1666L46.7383 33.2414Z" fill="#CC142B"/>
<path d="M45.3516 33.252L46.3943 33.5907L44.674 35.3373L45.3516 33.252Z" fill="#CC142B"/>
<path d="M46.4673 34.0756L45.7686 33.3875L44.674 35.3373L46.4673 34.0756Z" fill="#CC142B"/>
<path d="M0 0H30V22.5H0V0Z" fill="#012169"/>
<path d="M3.51562 0L14.9531 8.48438L26.3438 0H30V2.90625L18.75 11.2969L30 19.6406V22.5H26.25L15 14.1094L3.79688 22.5H0V19.6875L11.2031 11.3438L0 3V0H3.51562Z" fill="white"/>
<path d="M19.875 13.1719L30 20.625V22.5L17.2969 13.1719H19.875ZM11.25 14.1094L11.5312 15.75L2.53125 22.5H0L11.25 14.1094ZM30 0V0.140625L18.3281 8.95312L18.4219 6.89062L27.6562 0H30ZM0 0L11.2031 8.25H8.39062L0 1.96875V0Z" fill="#C8102E"/>
<path d="M11.2969 0V22.5H18.7969V0H11.2969ZM0 7.5V15H30V7.5H0Z" fill="white"/>
<path d="M0 9.04688V13.5469H30V9.04688H0ZM12.7969 0V22.5H17.2969V0H12.7969Z" fill="#C8102E"/>
</svg>
