<svg width="60" height="45" viewBox="0 0 60 45" fill="none" xmlns="http://www.w3.org/2000/svg">
<path fill-rule="evenodd" clip-rule="evenodd" d="M0 0H60V45H0V0Z" fill="#FFE800"/>
<path fill-rule="evenodd" clip-rule="evenodd" d="M0 22.5H60V45H0V22.5Z" fill="#00148E"/>
<path fill-rule="evenodd" clip-rule="evenodd" d="M0 33.75H60V45H0V33.75Z" fill="#DA0010"/>
<path fill-rule="evenodd" clip-rule="evenodd" d="M25.2781 27.2623L18.4719 34.4342L18.3594 34.2842L25.1469 27.1123L25.2594 27.2623H25.2781ZM30.0031 28.4342L21.1156 37.8092L20.9656 37.6592L29.8437 28.2842L30.0031 28.4342Z" fill="black"/>
<path fill-rule="evenodd" clip-rule="evenodd" d="M21.1406 37.6992L20.31 38.5298L19.3632 39.2443L20.0777 38.2975L20.9083 37.4669L21.1406 37.6992Z" fill="#808080" stroke="black" stroke-width="0.0606398"/>
<path fill-rule="evenodd" clip-rule="evenodd" d="M18.8516 34.0342L18.0209 34.8648L17.0742 35.5793L17.7886 34.6325L18.6193 33.8019L18.8516 34.0342Z" fill="#808080" stroke="black" stroke-width="0.0606398"/>
<path fill-rule="evenodd" clip-rule="evenodd" d="M19.497 10.7617C19.497 10.7617 18.7503 30.9577 21.7372 30.9577C24.7241 30.9577 26.2217 28.8337 26.2217 28.8337L26.188 17.7337L19.497 10.7617Z" fill="#FFDF00" stroke="black" stroke-width="0.0894427"/>
<path fill-rule="evenodd" clip-rule="evenodd" d="M21.3208 12.6455C21.3208 13.7075 20.9875 28.8335 22.481 28.8335C23.9744 28.8335 26.2188 27.7715 26.2188 27.7715L26.185 17.7335L21.3208 12.6455Z" fill="#0000C4" stroke="black" stroke-width="0.0894427"/>
<path fill-rule="evenodd" clip-rule="evenodd" d="M22.2891 13.666C22.2891 14.728 22.4789 26.71 23.9766 26.71H26.2167L26.183 17.734L22.2891 13.666Z" fill="#E10000" stroke="black" stroke-width="0.0894427"/>
<path fill-rule="evenodd" clip-rule="evenodd" d="M19.3281 10.8746L26.1156 18.0465L26.2375 17.8965L19.45 10.7246L19.3281 10.8746Z" fill="black"/>
<path fill-rule="evenodd" clip-rule="evenodd" d="M17.2767 14.9004C17.2767 14.9004 15.3519 34.4653 21.1265 34.4653C25.9387 34.4653 25.9387 31.3788 26.9011 31.3788L25.9387 24.1713L17.2767 14.9004Z" fill="#FFDF00" stroke="black" stroke-width="0.0999444"/>
<path d="M22.0522 18.1532C22.0934 18.1501 23.5541 14.9893 27.2047 12.9886" stroke="black" stroke-width="0.108269"/>
<path fill-rule="evenodd" clip-rule="evenodd" d="M21.4499 15.1735C21.959 15.4111 22.2811 15.6845 22.5744 16.0032C21.9918 15.8811 21.6913 15.8318 21.1822 15.5943C20.6731 15.3567 20.2842 14.9933 19.9752 14.6993C20.3542 14.8146 20.9381 14.9346 21.4499 15.1735Z" fill="#005B00" stroke="black" stroke-width="0.0489698"/>
<path fill-rule="evenodd" clip-rule="evenodd" d="M22.7303 17.1093C22.7678 17.1731 22.7356 17.2629 22.6563 17.3069C22.5769 17.351 22.4819 17.334 22.4434 17.2687C22.405 17.2033 22.4391 17.1167 22.5184 17.0727C22.5978 17.0286 22.6928 17.0456 22.7303 17.1093Z" fill="#FF0000" stroke="black" stroke-width="0.0335875"/>
<path fill-rule="evenodd" clip-rule="evenodd" d="M24.3288 13.1502C24.1082 13.7102 23.8649 14.0792 23.5844 14.4234C23.7105 13.8005 23.764 13.4807 23.9846 12.9207C24.2052 12.3607 24.5271 11.9113 24.7874 11.5536C24.6751 11.9631 24.5507 12.5872 24.3288 13.1502Z" fill="#005B00" stroke="black" stroke-width="0.0461669"/>
<path fill-rule="evenodd" clip-rule="evenodd" d="M23.5866 13.1212C23.5357 13.6811 23.4241 14.1148 23.2775 14.5547C23.2392 14.0105 23.2106 13.7385 23.2615 13.1785C23.3124 12.6186 23.4686 12.0735 23.5961 11.637C23.5978 12.0142 23.6378 12.5581 23.5866 13.1212Z" fill="#005B00" stroke="black" stroke-width="0.0398615"/>
<path fill-rule="evenodd" clip-rule="evenodd" d="M24.073 13.7614C23.7845 14.1007 23.5419 14.2479 23.2869 14.3436C23.5438 13.8729 23.6697 13.6226 23.9582 13.2832C24.2467 12.9439 24.5559 12.7845 24.8041 12.6607C24.6194 12.9471 24.363 13.4201 24.073 13.7614Z" fill="#005B00" stroke="black" stroke-width="0.0432966"/>
<path fill-rule="evenodd" clip-rule="evenodd" d="M21.6159 14.2357C21.9553 14.643 22.1241 15.0352 22.2516 15.4687C21.8072 15.1665 21.5728 15.0255 21.2334 14.6182C20.8941 14.211 20.7028 13.701 20.5528 13.29C20.8284 13.5258 21.2747 13.8262 21.6159 14.2357Z" fill="#005B00" stroke="black" stroke-width="0.0495432"/>
<path fill-rule="evenodd" clip-rule="evenodd" d="M20.9293 17.3752C21.3536 17.7146 21.5774 18.0644 21.7559 18.4597C21.2162 18.2358 20.9328 18.1353 20.5086 17.7959C20.0844 17.4566 19.8262 16.9976 19.6229 16.6271C19.961 16.8121 20.5028 17.0339 20.9293 17.3752Z" fill="#005B00" stroke="black" stroke-width="0.0526016"/>
<path fill-rule="evenodd" clip-rule="evenodd" d="M22.9122 17.1884C22.5729 17.7314 22.2058 18.0963 21.785 18.4405C21.9879 17.845 22.0756 17.5401 22.415 16.9971C22.7544 16.4541 23.2389 16.0079 23.6304 15.6524C23.4539 16.0459 23.2535 16.6424 22.9122 17.1884Z" fill="#005B00" stroke="black" stroke-width="0.0540371"/>
<path fill-rule="evenodd" clip-rule="evenodd" d="M23.2712 17.1672C22.7282 17.5405 22.2555 17.7348 21.7519 17.8878C22.2161 17.4095 22.4413 17.158 22.9843 16.7847C23.5273 16.4114 24.1329 16.1883 24.6197 16.0128C24.28 16.3116 23.8172 16.7918 23.2712 17.1672Z" fill="#005B00" stroke="black" stroke-width="0.0519301"/>
<path fill-rule="evenodd" clip-rule="evenodd" d="M26.9279 13.2645C26.6903 13.536 26.4773 13.6969 26.2478 13.8371C26.4434 13.5131 26.5373 13.3448 26.7749 13.0733C27.0124 12.8018 27.2866 12.6105 27.5071 12.459C27.3616 12.6666 27.1667 12.9915 26.9279 13.2645Z" fill="#005B00" stroke="black" stroke-width="0.0275007"/>
<path fill-rule="evenodd" clip-rule="evenodd" d="M26.4197 12.4637C26.284 12.7521 26.1389 12.9689 25.9731 13.1856C26.0564 12.8972 26.0927 12.7521 26.2285 12.4637C26.3642 12.1752 26.5555 11.9043 26.71 11.6875C26.6386 11.8851 26.5562 12.1736 26.4197 12.4637Z" fill="#005B00" stroke="black" stroke-width="0.0228451"/>
<path fill-rule="evenodd" clip-rule="evenodd" d="M27.2124 12.9816C26.9748 13.1174 26.7963 13.159 26.6178 13.1718C26.8554 12.9625 26.9748 12.8496 27.2124 12.7139C27.4499 12.5781 27.6731 12.5399 27.8516 12.5114C27.6888 12.6346 27.4512 12.8451 27.2124 12.9816Z" fill="#005B00" stroke="black" stroke-width="0.0250413"/>
<path fill-rule="evenodd" clip-rule="evenodd" d="M23.93 14.503C23.5057 14.7576 23.1568 14.9057 22.7934 15.0332C23.1809 14.7262 23.3719 14.5663 23.7961 14.3118C24.2203 14.0573 24.6634 13.882 25.0189 13.7432C24.7433 13.9391 24.3565 14.2471 23.93 14.503Z" fill="#005B00" stroke="black" stroke-width="0.0314413"/>
<path fill-rule="evenodd" clip-rule="evenodd" d="M25.1717 14.8827C24.6117 15.2221 24.1349 15.3822 23.6313 15.497C24.123 15.0421 24.3631 14.8013 24.923 14.462C25.483 14.1226 26.0918 13.9441 26.5808 13.8046C26.2252 14.0845 25.7347 14.5415 25.1717 14.8827Z" fill="#005B00" stroke="black" stroke-width="0.052336"/>
<path d="M21.3695 20.3757C21.4056 20.3551 21.0643 17.3776 23.3422 14.2805" stroke="black" stroke-width="0.106572"/>
<path fill-rule="evenodd" clip-rule="evenodd" d="M24.8553 14.0995C24.8928 14.1633 24.8606 14.2531 24.7813 14.2972C24.7019 14.3412 24.6069 14.3243 24.5684 14.2589C24.53 14.1936 24.5641 14.107 24.6434 14.0629C24.7228 14.0188 24.8178 14.0358 24.8553 14.0995Z" fill="#FF0000" stroke="black" stroke-width="0.0335875"/>
<path fill-rule="evenodd" clip-rule="evenodd" d="M25.8709 13.5097C25.9084 13.5735 25.8762 13.6633 25.7969 13.7073C25.7176 13.7514 25.6225 13.7344 25.5841 13.6691C25.5456 13.6037 25.5798 13.5171 25.6591 13.473C25.7384 13.429 25.8334 13.446 25.8709 13.5097Z" fill="#FF0000" stroke="black" stroke-width="0.0335875"/>
<path fill-rule="evenodd" clip-rule="evenodd" d="M23.0463 15.494C23.0726 15.5428 23.0237 15.6199 22.9355 15.6639C22.8474 15.708 22.7545 15.7034 22.7276 15.6534C22.7007 15.6035 22.7509 15.5288 22.8391 15.4848C22.9272 15.4407 23.0201 15.4453 23.0463 15.494Z" fill="#FF0000" stroke="black" stroke-width="0.0302835"/>
<path fill-rule="evenodd" clip-rule="evenodd" d="M23.3432 15.3632C23.3695 15.4119 23.3205 15.489 23.2324 15.5331C23.1443 15.5771 23.0514 15.5725 23.0245 15.5226C22.9976 15.4726 23.0478 15.398 23.1359 15.3539C23.2241 15.3098 23.317 15.3144 23.3432 15.3632Z" fill="#FF0000" stroke="black" stroke-width="0.0302835"/>
<path fill-rule="evenodd" clip-rule="evenodd" d="M23.1635 15.6444C23.1898 15.6932 23.1408 15.7703 23.0527 15.8143C22.9646 15.8584 22.8717 15.8538 22.8448 15.8038C22.8179 15.7538 22.8681 15.6792 22.9563 15.6352C23.0444 15.5911 23.1373 15.5957 23.1635 15.6444Z" fill="#FF0000" stroke="black" stroke-width="0.0302835"/>
<path fill-rule="evenodd" clip-rule="evenodd" d="M23.6925 15.6839C23.73 15.7589 23.6925 15.8527 23.5987 15.8995C23.505 15.9464 23.4112 15.9183 23.3737 15.8339C23.3362 15.7495 23.3737 15.6652 23.4675 15.6183C23.5612 15.5714 23.655 15.5995 23.6831 15.6839H23.6925Z" fill="#FF0000" stroke="black" stroke-width="0.0375"/>
<path fill-rule="evenodd" clip-rule="evenodd" d="M23.909 15.4593C23.9371 15.5343 23.909 15.6281 23.8153 15.675C23.7215 15.7218 23.6278 15.6937 23.5809 15.6187C23.534 15.5437 23.5809 15.4406 23.6746 15.3937C23.7684 15.3468 23.8621 15.3843 23.8996 15.4593H23.909Z" fill="#FF0000" stroke="black" stroke-width="0.0375"/>
<path fill-rule="evenodd" clip-rule="evenodd" d="M23.9581 15.5626C23.9956 15.6376 23.9581 15.7407 23.8644 15.7782C23.7706 15.8157 23.6769 15.7969 23.6394 15.7219C23.6019 15.6469 23.6394 15.5532 23.7331 15.5063C23.8269 15.4594 23.9206 15.4876 23.9581 15.5626Z" fill="#FF0000" stroke="black" stroke-width="0.0375"/>
<path fill-rule="evenodd" clip-rule="evenodd" d="M19.2001 16.9639C19.2001 17.9927 17.2752 29.3212 22.0928 32.4077C24.0177 33.4365 26.905 31.3789 26.905 32.4077L25.9426 24.1714L19.2001 16.9639Z" fill="#0000C4" stroke="black" stroke-width="0.0999444"/>
<path fill-rule="evenodd" clip-rule="evenodd" d="M21.1302 19.0215C21.1302 20.0503 20.1678 28.2866 23.0605 30.35C24.9854 32.4077 29.803 31.8497 29.803 31.8497L25.9478 24.1714L21.1302 19.0215Z" fill="#E10000" stroke="black" stroke-width="0.0999444"/>
<path fill-rule="evenodd" clip-rule="evenodd" d="M17.2344 14.8125L26.1219 24.1875L26.2812 24.0375L17.3937 14.6719L17.2344 14.8125Z" fill="black"/>
<path fill-rule="evenodd" clip-rule="evenodd" d="M15.8605 13.7015L16.4247 13.801L16.5906 13.967C16.5679 13.9653 16.7566 14.1329 16.5243 14.3652C16.2919 14.5975 15.9614 14.2643 15.9614 14.2643C15.9614 14.2643 16.0609 14.8285 16.3938 15.1613C16.7266 15.4941 17.1239 15.4268 17.1239 15.4268C17.1239 15.4268 16.7457 15.1169 17.0243 14.8626C17.3033 14.6061 17.4226 14.7963 17.4226 14.7963L17.7544 15.1281L17.9881 14.8945L16.6596 13.5661L16.5601 13.0019L15.7043 12.8601L15.8609 13.6992L15.8605 13.7015Z" fill="#CECECC" stroke="black" stroke-width="0.0278887"/>
<path fill-rule="evenodd" clip-rule="evenodd" d="M17.1716 9.76184L17.8543 10.8201L18.7185 11.0533L18.1543 11.4184L19.1831 11.3852L19.6491 11.718L19.8159 11.451L19.3487 11.1173L18.9846 10.087L18.8841 10.7854L18.3527 10.0196L17.1713 9.7594L17.1716 9.76184Z" fill="#CECECC" stroke="black" stroke-width="0.0300285"/>
<path fill-rule="evenodd" clip-rule="evenodd" d="M19.9506 10.3966C19.9506 10.4529 19.8756 10.5007 19.7893 10.5007C19.7031 10.5007 19.6243 10.4529 19.6243 10.3966C19.6243 10.3404 19.6993 10.2897 19.7893 10.2897C19.8793 10.2897 19.9506 10.3376 19.9506 10.3966ZM19.7181 10.6188C19.7181 11.6257 20.5018 15.9007 20.5656 16.0047C20.5693 16.1313 20.3856 16.1847 20.2993 16.0301C20.0518 15.5407 19.5193 11.5301 19.5006 10.5935C19.4893 10.2082 19.6393 10.1772 19.8118 10.1857C19.9506 10.1913 20.1231 10.2897 20.1231 10.4079C20.1231 10.5485 19.9056 10.6526 19.7181 10.6188Z" fill="#E10000" stroke="black" stroke-width="0.057735"/>
<path fill-rule="evenodd" clip-rule="evenodd" d="M20.2517 11.395C20.2236 11.4513 20.1284 11.4803 20.0465 11.4588C19.9646 11.4372 19.9137 11.3697 19.9418 11.3134C19.9699 11.2572 20.0665 11.2253 20.152 11.2478C20.2375 11.2703 20.2813 11.3359 20.2517 11.395ZM19.9198 11.5591C20.1785 13.5813 19.3105 16.7041 19.3176 16.8269C19.2593 16.9516 19.0566 16.9619 19.0534 16.7828C19.0108 16.6666 20.01 13.8456 19.7258 11.4794C19.9078 11.0913 20.0657 11.0978 20.2254 11.1494C20.3544 11.1897 20.469 11.3313 20.41 11.4494C20.3397 11.59 20.081 11.6397 19.9198 11.5591Z" fill="#0000C4" stroke="black" stroke-width="0.060506"/>
<path fill-rule="evenodd" clip-rule="evenodd" d="M17.5019 14.2033C17.5019 14.2971 17.4081 14.3908 17.2956 14.3908C17.1831 14.3908 17.0894 14.2971 17.0894 14.2033C17.0894 14.1096 17.1831 14.0346 17.2956 14.0346C17.4081 14.0346 17.4925 14.1096 17.4925 14.2033H17.5019ZM17.2019 14.5783C17.2019 16.2564 18.1863 23.3814 18.2613 23.5596C18.2613 23.7658 18.0456 23.8596 17.9331 23.5971C17.6238 22.7814 16.9581 16.0971 16.93 14.5408C16.9206 13.8939 17.1081 13.8471 17.3238 13.8564C17.5019 13.8658 17.7081 14.0346 17.7081 14.2314C17.7081 14.4564 17.4363 14.6346 17.2019 14.5783Z" fill="#E10000" stroke="black" stroke-width="0.0875"/>
<path fill-rule="evenodd" clip-rule="evenodd" d="M18.0087 15.0688C17.9712 15.1588 17.8494 15.2072 17.7459 15.1748C17.6424 15.1425 17.5797 15.0364 17.6172 14.9464C17.6547 14.8564 17.7785 14.8036 17.8865 14.8373C17.9945 14.8711 18.0481 14.9743 18.0087 15.0688ZM17.5816 15.3371C17.8478 18.5431 16.6475 23.5234 16.6527 23.7184C16.5747 23.9178 16.3167 23.9389 16.3182 23.6545C16.2676 23.4709 17.6255 18.9669 17.3375 15.215C17.5809 14.5943 17.7815 14.6011 17.9828 14.6793C18.1456 14.7403 18.287 14.9625 18.2082 15.1515C18.1145 15.3765 17.7841 15.4614 17.5816 15.3371Z" fill="#0000C4" stroke="black" stroke-width="0.0852291"/>
<path fill-rule="evenodd" clip-rule="evenodd" d="M34.725 27.2623L41.5219 34.4342L41.6438 34.2842L34.8469 27.1123L34.725 27.2623ZM30 28.4342L38.8875 37.8092L39.0375 37.6592L30.1594 28.2842L30 28.4342Z" fill="black"/>
<path fill-rule="evenodd" clip-rule="evenodd" d="M38.8594 37.6992L39.69 38.5298L40.6368 39.2443L39.9223 38.2975L39.0917 37.4669L38.8594 37.6992Z" fill="#808080" stroke="black" stroke-width="0.0606398"/>
<path fill-rule="evenodd" clip-rule="evenodd" d="M41.1484 34.0342L41.9791 34.8648L42.9258 35.5793L42.2114 34.6325L41.3807 33.8019L41.1484 34.0342Z" fill="#808080" stroke="black" stroke-width="0.0606398"/>
<path fill-rule="evenodd" clip-rule="evenodd" d="M40.5108 10.7617C40.5108 10.7617 41.2575 30.9577 38.2706 30.9577C35.2838 30.9577 33.7861 28.8337 33.7861 28.8337L33.8198 17.7337L40.5108 10.7617Z" fill="#FFDF00" stroke="black" stroke-width="0.0894427"/>
<path fill-rule="evenodd" clip-rule="evenodd" d="M38.6792 12.6455C38.6792 13.7075 39.0125 28.8335 37.519 28.8335C36.0256 28.8335 33.7812 27.7715 33.7812 27.7715L33.815 17.7335L38.6792 12.6455Z" fill="#0000C4" stroke="black" stroke-width="0.0894427"/>
<path fill-rule="evenodd" clip-rule="evenodd" d="M37.7109 13.666C37.7109 14.728 37.5211 26.71 36.0234 26.71H33.7833L33.817 17.734L37.7109 13.666Z" fill="#E10000" stroke="black" stroke-width="0.0894427"/>
<path fill-rule="evenodd" clip-rule="evenodd" d="M40.675 10.8746L33.8875 18.0465L33.7656 17.8965L40.5531 10.7246L40.675 10.8746Z" fill="black"/>
<path fill-rule="evenodd" clip-rule="evenodd" d="M35.3132 16.4128C35.3132 16.4128 37.216 18.854 38.134 20.7407C39.0512 22.6314 40.1222 25.5123 40.1222 25.5123C40.1222 25.5123 39.5102 22.676 38.3552 20.4021C36.8417 17.5415 35.3125 16.5755 35.3132 16.4128Z" fill="#005B00" stroke="black" stroke-width="0.0417337"/>
<path fill-rule="evenodd" clip-rule="evenodd" d="M35.2509 14.4734C35.2509 14.4734 37.3743 17.4926 38.3434 19.7318C39.3114 21.9753 40.3892 25.3381 40.3892 25.3381C40.3892 25.3381 39.866 22.1028 38.6389 19.3957C37.0215 15.98 35.2373 14.6529 35.2509 14.4734Z" fill="#005B00" stroke="black" stroke-width="0.0482227"/>
<path fill-rule="evenodd" clip-rule="evenodd" d="M37.0792 11.4889C37.0792 11.4889 38.5814 15.9599 39.0392 18.7245C39.4946 21.4917 39.7726 25.2998 39.7726 25.2998C39.7726 25.2998 40.0619 22.1037 39.4483 18.7109C38.5994 14.367 37.0169 11.6275 37.0792 11.4889Z" fill="#005B00" stroke="black" stroke-width="0.0547737"/>
<path fill-rule="evenodd" clip-rule="evenodd" d="M35.7355 11.2843C35.7355 11.2843 37.8157 15.2549 38.626 17.9531C39.4341 20.6552 40.1941 24.5535 40.1941 24.5535C40.1941 24.5535 40.0844 21.0122 39.0377 17.7277C37.6336 13.5551 35.6901 11.4635 35.7355 11.2843Z" fill="#005B00" stroke="black" stroke-width="0.0555036"/>
<path fill-rule="evenodd" clip-rule="evenodd" d="M38.2274 12.5477C38.2274 12.5477 39.2626 16.8227 39.5226 19.3731C39.7806 21.9253 39.8545 25.3687 39.8545 25.3687C39.8545 25.3687 40.2141 22.5819 39.8532 19.4417C39.34 15.4089 38.1717 12.6587 38.2274 12.5477Z" fill="#005B00" stroke="black" stroke-width="0.0492217"/>
<path fill-rule="evenodd" clip-rule="evenodd" d="M35.4932 12.665C35.4932 12.665 37.5057 16.0663 38.3201 18.4438C39.1326 20.825 39.9327 24.305 39.9327 24.305C39.9327 24.305 39.7382 21.08 38.6915 18.1925C37.2936 14.5325 35.4563 12.8338 35.4932 12.665Z" fill="#005B00" stroke="black" stroke-width="0.0506234"/>
<path fill-rule="evenodd" clip-rule="evenodd" d="M35.1181 15.0339C35.1181 15.0339 37.2414 17.7302 38.2106 19.7952C39.1786 21.8645 40.2564 25.0064 40.2564 25.0064C40.2564 25.0064 39.7332 21.9282 38.506 19.4378C36.8887 16.3027 35.1045 15.2093 35.1181 15.0339Z" fill="#005B00" stroke="black" stroke-width="0.0476898"/>
<path fill-rule="evenodd" clip-rule="evenodd" d="M35.3915 13.7958C35.3915 13.7958 37.3448 16.9678 38.1951 19.2623C39.044 21.5609 39.9478 24.9706 39.9478 24.9706C39.9478 24.9706 39.5859 21.7394 38.5031 18.9602C37.0687 15.4467 35.3695 13.971 35.3915 13.7958Z" fill="#005B00" stroke="black" stroke-width="0.0475875"/>
<path fill-rule="evenodd" clip-rule="evenodd" d="M37.5088 11.5564C37.5088 11.5564 38.7646 15.9336 39.0759 18.6071C39.3846 21.2827 39.4652 24.9403 39.4652 24.9403C39.4652 24.9403 39.9137 21.9075 39.4806 18.6229C38.8635 14.4133 37.4403 11.6843 37.5088 11.5564Z" fill="#005B00" stroke="black" stroke-width="0.0532434"/>
<path fill-rule="evenodd" clip-rule="evenodd" d="M35.7824 10.4651C35.7824 10.4651 37.6161 14.5885 38.2799 17.342C38.9414 20.0992 39.5039 24.0444 39.5039 24.0444C39.5039 24.0444 39.5534 20.5072 38.6871 17.1505C37.5149 12.8803 35.7306 10.6399 35.7824 10.4651Z" fill="#005B00" stroke="black" stroke-width="0.0547386"/>
<path fill-rule="evenodd" clip-rule="evenodd" d="M38.7039 12.8611C38.7039 12.8611 39.4926 16.9661 39.6062 19.3977C39.7175 21.8308 39.594 25.1002 39.594 25.1002C39.594 25.1002 40.1128 22.4746 39.9323 19.4788C39.651 15.629 38.6419 12.9637 38.7039 12.8611Z" fill="#005B00" stroke="black" stroke-width="0.0473281"/>
<path fill-rule="evenodd" clip-rule="evenodd" d="M35.548 12.1651C35.548 12.1651 37.3817 15.7192 38.0455 18.152C38.707 20.5884 39.2695 24.1153 39.2695 24.1153C39.2695 24.1153 39.319 20.8944 38.4527 17.9347C37.2805 14.177 35.4962 12.3296 35.548 12.1651Z" fill="#005B00" stroke="black" stroke-width="0.0517292"/>
<path fill-rule="evenodd" clip-rule="evenodd" d="M42.7233 14.9004C42.7233 14.9004 44.6481 34.4653 38.8735 34.4653C34.0613 34.4653 34.0613 31.3788 33.0989 31.3788L34.0613 24.1713L42.7233 14.9004Z" fill="#FFDF00" stroke="black" stroke-width="0.0999444"/>
<path fill-rule="evenodd" clip-rule="evenodd" d="M40.7999 16.9639C40.7999 17.9927 42.7248 29.3212 37.9072 32.4077C35.9823 33.4365 33.095 31.3789 33.095 32.4077L34.0574 24.1714L40.7999 16.9639Z" fill="#0000C4" stroke="black" stroke-width="0.0999444"/>
<path fill-rule="evenodd" clip-rule="evenodd" d="M38.8776 19.0215C38.8776 20.0503 39.84 28.2866 36.9473 30.35C35.0224 32.4077 30.2048 31.8497 30.2048 31.8497L34.06 24.1714L38.8776 19.0215Z" fill="#E10000" stroke="black" stroke-width="0.0999444"/>
<path fill-rule="evenodd" clip-rule="evenodd" d="M42.7734 14.8125L33.8859 24.1875L33.7266 24.0375L42.6141 14.6719L42.7734 14.8125Z" fill="black"/>
<path fill-rule="evenodd" clip-rule="evenodd" d="M44.1395 13.7015L43.5753 13.801L43.4094 13.967C43.4321 13.9653 43.2434 14.1329 43.4757 14.3652C43.7081 14.5975 44.0386 14.2643 44.0386 14.2643C44.0386 14.2643 43.9391 14.8285 43.6062 15.1613C43.2734 15.4941 42.8761 15.4268 42.8761 15.4268C42.8761 15.4268 43.2543 15.1169 42.9757 14.8626C42.6967 14.6061 42.5774 14.7963 42.5774 14.7963L42.2456 15.1281L42.0119 14.8945L43.3404 13.5661L43.4399 13.0019L44.2957 12.8601L44.1391 13.6992L44.1395 13.7015Z" fill="#CECECC" stroke="black" stroke-width="0.0278887"/>
<path fill-rule="evenodd" clip-rule="evenodd" d="M42.8284 9.76086L42.1457 10.8191L41.2815 11.0524L41.8457 11.4174L40.8169 11.3842L40.3509 11.717L40.1841 11.45L40.6513 11.1163L41.0154 10.086L41.1159 10.7844L41.6473 10.0187L42.8287 9.75842L42.8284 9.76086Z" fill="#CECECC" stroke="black" stroke-width="0.0300285"/>
<path fill-rule="evenodd" clip-rule="evenodd" d="M40.065 10.3966C40.065 10.4529 40.14 10.5007 40.2263 10.5007C40.3125 10.5007 40.3913 10.4529 40.3913 10.3966C40.3913 10.3404 40.3163 10.2897 40.2263 10.2897C40.1363 10.2897 40.065 10.3376 40.065 10.3966ZM40.2975 10.6188C40.2975 11.6257 39.5138 15.9007 39.45 16.0047C39.4463 16.1313 39.63 16.1847 39.7163 16.0301C39.9638 15.5407 40.4963 11.5301 40.515 10.5935C40.5263 10.2082 40.3763 10.1772 40.2038 10.1857C40.065 10.1913 39.8925 10.2897 39.8925 10.4079C39.8925 10.5485 40.11 10.6526 40.2975 10.6188Z" fill="#E10000" stroke="black" stroke-width="0.057735"/>
<path fill-rule="evenodd" clip-rule="evenodd" d="M39.7561 11.395C39.7842 11.4513 39.8794 11.4803 39.9613 11.4588C40.0432 11.4372 40.0941 11.3697 40.066 11.3134C40.0379 11.2572 39.9413 11.2253 39.8558 11.2478C39.7703 11.2703 39.7266 11.3359 39.7561 11.395ZM40.0881 11.5591C39.8293 13.5813 40.6973 16.7041 40.6902 16.8269C40.7485 16.9516 40.9512 16.9619 40.9544 16.7828C40.9971 16.6666 39.9978 13.8456 40.282 11.4794C40.1001 11.0913 39.9421 11.0978 39.7824 11.1494C39.6534 11.1897 39.5388 11.3313 39.5978 11.4494C39.6681 11.59 39.9268 11.6397 40.0881 11.5591Z" fill="#0000C4" stroke="black" stroke-width="0.060506"/>
<path fill-rule="evenodd" clip-rule="evenodd" d="M42.5109 14.2033C42.5109 14.2971 42.6047 14.3908 42.7078 14.3908C42.8203 14.3908 42.9141 14.2971 42.9141 14.2033C42.9141 14.1096 42.8203 14.0346 42.7078 14.0346C42.5953 14.0346 42.5109 14.1096 42.5109 14.2033ZM42.7922 14.5783C42.5677 17.5854 42.2174 20.5818 41.7422 23.5596C41.7422 23.7658 41.9578 23.8596 42.0703 23.5971C42.3797 22.7814 43.0453 16.0971 43.0734 14.5408C43.0828 13.8939 42.8953 13.8471 42.6797 13.8564C42.5016 13.8658 42.2953 14.0346 42.2953 14.2314C42.2953 14.4564 42.5672 14.6346 42.8016 14.5783H42.7922Z" fill="#E10000" stroke="black" stroke-width="0.0875"/>
<path fill-rule="evenodd" clip-rule="evenodd" d="M41.9913 15.0688C42.0288 15.1588 42.1506 15.2072 42.2541 15.1748C42.3576 15.1425 42.4203 15.0364 42.3828 14.9464C42.3453 14.8564 42.2215 14.8036 42.1135 14.8373C42.0055 14.8711 41.9519 14.9743 41.9913 15.0688ZM42.4184 15.3371C42.1522 18.5431 43.3525 23.5234 43.3473 23.7184C43.4253 23.9178 43.6833 23.9389 43.6818 23.6545C43.7324 23.4709 42.3745 18.9669 42.6625 15.215C42.4191 14.5943 42.2185 14.6011 42.0172 14.6793C41.8544 14.7403 41.713 14.9625 41.7918 15.1515C41.8855 15.3765 42.2159 15.4614 42.4184 15.3371Z" fill="#0000C4" stroke="black" stroke-width="0.0852291"/>
<path fill-rule="evenodd" clip-rule="evenodd" d="M26.9117 39.6152C27.351 39.885 27.8487 40.0269 28.3553 40.0269C28.862 40.0269 29.3597 39.885 29.799 39.6152V31.3789H27.8741C28.8366 34.4653 28.8366 37.5576 26.9062 39.6152H26.9117Z" fill="#E10000" stroke="black" stroke-width="0.0999444"/>
<path fill-rule="evenodd" clip-rule="evenodd" d="M28.4414 31.5616C28.4414 37.3694 27.0469 38.6622 27.0469 39.8304C27.6277 39.8304 28.0148 39.2857 28.4414 38.5375C29.0222 37.3694 29.078 31.4697 29.0222 31.5616H28.4414Z" fill="#0000C4" stroke="black" stroke-width="0.0824958"/>
<path fill-rule="evenodd" clip-rule="evenodd" d="M27.2788 31.5612C27.2492 34.954 25.8088 38.0974 26.0811 38.7931C26.3896 39.4165 27.2788 37.369 28.4403 38.5306C29.0211 37.369 29.0769 31.4693 29.0211 31.5546L27.2788 31.5612Z" fill="#0000C4" stroke="black" stroke-width="0.0824958"/>
<path fill-rule="evenodd" clip-rule="evenodd" d="M27.4058 31.0661C27.4058 34.8827 26.0703 35.1371 26.0703 36.1549C26.6511 36.1549 27.4025 35.5986 27.4058 35.6503C27.9866 34.8827 28.0423 31.0058 27.9866 31.0661H27.4058Z" fill="#FFDF00" stroke="black" stroke-width="0.0668747"/>
<path fill-rule="evenodd" clip-rule="evenodd" d="M26.2467 31.0661C26.2171 33.2957 24.8095 35.1932 25.0818 35.6503C25.3935 36.0557 26.2467 34.8827 27.4082 35.6503C27.989 34.8827 28.0448 31.0058 27.989 31.0661H26.2467Z" fill="#FFDF00" stroke="black" stroke-width="0.0668747"/>
<path fill-rule="evenodd" clip-rule="evenodd" d="M33.0883 39.6152C32.649 39.885 32.1513 40.0269 31.6447 40.0269C31.138 40.0269 30.6403 39.885 30.201 39.6152V31.3789H32.1259C31.1634 34.4653 31.1634 37.5576 33.0938 39.6152H33.0883Z" fill="#E10000" stroke="black" stroke-width="0.0999444"/>
<path fill-rule="evenodd" clip-rule="evenodd" d="M31.5664 31.5616C31.5664 37.3694 32.9609 38.6622 32.9609 39.8304C32.3802 39.8304 31.993 39.2857 31.5664 38.5375C30.9856 37.3694 30.9298 31.4697 30.9856 31.5616H31.5664Z" fill="#0000C4" stroke="black" stroke-width="0.0824958"/>
<path fill-rule="evenodd" clip-rule="evenodd" d="M32.729 31.5612C32.7586 34.954 34.199 38.0974 33.9267 38.7931C33.6183 39.4165 32.729 37.369 31.5675 38.5306C30.9867 37.369 30.9309 31.4693 30.9867 31.5546L32.729 31.5612Z" fill="#0000C4" stroke="black" stroke-width="0.0824958"/>
<path fill-rule="evenodd" clip-rule="evenodd" d="M32.5942 31.0661C32.5942 34.8827 33.9297 35.1371 33.9297 36.1549C33.3489 36.1549 32.5975 35.5986 32.5942 35.6503C32.0134 34.8827 31.9577 31.0058 32.0134 31.0661H32.5942Z" fill="#FFDF00" stroke="black" stroke-width="0.0668747"/>
<path fill-rule="evenodd" clip-rule="evenodd" d="M33.7611 31.0661C33.7907 33.2957 35.1983 35.1932 34.926 35.6503C34.6143 36.0557 33.7611 34.8827 32.5996 35.6503C32.0188 34.8827 31.963 31.0058 32.0188 31.0661H33.7611Z" fill="#FFDF00" stroke="black" stroke-width="0.0668747"/>
<path fill-rule="evenodd" clip-rule="evenodd" d="M22.6498 32.0217L21.6406 32.7518L22.6498 33.482L23.1538 33.1169L23.4058 33.482L23.6578 34.2121L23.9109 33.482L24.1629 33.1169H37.6842V32.3868H24.1618L23.9098 32.0196C23.9098 31.6546 23.9626 31.2895 24.1629 31.2895H25.1709C25.1709 30.9245 24.6669 30.1943 23.6578 30.1943C22.6498 30.1943 22.1446 30.9245 22.1446 31.2895H23.1538C23.3529 31.2895 23.4058 31.6546 23.4058 32.0217L23.1538 32.3868L22.6498 32.0217Z" fill="#908F8A" stroke="black" stroke-width="0.0913954"/>
<path fill-rule="evenodd" clip-rule="evenodd" d="M25.6094 33.7913H34.4478V34.2393H25.612L25.6094 33.7913ZM25.6094 33.3407H34.4478V33.7913H25.612L25.6094 33.3407ZM25.6094 32.8927H34.4478V33.3433H25.612L25.6094 32.8927ZM25.6094 32.4447H34.4478V32.8927H25.612L25.6094 32.4447ZM25.6094 31.9966H34.4478V32.4447H25.612L25.6094 31.9966ZM25.6094 31.5461H34.4478V31.9966H25.612L25.6094 31.5461ZM25.6094 31.1006H34.4478V31.5461H25.612L25.6094 31.1006Z" fill="#B74D00"/>
<path d="M34.4478 33.7913H25.6094L25.612 34.2393H34.4478V33.7913ZM34.4478 33.7913V33.3407H25.6094L25.612 33.7913H34.4478ZM34.4478 32.8927H25.6094L25.612 33.3433H34.4478V32.8927ZM34.4478 32.8927V32.4447M34.4478 32.8927H25.612L25.6094 32.4447H34.4478M34.4478 32.4447V31.9966M34.4478 32.4447H25.612L25.6094 31.9966H34.4478M34.4478 31.9966V31.5461M34.4478 31.9966H25.612L25.6094 31.5461H34.4478M34.4478 31.5461V31.1006H25.6094L25.612 31.5461H34.4478Z" stroke="black" stroke-width="0.0618648"/>
<path fill-rule="evenodd" clip-rule="evenodd" d="M26.0312 31.0742L29.2609 34.213H29.7227L26.4953 31.0767H26.0336L26.0312 31.0742Z" fill="#908F8A" stroke="black" stroke-width="0.107171"/>
<path fill-rule="evenodd" clip-rule="evenodd" d="M26.0312 34.3076L29.2609 31.1689H29.7227L26.4953 34.3051H26.0336L26.0312 34.3076Z" fill="#908F8A" stroke="black" stroke-width="0.107171"/>
<path fill-rule="evenodd" clip-rule="evenodd" d="M26.1172 31.0742V34.213H26.5818V31.0742H26.1172Z" fill="#908F8A" stroke="black" stroke-width="0.106545"/>
<path fill-rule="evenodd" clip-rule="evenodd" d="M30.1875 31.0742L33.4172 34.213H33.8789L30.6516 31.0767H30.1898L30.1875 31.0742Z" fill="#908F8A" stroke="black" stroke-width="0.107171"/>
<path fill-rule="evenodd" clip-rule="evenodd" d="M30.1875 34.3076L33.4172 31.1689H33.8789L30.6516 34.3051H30.1898L30.1875 34.3076Z" fill="#908F8A" stroke="black" stroke-width="0.107171"/>
<path fill-rule="evenodd" clip-rule="evenodd" d="M33.5078 31.0742V34.213H33.9724V31.0742H33.5078Z" fill="#908F8A" stroke="black" stroke-width="0.106545"/>
<path fill-rule="evenodd" clip-rule="evenodd" d="M30.2812 31.0742V34.213H30.7459V31.0742H30.2812Z" fill="#908F8A" stroke="black" stroke-width="0.106545"/>
<path fill-rule="evenodd" clip-rule="evenodd" d="M29.3438 31.0742V34.213H29.8084V31.0742H29.3438Z" fill="#908F8A" stroke="black" stroke-width="0.106545"/>
<path fill-rule="evenodd" clip-rule="evenodd" d="M36.5397 22.1137C36.5397 27.2287 33.5164 31.3788 29.7972 31.3788C26.0779 31.3788 23.0547 27.2287 23.0547 22.1137C23.0547 16.9987 26.0725 12.8428 29.7972 12.8428C33.5219 12.8428 36.5397 16.9929 36.5397 22.1079V22.1137ZM35.5772 22.1137C35.5772 26.6591 32.989 30.35 29.7972 30.35C26.6054 30.35 24.0171 26.6591 24.0171 22.1137C24.0171 17.5625 26.6054 13.8716 29.7972 13.8716C32.989 13.8716 35.5772 17.5625 35.5772 22.1137Z" fill="#FFDF00" stroke="black" stroke-width="0.0999444"/>
<path fill-rule="evenodd" clip-rule="evenodd" d="M32.4245 13.5751C31.6143 13.1043 30.728 12.8428 29.7982 12.8428C28.8684 12.8428 27.9821 13.1043 27.1719 13.5693L27.5525 14.5226C28.2363 14.1013 29.0117 13.8795 29.8009 13.8795C30.5902 13.8795 31.3655 14.1013 32.0493 14.5226L32.4245 13.5751Z" fill="#FFDF00" stroke="black" stroke-width="0.0999444"/>
<path fill-rule="evenodd" clip-rule="evenodd" d="M32.4401 30.4034C31.6299 30.8742 30.7436 31.1357 29.8138 31.1357C28.884 31.1357 27.9977 30.8742 27.1875 30.4092L27.5681 29.4559C28.2519 29.8773 29.0273 30.099 29.8165 30.099C30.6058 30.099 31.3812 29.8773 32.0649 29.4559L32.4401 30.4034Z" fill="#FFDF00" stroke="black" stroke-width="0.0999444"/>
<path fill-rule="evenodd" clip-rule="evenodd" d="M35.5906 22.1152C35.5906 26.6621 32.9938 30.3465 29.8063 30.3465C26.6188 30.3465 24.0312 26.6621 24.0312 22.1152C24.0312 17.5684 26.6188 13.8652 29.8063 13.8652C32.9938 13.8652 35.5906 17.559 35.5906 22.1152Z" fill="#A7CFFF"/>
<path fill-rule="evenodd" clip-rule="evenodd" d="M35.577 22.1136C35.6369 23.6598 35.3269 24.4154 34.93 26.0255C34.8267 26.1998 34.3319 25.6476 34.0382 25.3745C33.7446 25.1013 33.6141 25.6186 33.2444 25.2001C32.88 24.77 32.6462 25.3163 32.3744 24.956C32.1025 24.5956 29.5849 24.5491 29.5849 24.5142C29.835 24.3863 31.1183 24.5258 30.9117 23.869C30.6779 23.1831 29.226 23.8458 29.0303 22.9739C28.8944 22.102 26.1158 22.0671 25.9146 21.8579C25.9962 22.1834 28.0787 22.3229 28.0298 23.1657C27.9809 23.5145 25.9799 23.6133 25.7841 23.9039C25.621 24.2701 27.361 23.8051 27.4208 24.2526C27.4208 24.4386 27.1652 24.2526 26.2626 24.5433C25.8059 24.6886 27.1 25.142 26.6106 25.3919C26.1212 25.6418 25.0718 25.7523 25.1153 25.8569C25.2784 26.38 27.5459 26.9961 27.3229 27.0833C26.5182 27.467 26.094 27.7169 25.708 27.9378C24.5768 26.2393 23.9841 24.1983 24.0169 22.1136C25.7406 21.451 25.3763 21.3115 28.5627 21.3115C31.749 21.3115 32.8039 21.4452 35.577 22.1136Z" fill="#AFFF7B" stroke="black" stroke-width="0.0999444"/>
<path fill-rule="evenodd" clip-rule="evenodd" d="M35.5836 22.1134C35.1486 22.1134 34.6918 22.311 34.2242 22.311C33.7511 22.311 33.2726 22.1076 32.7832 22.1076C32.2939 22.1076 31.7338 22.375 31.2336 22.375C30.7279 22.375 30.2874 22.1134 29.7817 22.1134C29.2761 22.1134 28.7704 22.311 28.2701 22.311C27.7699 22.311 27.2751 22.1076 26.7911 22.1076C26.3072 22.1076 25.8287 22.311 25.3665 22.311C24.9043 22.311 24.453 22.1076 24.0234 22.1076C24.0234 20.9742 24.1866 19.893 24.4802 18.9049C25.9483 19.0212 25.0783 17.9923 25.9483 17.9923C26.2023 17.9776 26.4563 18.0208 26.6935 18.119C26.9306 18.2172 27.1456 18.3682 27.324 18.562C27.4545 18.562 28.107 17.8993 28.8411 17.9923C29.5697 18.0853 29.3032 19.5792 30.2766 19.6547C30.7659 20.05 31.0541 20.2999 31.7284 20.4627C32.6908 20.5557 35.4476 20.3173 35.4639 20.451C35.5434 21.0011 35.5833 21.5568 35.5836 22.1134Z" fill="white" stroke="black" stroke-width="0.0999444"/>
<path fill-rule="evenodd" clip-rule="evenodd" d="M30.6738 26.9082C30.6738 26.6517 30.9269 26.4807 30.9269 26.0712C30.9269 25.6617 30.7019 25.6527 30.6944 25.2702C30.6906 25.1127 30.8875 24.9552 30.9738 24.9372C31.06 24.9192 31.1331 25.2702 31.1331 25.3467C31.1331 25.4232 31.045 25.1577 30.9719 25.1532C30.8988 25.1487 30.7413 25.1802 30.7413 25.2567C30.7413 25.4097 31.0188 25.5987 30.9981 26.1117C30.9775 26.6157 30.76 26.7687 30.76 26.9217C30.76 27.0747 30.8538 27.4977 30.8538 27.4977C30.8538 27.4977 30.6719 27.1602 30.6719 26.9037L30.6738 26.9082Z" fill="black" stroke="black" stroke-width="0.0516398"/>
<path fill-rule="evenodd" clip-rule="evenodd" d="M31.4825 26.8707C31.4825 26.6142 31.2294 26.4432 31.2294 26.0337C31.2294 25.6242 31.4544 25.6152 31.4619 25.2327C31.4806 25.0527 31.2406 24.9357 31.1544 24.9222C31.0681 24.9087 30.9669 25.2822 30.9669 25.3542C30.9669 25.4262 31.0681 25.1202 31.1413 25.1157C31.2144 25.1112 31.415 25.1427 31.415 25.2192C31.415 25.3722 31.1375 25.5612 31.1581 26.0742C31.1787 26.5782 31.3962 26.7312 31.3962 26.8842C31.3962 27.0372 31.3025 27.4602 31.3025 27.4602C31.3025 27.4602 31.4844 27.1227 31.4844 26.8662L31.4825 26.8707Z" fill="black" stroke="black" stroke-width="0.0516398"/>
<path fill-rule="evenodd" clip-rule="evenodd" d="M31.2172 24.834C31.2172 24.9559 31.1516 25.059 31.0766 25.059C31.0016 25.059 30.9453 24.9559 30.9453 24.8246C30.9453 24.6934 31.0016 24.5996 31.0766 24.5996C31.1516 24.5996 31.2172 24.7027 31.2172 24.834ZM32.8109 25.6777H32.8484V27.5059H32.8016L32.8109 25.6777ZM33.1953 25.5277H33.2422V27.3746H33.1953V25.5277Z" fill="black"/>
<path fill-rule="evenodd" clip-rule="evenodd" d="M33.0547 26.3623V26.3154L33.4297 26.3811V26.4279L33.0547 26.3623Z" fill="black"/>
<path fill-rule="evenodd" clip-rule="evenodd" d="M27.7007 26.8934C27.7007 26.8934 29.1145 27.556 29.4244 27.9513C29.7289 28.3465 29.6093 28.3465 29.6093 28.3465L32.7467 28.4802C32.7467 28.2826 33.3014 28.2826 33.4264 27.8176C33.5515 27.3584 33.5515 27.2247 33.5515 27.2247L32.5673 27.556L32.6217 26.9631H31.7626L31.6375 27.556L29.7887 27.4921L29.9138 25.9053L29.5441 25.9692L29.4897 27.4805C29.4244 27.4805 27.7606 27.0213 27.6953 26.8934H27.7007Z" fill="#B74D00" stroke="black" stroke-width="0.0999444"/>
<path fill-rule="evenodd" clip-rule="evenodd" d="M24.8516 17.4287C24.8516 17.4287 26.9015 16.7777 29.8595 16.8242C32.8175 16.8707 34.8674 17.5682 34.8239 17.5682C34.7804 17.5682 34.2584 16.4987 34.2584 16.4987C34.2584 16.4987 32.1704 15.8884 29.816 15.8419C27.467 15.7954 25.4171 16.3069 25.466 16.3534L24.8516 17.4287Z" fill="#FEDE00" stroke="#FEDE00" stroke-width="0.0999444"/>
<path fill-rule="evenodd" clip-rule="evenodd" d="M28.6875 15.9184L29.9625 15.8996L29.9812 16.6402L28.7063 16.6684L28.6875 15.9184ZM25.7625 16.3215L25.3125 17.0621L26.8313 16.8746L26.7094 16.1527L25.7625 16.3402V16.3215ZM27.0469 16.0402L28.3219 15.9371L28.3781 16.6684L27.1125 16.7809L27.0469 16.0402ZM31.6312 15.9746L30.3656 15.8809L30.3187 16.6309L31.5844 16.7059L31.6312 15.9746ZM34.3688 16.4434L34.8281 17.3434L33.4594 17.0059L33.6094 16.284L34.3594 16.434L34.3688 16.4434ZM33.2625 16.1621L32.0062 16.0027L31.9125 16.734L33.1781 16.9027L33.2625 16.1621Z" fill="#38A9F9"/>
<path fill-rule="evenodd" clip-rule="evenodd" d="M29.8574 17.8473L29.7214 17.0626L29.3082 17.731L29.4604 16.9463L28.846 17.3939L29.2592 16.7371L28.5306 16.8998L29.1559 16.4581L28.4219 16.3128L29.1559 16.1616L28.5306 15.7199L29.2592 15.8826L28.8406 15.2258L29.4604 15.6734L29.3082 14.8887L29.7214 15.5571L29.8574 14.7725L29.9987 15.5571L30.4066 14.8887L30.2597 15.6734L30.8742 15.2258L30.4555 15.8826L31.1896 15.7199L30.5642 16.1616L31.2983 16.3128L30.5642 16.4581L31.1896 16.8998L30.4555 16.7371L30.8742 17.3939L30.2597 16.9463L30.412 17.731L29.9987 17.0626L29.8574 17.8473Z" fill="#FFDF00" stroke="black" stroke-width="0.0999444"/>
<path fill-rule="evenodd" clip-rule="evenodd" d="M30.9489 15.8205C30.9489 16.2564 30.5962 16.608 30.1581 16.608C29.7199 16.608 29.3672 16.2564 29.3672 15.8205C29.3672 15.3846 29.7199 15.0283 30.1581 15.0283C30.5962 15.0283 30.9489 15.3846 30.9489 15.8252V15.8205Z" fill="#FFDF00" stroke="black" stroke-width="0.0889757"/>
<path fill-rule="evenodd" clip-rule="evenodd" d="M30.0641 15.9941C30.0641 16.041 29.9422 16.0879 29.8016 16.0879C29.6609 16.0879 29.5391 16.041 29.5391 15.9941C29.5391 15.9473 29.6516 15.9004 29.8016 15.9004C29.9516 15.9004 30.0641 15.9379 30.0641 15.9941ZM30.6266 15.9941C30.6266 16.041 30.5422 16.0879 30.4391 16.0879C30.3359 16.0879 30.2328 16.041 30.2328 15.9941C30.2328 15.9379 30.3266 15.9004 30.4297 15.9004C30.5328 15.9004 30.6266 15.9379 30.6266 15.9941Z" fill="black"/>
<path d="M30.0385 16.3174L30.0933 16.3489C29.9616 16.2684 30.0216 16.2982 30.2283 16.5019C30.3463 16.4332 30.3687 16.3708 30.442 16.2859" stroke="black" stroke-width="0.100943"/>
<path d="M29.5159 16.7317L29.5594 16.7782C29.4561 16.6619 29.505 16.72 29.7334 16.8712C29.9509 16.9002 30.1738 16.8014 30.3043 16.6387" stroke="black" stroke-width="0.0999444"/>
<path fill-rule="evenodd" clip-rule="evenodd" d="M26.3781 18.2627C26.3781 18.2627 26.4719 19.0127 25.9 19.9502C25.3375 20.8783 25.4219 20.5502 25.4219 20.5502C25.4219 20.5502 25.6844 21.0658 25.6375 21.0658C25.5906 21.0658 25.1969 20.5971 25.1969 20.5971L24.7281 21.1127C24.7281 21.1127 25.1594 20.3158 25.1125 20.3158C25.0656 20.3158 24.9812 20.0346 24.9812 20.0346L25.3281 19.8939C25.3281 19.8939 25.8531 18.9189 25.8531 18.9658C25.8531 19.0127 24.2875 20.0346 24.2875 20.0346L26.3781 18.2627ZM26.725 18.5439C26.6781 18.5439 26.9406 19.2939 27.1656 19.6689C27.3812 20.0439 27.3812 20.5033 27.3812 20.5033L28.1219 20.8783L27.1656 19.4346L27.775 19.6596L26.725 18.5439ZM26.725 20.5033C26.725 20.5033 27.25 21.0658 27.2875 21.2533C27.325 21.4408 27.3344 21.8533 27.3344 21.8533L27.1187 21.3846L26.8094 21.8064C26.8094 21.8064 27.0344 21.1502 26.9875 21.1033C26.9406 21.0564 26.6406 21.3377 26.6406 21.3377C26.6406 21.3377 26.7719 20.9627 26.7719 20.9252C26.7719 20.8877 26.7719 20.6439 26.725 20.5033ZM24.1094 21.8064C24.2875 21.6658 24.6344 21.5721 24.6344 21.5721C24.6344 21.5721 24.4187 21.9471 24.3719 21.9471C24.325 21.9471 24.2031 21.9471 24.1094 21.8064ZM30.1187 19.7627C30.1187 19.7627 31.2531 20.4564 31.2531 20.5033C31.2531 20.5502 30.5125 20.1752 30.5125 20.1752L30.1187 19.7627ZM28.075 18.3096C28.1687 18.3564 29.7344 19.6596 29.6875 19.6596C29.6406 19.6596 28.9937 19.2846 28.9937 19.3408V19.6596L28.6375 18.9189L28.5531 19.2002L28.075 18.3096ZM28.4688 20.4096L28.9 21.2908L29.3406 21.1971C29.3406 21.1971 28.5156 20.4096 28.4688 20.4096ZM29.8187 19.8471L29.8656 20.6908C29.8656 20.6908 30.1187 20.9252 30.1187 20.8783C30.1187 20.8314 29.8656 19.8939 29.8187 19.8471Z" fill="#B7E1FF"/>
<path fill-rule="evenodd" clip-rule="evenodd" d="M17.1172 8.39023C17.1172 8.39023 19.0859 7.30273 21.3266 6.49648C22.9751 5.89089 24.6761 5.43896 26.4078 5.14648C27.0641 5.14648 28.2078 6.81523 28.3953 6.81523C28.5828 6.81523 29.3422 6.34648 30.2984 6.34648C31.2547 6.34648 31.8078 7.09648 32.0047 7.09648H33.7109C33.8984 7.09648 33.1391 5.24023 33.7109 5.33398C33.9922 5.38086 36.4109 5.75586 38.6609 6.47773C40.9109 7.20898 44.0984 8.50273 44.0984 8.50273C44.0984 8.50273 38.8953 9.18711 37.4984 8.99023C37.3109 9.08398 37.4984 10.209 37.2172 9.71211C36.7859 9.61836 35.1828 9.36523 34.9016 9.36523C34.6203 9.36523 34.0859 9.68398 33.3266 9.87148C32.5766 10.059 31.6203 10.3402 31.6203 10.3402L32.8578 12.2809L31.3391 13.0309C31.3391 13.0309 30.3922 10.7996 30.0078 10.7996C29.6234 10.7996 29.4453 12.3746 28.9672 12.2809C28.4984 12.1871 28.3109 10.7996 27.9266 10.4246C27.5516 10.059 25.5453 9.91836 24.7859 9.74023C24.0359 9.55273 22.8078 9.41211 22.1422 9.22461C21.4859 9.03711 20.8109 9.69336 20.5297 9.69336C20.2484 9.69336 20.9047 9.13086 20.6234 9.03711C20.3422 8.94336 20.1547 9.31836 19.9672 9.31836C19.7797 9.31836 17.7828 8.94336 17.5953 8.84961C17.4078 8.75586 18.0641 8.39023 17.8766 8.39023H17.1172Z" fill="#984000"/>
<path fill-rule="evenodd" clip-rule="evenodd" d="M31.2585 7.46286C31.2585 7.97961 30.8336 8.39886 30.3118 8.39886C29.79 8.39886 29.3672 7.97961 29.3672 7.46286C29.3672 6.94611 29.79 6.5293 30.3118 6.5293C30.8336 6.5293 31.2585 6.94855 31.2585 7.46286Z" fill="#808080" stroke="#772600" stroke-width="0.110614"/>
<path fill-rule="evenodd" clip-rule="evenodd" d="M26.4609 7.64099C26.6305 7.44299 26.8406 7.14299 27.3899 7.14299C27.5165 7.09199 27.5165 6.79199 27.8101 6.79199C28.1062 6.79199 28.0202 7.09199 28.2328 7.19399C28.4429 7.29299 30.1717 7.09199 30.1717 7.09199C30.1717 7.09199 30.3388 7.24199 30.3388 7.44299C30.3388 7.64399 30.2122 7.79099 30.1717 7.79099C30.1312 7.79099 28.4429 7.64099 28.3163 7.69199C28.1898 7.74299 28.1062 7.79099 27.8101 7.79099C27.5165 7.79099 27.4304 7.44299 27.2203 7.44299C27.0102 7.44299 26.8001 7.39199 26.4609 7.64399V7.64099Z" fill="#984000" stroke="#772600" stroke-width="0.194734"/>
<path d="M31.6093 7.53602H32.2827C32.5257 7.53902 32.6092 7.62602 32.8319 7.63502H33.4217C33.6369 7.62602 33.7508 7.56602 33.9685 7.53602C34.3355 7.53002 34.2115 7.49702 34.1381 7.23602C34.0722 7.04102 34.0621 6.94802 33.9685 6.83702C33.933 6.59702 33.852 6.51302 33.8419 6.23702C33.8039 6.02702 33.7331 5.88602 33.8014 5.63702C33.8976 5.80802 33.9356 5.87702 34.1811 5.88902C34.4342 5.88902 34.5329 5.88002 34.6873 5.98802C34.8038 6.13502 34.9607 6.08702 35.1936 6.08702C35.386 6.12902 35.4189 6.24602 35.5708 6.33602C35.7505 6.45602 35.8669 6.48602 36.1175 6.48602C36.32 6.53102 36.4972 6.56402 36.6238 6.63602C36.7326 6.78902 36.9022 6.82802 37.13 6.83702C37.2566 6.83702 37.3578 6.82202 37.4667 6.78602C37.6616 6.79802 37.859 6.78602 38.0995 6.78602C38.2564 7.00202 38.2918 7.08302 38.5627 7.08602C38.75 7.24202 38.9069 7.26602 39.0689 7.33502H39.7017C39.9296 7.35602 40.0004 7.46702 40.208 7.53602C40.3861 7.6314 40.5686 7.71454 40.7548 7.78502C40.9359 7.8239 41.12 7.84099 41.304 7.83602C41.4584 7.93202 41.6483 7.93802 41.7673 8.03402C41.9419 8.07902 42.1798 8.13302 42.314 8.18402C42.5367 8.22002 42.6228 8.30402 42.8202 8.33402C42.9898 8.39402 42.7646 8.44202 42.6507 8.48402C42.4026 8.47502 42.3849 8.36402 42.1444 8.33402C42.0178 8.24702 41.8255 8.25902 41.6382 8.18402H41.5977C41.7647 8.30402 41.9267 8.37902 41.8508 8.58602C41.6356 8.58602 41.461 8.55302 41.261 8.53502C41.0484 8.48702 40.9522 8.43602 40.7142 8.43602C40.9522 8.36702 41.0129 8.44202 41.1775 8.53502C41.2382 8.77502 41.1066 8.68502 40.8813 8.68502C40.6889 8.60402 40.5725 8.50502 40.3346 8.48402H39.8283C40.0789 8.49602 40.1321 8.60702 40.2915 8.73602C40.3042 8.81402 40.289 8.80802 40.165 8.83502C40.0333 8.70002 39.8638 8.65502 39.6587 8.58602C39.4588 8.57702 39.2487 8.55602 39.0689 8.48402C38.9449 8.47502 38.9652 8.30102 39.2385 8.58602C39.4031 8.70002 39.4613 8.79602 39.4486 8.88602C39.2309 8.82002 39.1246 8.71802 38.9854 8.63402C38.7961 8.55619 38.5958 8.52257 38.3956 8.53502C38.1779 8.46602 38.4184 8.42702 38.5627 8.68502C38.8766 8.94902 38.5222 8.83502 38.3956 8.78402C38.2058 8.72102 38.0083 8.62802 37.8463 8.58602C37.7198 8.54102 37.6084 8.49902 37.4667 8.48402C37.6869 8.50802 37.7603 8.60102 37.8463 8.78402C38.0691 8.96402 37.8362 8.87702 37.6363 8.83502C37.5097 8.70302 37.3452 8.63402 37.2566 8.48402C37.0465 8.36102 37.0389 8.21402 37.173 8.53502C37.2059 8.63702 37.1983 8.85902 37.2135 8.88602C37.0591 8.68502 37.092 8.63402 36.9199 8.63402C36.8009 8.53802 36.6288 8.46302 36.5402 8.33402C36.3782 8.31602 36.3681 8.24702 36.2036 8.18402C36.3377 8.37302 36.5174 8.55902 36.6238 8.73602C36.8161 8.86202 36.8693 8.97602 37.0034 9.08402C37.0566 9.19502 37.2059 9.28502 37.0465 9.13502C36.8642 8.92502 36.7301 8.87402 36.4567 8.73602C36.2998 8.58602 36.2441 8.52602 36.077 8.38502C35.8492 8.29802 35.9378 8.25002 36.077 8.53502C36.2365 8.70902 36.358 8.90102 36.4972 9.03602C36.6064 9.19059 36.7343 9.32506 36.8769 9.43502C36.9148 9.50102 37.0288 9.51302 36.8769 9.53402C36.7503 9.39602 36.563 9.30902 36.4137 9.18302C36.2036 9.11402 36.1048 8.98502 35.9504 8.83502C35.8492 8.65802 35.6872 8.52302 35.5708 8.38502C35.3278 8.27102 35.6188 8.49302 35.6973 8.63402C35.7505 8.81702 35.8188 8.96402 35.8644 9.13502C35.9353 9.30002 35.6518 9.09602 35.5708 9.03602C35.4042 8.90815 35.2172 8.82237 35.0215 8.78402C34.8537 8.74423 34.6849 8.71121 34.5152 8.68502C34.3254 8.62502 34.619 8.82902 34.7278 9.03602C34.9405 9.27302 34.5177 9.07802 34.3912 9.03602C34.1822 8.99395 33.9702 8.97686 33.7584 8.98502C33.4875 9.00302 33.6824 9.04502 33.7584 9.18302C33.8419 9.26102 33.9001 9.42302 33.8849 9.48302C33.7077 9.45302 33.5559 9.39302 33.3357 9.38402C33.1585 9.45302 32.9484 9.43502 32.7459 9.43502C32.7383 9.56102 32.7838 9.45302 32.8724 9.58502C33.0192 9.65402 33.1154 9.73802 33.0851 9.83402H31.8625C31.7283 9.87602 31.8903 9.85502 31.989 10.035C31.9333 10.197 31.8625 10.134 31.6929 10.134C31.579 10.08 31.3486 10.056 31.2297 9.98402C31.1107 9.98402 31.1208 9.94802 31.0196 9.93302C31.3739 10.233 31.1967 10.158 31.3992 10.383C31.4322 10.398 31.5132 10.434 31.4398 10.434M28.6579 12.033C28.6326 12.033 28.5769 11.871 28.4908 11.733C28.4301 11.553 28.3542 11.655 28.2782 11.382C28.2883 11.1 28.2959 11.052 28.2782 10.782C28.1061 10.638 28.0327 10.596 27.8985 10.332C27.6859 10.122 27.9314 9.76202 27.9719 9.49802C27.7846 9.45002 27.6935 9.84302 27.4075 9.98402C27.1999 10.149 27.3822 9.64202 27.2809 9.34802C27.2126 8.93102 27.0075 9.55802 26.9316 9.73502C26.7924 9.84602 26.7493 9.99002 26.5519 9.78302C26.5519 9.63002 26.6759 9.19802 26.6228 9.11402C26.4253 9.23102 26.1672 9.57902 25.9621 9.63302C25.7546 9.58202 26.0052 9.18902 26.0052 8.89802C25.9292 8.86802 25.6331 9.67202 25.5116 9.67802C25.3901 9.68402 25.4432 8.89802 25.385 8.91602C25.2964 9.06602 25.1167 9.37802 24.9927 9.48602C24.7522 9.44702 25.0281 8.96102 25.0635 8.78102C25.104 8.56502 24.8382 9.19502 24.6965 9.23402C24.5927 9.34202 24.3877 9.41402 24.3168 9.43502C24.3978 9.24902 24.7977 8.87402 24.7724 8.76602C24.537 8.77502 24.1801 9.14102 23.9802 9.18602C23.8485 9.18602 23.6663 9.23702 23.6435 9.23402C23.6536 8.99402 24.1346 8.79602 24.2105 8.64902C23.9751 8.69402 23.522 8.94002 23.3904 9.13502C23.2334 9.17402 23.036 9.22502 22.8841 9.13502C22.9069 8.91002 23.2613 8.47502 23.3397 8.33102C23.1246 8.44202 23.0183 8.52902 22.7905 8.58002C22.7474 8.63102 22.6259 8.73902 22.6639 8.63102C22.7323 8.42102 22.8335 8.33102 22.917 8.18102C22.7272 8.22302 22.6563 8.35202 22.4538 8.48102C22.3247 8.48702 21.9552 8.92802 21.8311 8.93402C21.6212 9.13015 21.3762 9.26665 21.1148 9.33302C20.9224 9.37502 20.8288 9.42302 20.7351 9.53402C20.8313 9.33302 20.9781 9.14402 21.1148 9.03602C21.1982 8.85392 21.3324 8.71182 21.4945 8.63402C21.5426 8.56502 21.6742 8.54702 21.535 8.53502C21.416 8.66102 21.2135 8.80502 21.1148 8.88602C20.9857 8.98202 20.8363 9.07802 20.7756 9.03602C20.8439 8.82002 20.9654 8.76602 21.0717 8.58602C21.2945 8.41802 21.0718 8.52602 20.9022 8.58602C20.7933 8.70002 20.5984 8.78702 20.4389 8.88602C20.2617 8.94002 20.1428 9.06602 19.9327 9.13502C19.9327 9.20702 19.9934 9.00602 20.0188 8.93402C20.1909 8.71202 20.2364 8.64902 20.4389 8.58602C20.4896 8.49902 20.5503 8.53502 20.3984 8.53502C20.282 8.65502 20.1251 8.72102 19.9757 8.83502C19.8264 8.87402 19.6315 8.88602 19.429 8.88602C19.1657 8.92202 19.1885 8.94602 19.429 8.78402C19.5631 8.63402 19.6745 8.67302 19.6821 8.48402C19.5226 8.62202 19.3277 8.72402 19.1328 8.83502C18.9708 8.84102 18.9278 8.88602 18.7531 8.88602C18.8367 8.78402 18.8873 8.65502 19.0063 8.58602C19.1834 8.35502 18.8949 8.54102 18.8367 8.58602H18.2038C18.0925 8.75402 18.1988 8.58602 18.2899 8.48402C18.3988 8.41802 18.5127 8.33102 18.5 8.28602C18.3734 8.41502 18.2292 8.47502 18.1203 8.58602C18.0039 8.62802 17.8672 8.64602 17.8672 8.68502C17.9608 8.52602 18.1102 8.42702 18.2064 8.28602C18.3481 8.25002 18.4696 8.19602 18.5 8.13602H17.9102H18.3304C18.5456 8.13602 18.7278 8.11202 18.9227 8.08502C19.2568 8.01902 18.8923 7.98602 18.7101 7.98602C18.6772 7.90802 18.8164 7.86602 18.9632 7.83602C19.0898 7.76402 19.2493 7.70102 19.3859 7.63502C19.5066 7.59147 19.6204 7.52457 19.7226 7.43702C19.596 7.44302 19.596 7.47902 19.4695 7.48502C19.6593 7.47002 19.7935 7.43702 20.0188 7.43702C20.2043 7.36454 20.3867 7.28144 20.5655 7.18802C20.6414 7.08002 20.6718 7.08602 20.482 7.08602C20.6516 7.02302 20.892 6.99002 21.0287 6.93602C21.2032 6.89271 21.373 6.82629 21.535 6.73802C21.659 6.63902 21.7299 6.52202 21.8716 6.43802C22.0362 6.57002 22.0387 6.58802 22.3348 6.58802C22.5728 6.58502 22.7196 6.51602 22.8411 6.38702C23.0233 6.32702 23.0562 6.22502 23.2638 6.18902C23.4589 6.22534 23.6562 6.2414 23.8536 6.23702C24.0561 6.17402 24.251 6.05702 24.4003 5.93702C24.5294 5.86202 24.6838 5.75402 24.8231 5.68802C24.9749 5.78102 25.0964 5.85602 25.2863 5.88902C25.4812 5.85302 25.585 5.73902 25.7495 5.68802C25.851 5.56002 25.9838 5.47293 26.1292 5.43902C26.3747 5.29502 26.357 5.48402 26.4658 5.63702C26.5924 5.79302 26.7544 5.71802 26.9291 5.78702C27.0278 5.96702 27.0987 6.08702 27.2252 6.18602C27.3239 6.33002 27.4404 6.36602 27.6479 6.38702C27.7239 6.50702 27.6631 6.59102 27.815 6.63602C27.8758 6.71402 27.9795 6.74402 28.0681 6.78602" stroke="#772600" stroke-width="0.128598"/>
<path d="M31.1225 10.7584V10.7824C31.1225 10.7134 31.1225 10.7524 31.1655 10.8844C31.1807 10.9924 31.1453 10.9804 31.1022 11.0584C31.0946 11.1694 31.082 11.2504 31.082 11.3824C31.0668 11.4904 31.0162 11.5924 30.9757 11.6824C30.9352 11.7754 30.7605 11.8294 30.7656 11.9584C30.6643 11.9914 30.6618 11.9134 30.6593 11.7814C30.5985 11.7004 30.5783 11.5894 30.5327 11.4814C30.5074 11.3794 30.4466 11.3014 30.4061 11.1814C30.3454 11.0704 30.2922 11.0374 30.2391 10.9084C30.2163 10.8484 30.2213 10.7704 30.1758 10.7344C30.1074 10.6294 30.0619 10.6144 29.9429 10.6084C29.8518 10.6324 29.8163 10.6804 29.7328 10.7074C29.667 10.7344 29.5404 10.7254 29.4594 10.7584C29.4392 10.7974 29.4999 10.8184 29.5227 10.9084C29.467 10.9624 29.4468 11.0554 29.4164 11.1334C29.3658 11.2084 29.3329 11.2444 29.3101 11.3584C29.3455 11.4274 29.3152 11.5204 29.2696 11.5834C29.2544 11.6974 29.2063 11.7604 29.1835 11.8564C29.1177 11.9134 29.0924 11.9644 29.0367 12.0574C28.9886 12.1384 28.9456 12.1324 28.8266 12.1324C28.733 12.1024 28.7203 12.0424 28.6368 12.0064C28.6292 11.9764 28.6216 11.9674 28.5938 11.9584" stroke="#782600" stroke-width="0.113901"/>
<path fill-rule="evenodd" clip-rule="evenodd" d="M28.8344 11.7656C28.8344 11.7656 28.7969 12.2344 28.4969 12.5438C28.1969 12.8531 27.5781 13.2094 27.5781 13.2094C27.5781 13.2094 28.4125 12.8156 28.4969 12.9C28.5906 12.9938 27.9625 13.6781 27.9625 13.6781C27.9625 13.6781 28.7781 12.9562 28.8812 12.9562C28.9844 12.9562 29.2188 13.6594 29.3125 13.6406C29.3969 13.6219 29.125 12.75 29.1625 12.6094C29.2 12.4781 29.1625 11.7375 29.1625 11.7375L28.8438 11.7656H28.8344ZM30.7562 11.7094C30.7562 11.7094 30.7187 12.2062 30.4187 12.5344C30.1187 12.8625 29.5 13.2469 29.5 13.2469C29.5 13.2469 30.3344 12.825 30.4187 12.9188C30.5125 13.0125 29.8844 13.7438 29.8844 13.7438C29.8844 13.7438 30.7 12.975 30.8031 12.975C30.9062 12.975 31.1406 13.725 31.2344 13.7062C31.3187 13.6875 31.0469 12.75 31.0844 12.6094C31.1219 12.4594 31.0844 11.6719 31.0844 11.6719L30.7562 11.7094ZM28.0656 7.20938C28.0656 7.29375 27.9719 7.36875 27.8687 7.36875C27.7656 7.36875 27.6625 7.29375 27.6625 7.2C27.6625 7.10625 27.7562 7.03125 27.8687 7.03125C27.9812 7.03125 28.0656 7.10625 28.0656 7.2V7.20938Z" fill="#812E00"/>
</svg>
