<svg width="60" height="45" viewBox="0 0 60 45" fill="none" xmlns="http://www.w3.org/2000/svg">
<mask id="mask0_23_267" style="mask-type:luminance" maskUnits="userSpaceOnUse" x="0" y="0" width="60" height="45">
<path d="M0.0078125 0H59.9932V45H0.0078125V0Z" fill="white"/>
</mask>
<g mask="url(#mask0_23_267)">
<path fill-rule="evenodd" clip-rule="evenodd" d="M-7.67969 0L30.0078 22.5L-7.67969 45V0ZM67.6953 0L30.0078 22.5L67.6953 45V0Z" fill="#18B637"/>
<path fill-rule="evenodd" clip-rule="evenodd" d="M-7.67969 0L30.0078 22.5L67.6953 0H-7.67969ZM-7.67969 45L30.0078 22.5L67.6953 45H-7.67969Z" fill="#CF0921"/>
<path fill-rule="evenodd" clip-rule="evenodd" d="M67.6953 0H60.6729L-7.67969 40.8076V45H-0.657227L67.6953 4.19238V0Z" fill="white"/>
<path fill-rule="evenodd" clip-rule="evenodd" d="M43.0244 22.5C43.0244 25.9511 41.6535 29.2608 39.2132 31.701C36.773 34.1413 33.4633 35.5122 30.0122 35.5122C26.5612 35.5122 23.2514 34.1413 20.8112 31.701C18.3709 29.2608 17 25.9511 17 22.5C17 19.0501 18.3705 15.7415 20.8099 13.3021C23.2493 10.8626 26.5579 9.49219 30.0078 9.49219C33.4577 9.49219 36.7663 10.8626 39.2057 13.3021C41.6452 15.7415 43.0156 19.0501 43.0156 22.5H43.0244Z" fill="white"/>
<path fill-rule="evenodd" clip-rule="evenodd" d="M-7.67969 0V4.19238L60.6729 45H67.6953V40.8076L-0.657227 0H-7.67969Z" fill="white"/>
<path fill-rule="evenodd" clip-rule="evenodd" d="M32.5752 17.5957L30.8789 17.6221L30 19.0635L29.1299 17.6221L27.4424 17.5869L28.2598 16.1016L27.4512 14.625L29.1387 14.5898L30.0176 13.1484L30.8877 14.5986L32.5752 14.6338L31.7578 16.1104L32.5752 17.5957ZM26.8975 27.4043L25.21 27.4307L24.3311 28.8721L23.4609 27.4307L21.7734 27.3955L22.5908 25.9102L21.7822 24.4336L23.4697 24.3984L24.3486 22.957L25.2187 24.4072L26.9062 24.4424L26.0889 25.9189L26.8975 27.4043ZM38.376 27.4043L36.6885 27.4307L35.8096 28.8721L34.9307 27.4307L33.252 27.3955L34.0693 25.9102L33.252 24.4336L34.9395 24.3984L35.8184 22.957L36.6973 24.4072L38.3848 24.4424L37.5586 25.9189L38.376 27.4043Z" fill="#CF0921" stroke="#18B637" stroke-width="0.457031"/>
</g>
</svg>
