<svg width="72" height="70" viewBox="0 0 72 70" fill="none" xmlns="http://www.w3.org/2000/svg">
<ellipse cx="36.1319" cy="35" rx="35.5303" ry="35" fill="white"/>
<path d="M36.1563 58.516C37.08 58.495 37.9664 58.153 38.6588 57.5503C39.3511 56.9476 39.8047 56.1231 39.9395 55.2227H32.2266C32.3651 56.1476 32.84 56.9914 33.5628 57.5972C34.2857 58.203 35.2074 58.5295 36.1563 58.516Z" fill="black"/>
<path d="M57.9701 49.6328L57.4715 49.1995C56.0571 47.9581 54.8192 46.5345 53.791 44.9672C52.6681 42.8042 51.9951 40.4421 51.8115 38.0195V30.8839C51.8055 30.0172 51.7271 29.1524 51.5769 28.2983C49.0931 27.7954 46.862 26.4625 45.2614 24.5251C43.6608 22.5878 42.789 20.1651 42.7936 17.6672C42.7936 17.3639 42.7936 17.0606 42.7936 16.7572C41.2626 16.0151 39.6177 15.527 37.9253 15.3128V13.4928C37.9253 12.9814 37.7191 12.4909 37.352 12.1292C36.9849 11.7676 36.487 11.5645 35.9678 11.5645C35.4486 11.5645 34.9507 11.7676 34.5836 12.1292C34.2165 12.4909 34.0102 12.9814 34.0102 13.4928V15.385C30.2208 15.9116 26.7527 17.7709 24.2463 20.6196C21.7398 23.4683 20.3642 27.1141 20.3734 30.8839V38.0195C20.1897 40.4421 19.5167 42.8042 18.3938 44.9672C17.3834 46.5306 16.1653 47.954 14.772 49.1995L14.2734 49.6328V53.7061H57.9701V49.6328Z" fill="black"/>
<path d="M53.7379 24.8888C57.7871 24.8888 61.0695 21.6553 61.0695 17.6666C61.0695 13.6778 57.7871 10.4443 53.7379 10.4443C49.6887 10.4443 46.4062 13.6778 46.4062 17.6666C46.4062 21.6553 49.6887 24.8888 53.7379 24.8888Z" fill="#EA1D2C"/>
</svg>
