<svg width="22" height="21" viewBox="0 0 22 21" fill="none" xmlns="http://www.w3.org/2000/svg">
<path d="M21.4033 18.1558L17.2517 14.067C17.0644 13.8824 16.8104 13.7799 16.5439 13.7799H15.8651C17.0144 12.3322 17.6973 10.5113 17.6973 8.53042C17.6973 3.81818 13.8206 0 9.03614 0C4.25169 0 0.375 3.81818 0.375 8.53042C0.375 13.2427 4.25169 17.0608 9.03614 17.0608C11.0474 17.0608 12.8962 16.3882 14.3661 15.2563V15.9248C14.3661 16.1873 14.4702 16.4375 14.6576 16.622L18.8091 20.7109C19.2005 21.0964 19.8334 21.0964 20.2207 20.7109L21.3991 19.5502C21.7905 19.1647 21.7905 18.5414 21.4033 18.1558ZM9.03614 13.7799C6.09219 13.7799 3.70621 11.434 3.70621 8.53042C3.70621 5.6309 6.08802 3.28093 9.03614 3.28093C11.9801 3.28093 14.3661 5.62679 14.3661 8.53042C14.3661 11.4299 11.9843 13.7799 9.03614 13.7799Z" fill="#3A3A3A"/>
</svg>
