<svg width="44" height="42" viewBox="0 0 44 42" fill="none" xmlns="http://www.w3.org/2000/svg">
<path d="M43.4016 21C43.4016 9.40202 33.7645 0 21.8766 0C9.98863 0 0.351562 9.40202 0.351562 21C0.351562 31.4817 8.22294 40.1695 18.5133 41.7448V27.0703H13.0479V21H18.5133V16.3734C18.5133 11.1103 21.7268 8.20312 26.6436 8.20312C28.9986 8.20312 31.4619 8.61328 31.4619 8.61328V13.7812H28.7476C26.0737 13.7812 25.2398 15.4 25.2398 17.0607V21H31.2097L30.2553 27.0703H25.2398V41.7448C35.5302 40.1695 43.4016 31.4817 43.4016 21Z" fill="#1877F2"/>
<path d="M30.2621 27.0703L31.2164 21H25.2466V17.0607C25.2466 15.4 26.0805 13.7812 28.7544 13.7812H31.4687V8.61328C31.4687 8.61328 29.0054 8.20312 26.6503 8.20312C21.7336 8.20312 18.52 11.1103 18.52 16.3734V21H13.0547V27.0703H18.52V41.7448C20.7486 42.0851 23.018 42.0851 25.2466 41.7448V27.0703H30.2621Z" fill="white"/>
</svg>
